SplineFontDB: 3.0
FontName: MiaoUnicode-Regular
FullName: Miao Unicode
FamilyName: Miao Unicode
Weight: Regular
Copyright: Miao & Lisu adapted by Philip Reimer from Adobe Source Sans Pro. Source Sans Pro originally "Copyright 2010, 2012 Adobe Systems Incorporated. All Rights Reserved." Both glyph sets are released under the SIL Open Font License.
Version: 0.6 (Beta)
ItalicAngle: 0
UnderlinePosition: -50
UnderlineWidth: 50
Ascent: 750
Descent: 250
LayerCount: 2
Layer: 0 1 "Back"  1
Layer: 1 1 "Fore"  0
XUID: [1021 483 677828827 3354344]
BaseHoriz: 2 'ideo' 'romn'
BaseScript: 'DFLT' 1  -170 0
BaseScript: 'latn' 1  -170 0
FSType: 0
OS2Version: 3
OS2_WeightWidthSlopeOnly: 0
OS2_UseTypoMetrics: 1
CreationTime: 1366413349
ModificationTime: 1367770564
PfmFamily: 17
TTFWeight: 400
TTFWidth: 5
LineGap: 0
VLineGap: 0
Panose: 2 11 5 3 3 4 3 2 2 4
OS2TypoAscent: 750
OS2TypoAOffset: 0
OS2TypoDescent: -250
OS2TypoDOffset: 0
OS2TypoLinegap: 0
OS2WinAscent: 984
OS2WinAOffset: 0
OS2WinDescent: 273
OS2WinDOffset: 0
HheadAscent: 984
HheadAOffset: 0
HheadDescent: -273
HheadDOffset: 0
OS2SubXSize: 650
OS2SubYSize: 600
OS2SubXOff: 0
OS2SubYOff: 75
OS2SupXSize: 650
OS2SupYSize: 600
OS2SupXOff: 0
OS2SupYOff: 350
OS2StrikeYSize: 50
OS2StrikeYPos: 288
OS2Vendor: 'ADBE'
OS2CodePages: 20000193.00000000
OS2UnicodeRanges: 20000007.00000001.00000000.00000000
Lookup: 1 0 0 "'aalt' Access All Alternates in Latin lookup 0"  {"'aalt' Access All Alternates in Latin lookup 0 subtable"  } ['aalt' ('DFLT' <'dflt' > 'latn' <'AZE ' 'CRT ' 'TRK ' 'dflt' > ) ]
Lookup: 3 0 0 "'aalt' Access All Alternates in Latin lookup 1"  {"'aalt' Access All Alternates in Latin lookup 1 subtable"  } ['aalt' ('DFLT' <'dflt' > 'latn' <'AZE ' 'CRT ' 'TRK ' 'dflt' > ) ]
Lookup: 1 0 0 "'locl' Localised Forms in Latin lookup 2"  {"'locl' Localised Forms in Latin lookup 2 subtable"  } ['locl' ('latn' <'AZE ' 'CRT ' 'TRK ' > ) ]
Lookup: 2 0 0 "Multiple Substitution lookup 3"  {"Multiple Substitution lookup 3 subtable"  } []

StartChar: .notdef
Encoding: 1114112 -1 0
Width: 653
Flags: W
LayerCount: 2
Fore
SplineSet
89 660 m 1,0,-1
 565 660 l 1,1,-1
 565 0 l 1,2,-1
 89 0 l 1,3,-1
 89 660 l 1,0,-1
281 340 m 1,4,-1
 154 572 l 1,5,-1
 154 110 l 1,6,-1
 281 340 l 1,4,-1
498 110 m 1,7,-1
 498 572 l 1,8,-1
 372 340 l 1,9,-1
 498 110 l 1,7,-1
454 58 m 1,10,-1
 381 190 l 1,11,-1
 329 293 l 1,12,-1
 325 293 l 1,13,-1
 271 190 l 1,14,-1
 197 58 l 1,15,-1
 454 58 l 1,10,-1
329 387 m 1,16,-1
 378 481 l 1,17,-1
 444 600 l 1,18,-1
 209 600 l 1,19,-1
 275 481 l 1,20,-1
 325 387 l 1,21,-1
 329 387 l 1,16,-1
EndSplineSet
Validated: 1
EndChar

StartChar: A
Encoding: 65 65 4
Width: 544
GlyphClass: 2
Flags: W
AnchorPoint: "Anchor-4" 466 0 basechar 0
AnchorPoint: "Anchor-2" 270 -22 basechar 0
AnchorPoint: "Anchor-0" 270 678 basechar 0
LayerCount: 2
Fore
SplineSet
369 267 m 1,0,-1
 338 367 l 2,1,2
 320 422 320 422 304 476.5 c 128,-1,3
 288 531 288 531 272 588 c 1,4,-1
 268 588 l 1,5,6
 253 531 253 531 237 476.5 c 128,-1,7
 221 422 221 422 203 367 c 2,8,-1
 172 267 l 1,9,-1
 369 267 l 1,0,-1
390 200 m 1,10,-1
 151 200 l 1,11,-1
 88 0 l 1,12,-1
 3 0 l 1,13,-1
 225 656 l 1,14,-1
 319 656 l 1,15,-1
 541 0 l 1,16,-1
 452 0 l 1,17,-1
 390 200 l 1,10,-1
EndSplineSet
Validated: 1
Substitution2: "'sups' Superscript in Latin lookup 17 subtable" A.sups
Substitution2: "'c2sc' Capitals to Small Capitals in Latin lookup 9 subtable" A.sc
AlternateSubs2: "'aalt' Access All Alternates in Latin lookup 1 subtable" A.sc A.sups
EndChar

StartChar: B
Encoding: 66 66 5
Width: 588
GlyphClass: 2
Flags: W
AnchorPoint: "Anchor-2" 302 -22 basechar 0
AnchorPoint: "Anchor-0" 287 678 basechar 0
LayerCount: 2
Fore
SplineSet
90 656 m 1,0,-1
 285 656 l 2,1,2
 335 656 335 656 376.5 647 c 128,-1,3
 418 638 418 638 447.5 619 c 128,-1,4
 477 600 477 600 493.5 569.5 c 128,-1,5
 510 539 510 539 510 496 c 0,6,7
 510 447 510 447 482 407.5 c 128,-1,8
 454 368 454 368 396 353 c 1,9,-1
 396 349 l 1,10,11
 468 338 468 338 508 299 c 128,-1,12
 548 260 548 260 548 192 c 0,13,14
 548 144 548 144 530 108 c 128,-1,15
 512 72 512 72 479 48 c 128,-1,16
 446 24 446 24 400 12 c 128,-1,17
 354 0 354 0 299 0 c 2,18,-1
 90 0 l 1,19,-1
 90 656 l 1,0,-1
270 376 m 2,20,21
 355 376 355 376 391.5 405 c 128,-1,22
 428 434 428 434 428 489 c 0,23,24
 428 543 428 543 389.5 566.5 c 128,-1,25
 351 590 351 590 274 590 c 2,26,-1
 173 590 l 1,27,-1
 173 376 l 1,28,-1
 270 376 l 2,20,21
287 66 m 2,29,30
 372 66 372 66 419 97.5 c 128,-1,31
 466 129 466 129 466 196 c 0,32,33
 466 257 466 257 420 285.5 c 128,-1,34
 374 314 374 314 287 314 c 2,35,-1
 173 314 l 1,36,-1
 173 66 l 1,37,-1
 287 66 l 2,29,30
EndSplineSet
Validated: 1
Substitution2: "'sups' Superscript in Latin lookup 17 subtable" B.sups
Substitution2: "'c2sc' Capitals to Small Capitals in Latin lookup 9 subtable" B.sc
AlternateSubs2: "'aalt' Access All Alternates in Latin lookup 1 subtable" B.sc B.sups
EndChar

StartChar: C
Encoding: 67 67 6
Width: 571
GlyphClass: 2
Flags: W
AnchorPoint: "Anchor-2" 343 -22 basechar 0
AnchorPoint: "Anchor-1" 343 0 basechar 0
AnchorPoint: "Anchor-0" 329 678 basechar 0
LayerCount: 2
Fore
SplineSet
52 328 m 0,0,1
 52 407 52 407 74 470 c 128,-1,2
 96 533 96 533 135 577 c 128,-1,3
 174 621 174 621 227.5 644.5 c 128,-1,4
 281 668 281 668 344 668 c 0,5,6
 404 668 404 668 449 643.5 c 128,-1,7
 494 619 494 619 523 587 c 1,8,-1
 476 534 l 1,9,10
 450 562 450 562 418.5 578.5 c 128,-1,11
 387 595 387 595 345 595 c 0,12,13
 298 595 298 595 260 576.5 c 128,-1,14
 222 558 222 558 195 523.5 c 128,-1,15
 168 489 168 489 153 440 c 128,-1,16
 138 391 138 391 138 330 c 0,17,18
 138 268 138 268 152.5 218.5 c 128,-1,19
 167 169 167 169 193 134 c 128,-1,20
 219 99 219 99 256.5 80 c 128,-1,21
 294 61 294 61 341 61 c 0,22,23
 389 61 389 61 424.5 80 c 128,-1,24
 460 99 460 99 492 134 c 1,25,-1
 539 83 l 1,26,27
 500 38 500 38 451 13 c 128,-1,28
 402 -12 402 -12 339 -12 c 0,29,30
 277 -12 277 -12 224.5 11 c 128,-1,31
 172 34 172 34 133.5 77.5 c 128,-1,32
 95 121 95 121 73.5 184.5 c 128,-1,33
 52 248 52 248 52 328 c 0,0,1
EndSplineSet
Validated: 1
Substitution2: "'sups' Superscript in Latin lookup 17 subtable" C.sups
Substitution2: "'c2sc' Capitals to Small Capitals in Latin lookup 9 subtable" C.sc
AlternateSubs2: "'aalt' Access All Alternates in Latin lookup 1 subtable" C.sc C.sups
EndChar

StartChar: D
Encoding: 68 68 7
Width: 615
GlyphClass: 2
Flags: W
AnchorPoint: "Anchor-2" 305 -22 basechar 0
AnchorPoint: "Anchor-0" 308 678 basechar 0
LayerCount: 2
Fore
SplineSet
90 656 m 1,0,-1
 254 656 l 2,1,2
 406 656 406 656 485 572 c 128,-1,3
 564 488 564 488 564 331 c 0,4,5
 564 253 564 253 544 191.5 c 128,-1,6
 524 130 524 130 485 87.5 c 128,-1,7
 446 45 446 45 389 22.5 c 128,-1,8
 332 0 332 0 258 0 c 2,9,-1
 90 0 l 1,10,-1
 90 656 l 1,0,-1
248 68 m 2,11,12
 363 68 363 68 420.5 137 c 128,-1,13
 478 206 478 206 478 331 c 256,14,15
 478 456 478 456 420.5 522 c 128,-1,16
 363 588 363 588 248 588 c 2,17,-1
 173 588 l 1,18,-1
 173 68 l 1,19,-1
 248 68 l 2,11,12
EndSplineSet
Validated: 1
Substitution2: "'sups' Superscript in Latin lookup 17 subtable" D.sups
Substitution2: "'c2sc' Capitals to Small Capitals in Latin lookup 9 subtable" D.sc
AlternateSubs2: "'aalt' Access All Alternates in Latin lookup 1 subtable" D.sc D.sups
EndChar

StartChar: E
Encoding: 69 69 8
Width: 527
GlyphClass: 2
Flags: W
AnchorPoint: "Anchor-4" 388 0 basechar 0
AnchorPoint: "Anchor-2" 298 -22 basechar 0
AnchorPoint: "Anchor-0" 285 678 basechar 0
LayerCount: 2
Fore
SplineSet
90 656 m 1,0,-1
 468 656 l 1,1,-1
 468 586 l 1,2,-1
 173 586 l 1,3,-1
 173 380 l 1,4,-1
 422 380 l 1,5,-1
 422 309 l 1,6,-1
 173 309 l 1,7,-1
 173 71 l 1,8,-1
 478 71 l 1,9,-1
 478 0 l 1,10,-1
 90 0 l 1,11,-1
 90 656 l 1,0,-1
EndSplineSet
Validated: 1
Substitution2: "'sups' Superscript in Latin lookup 17 subtable" E.sups
Substitution2: "'c2sc' Capitals to Small Capitals in Latin lookup 9 subtable" E.sc
AlternateSubs2: "'aalt' Access All Alternates in Latin lookup 1 subtable" E.sc E.sups
EndChar

StartChar: F
Encoding: 70 70 9
Width: 494
GlyphClass: 2
Flags: W
AnchorPoint: "Anchor-2" 135 -22 basechar 0
AnchorPoint: "Anchor-0" 286 678 basechar 0
LayerCount: 2
Fore
SplineSet
90 656 m 1,0,-1
 468 656 l 1,1,-1
 468 586 l 1,2,-1
 173 586 l 1,3,-1
 173 364 l 1,4,-1
 423 364 l 1,5,-1
 423 294 l 1,6,-1
 173 294 l 1,7,-1
 173 0 l 1,8,-1
 90 0 l 1,9,-1
 90 656 l 1,0,-1
EndSplineSet
Validated: 1
Substitution2: "'sups' Superscript in Latin lookup 17 subtable" F.sups
Substitution2: "'c2sc' Capitals to Small Capitals in Latin lookup 9 subtable" F.sc
AlternateSubs2: "'aalt' Access All Alternates in Latin lookup 1 subtable" F.sc F.sups
EndChar

StartChar: G
Encoding: 71 71 10
Width: 617
GlyphClass: 2
Flags: W
AnchorPoint: "Anchor-2" 348 -22 basechar 0
AnchorPoint: "Anchor-0" 353 678 basechar 0
LayerCount: 2
Fore
SplineSet
52 328 m 0,0,1
 52 407 52 407 74.5 470 c 128,-1,2
 97 533 97 533 137.5 577 c 128,-1,3
 178 621 178 621 233 644.5 c 128,-1,4
 288 668 288 668 354 668 c 0,5,6
 422 668 422 668 467.5 642.5 c 128,-1,7
 513 617 513 617 542 587 c 1,8,-1
 495 534 l 1,9,10
 470 560 470 560 437.5 577.5 c 128,-1,11
 405 595 405 595 355 595 c 256,12,13
 305 595 305 595 265 576.5 c 128,-1,14
 225 558 225 558 197 523.5 c 128,-1,15
 169 489 169 489 153.5 440 c 128,-1,16
 138 391 138 391 138 330 c 0,17,18
 138 268 138 268 152.5 218.5 c 128,-1,19
 167 169 167 169 194.5 134 c 128,-1,20
 222 99 222 99 262.5 80 c 128,-1,21
 303 61 303 61 356 61 c 0,22,23
 391 61 391 61 422.5 71.5 c 128,-1,24
 454 82 454 82 474 100 c 1,25,-1
 474 271 l 1,26,-1
 335 271 l 1,27,-1
 335 340 l 1,28,-1
 550 340 l 1,29,-1
 550 64 l 1,30,31
 518 31 518 31 465.5 9.5 c 128,-1,32
 413 -12 413 -12 347 -12 c 0,33,34
 282 -12 282 -12 228 11 c 128,-1,35
 174 34 174 34 135 77.5 c 128,-1,36
 96 121 96 121 74 184.5 c 128,-1,37
 52 248 52 248 52 328 c 0,0,1
EndSplineSet
Validated: 1
Substitution2: "'sups' Superscript in Latin lookup 17 subtable" G.sups
Substitution2: "'c2sc' Capitals to Small Capitals in Latin lookup 9 subtable" G.sc
AlternateSubs2: "'aalt' Access All Alternates in Latin lookup 1 subtable" G.sc G.sups
EndChar

StartChar: H
Encoding: 72 72 11
Width: 652
GlyphClass: 2
Flags: W
AnchorPoint: "Anchor-2" 325 -22 basechar 0
AnchorPoint: "Anchor-0" 325 678 basechar 0
LayerCount: 2
Fore
SplineSet
90 656 m 1,0,-1
 173 656 l 1,1,-1
 173 381 l 1,2,-1
 478 381 l 1,3,-1
 478 656 l 1,4,-1
 562 656 l 1,5,-1
 562 0 l 1,6,-1
 478 0 l 1,7,-1
 478 309 l 1,8,-1
 173 309 l 1,9,-1
 173 0 l 1,10,-1
 90 0 l 1,11,-1
 90 656 l 1,0,-1
EndSplineSet
Validated: 1
Substitution2: "'sups' Superscript in Latin lookup 17 subtable" H.sups
Substitution2: "'c2sc' Capitals to Small Capitals in Latin lookup 9 subtable" H.sc
AlternateSubs2: "'aalt' Access All Alternates in Latin lookup 1 subtable" H.sc H.sups
EndChar

StartChar: I
Encoding: 73 73 12
Width: 263
GlyphClass: 2
Flags: W
AnchorPoint: "Anchor-4" 108 0 basechar 0
AnchorPoint: "Anchor-2" 131 -22 basechar 0
AnchorPoint: "Anchor-0" 131 678 basechar 0
LayerCount: 2
Fore
SplineSet
90 656 m 1,0,-1
 173 656 l 1,1,-1
 173 0 l 1,2,-1
 90 0 l 1,3,-1
 90 656 l 1,0,-1
EndSplineSet
Validated: 1
Substitution2: "'ss04' Style Set 4 in Latin lookup 29 subtable" I.a
Substitution2: "'sups' Superscript in Latin lookup 17 subtable" I.sups
Substitution2: "'c2sc' Capitals to Small Capitals in Latin lookup 9 subtable" I.sc
AlternateSubs2: "'aalt' Access All Alternates in Latin lookup 1 subtable" I.sc I.sups I.a
EndChar

StartChar: J
Encoding: 74 74 13
Width: 480
GlyphClass: 2
Flags: W
AnchorPoint: "Anchor-2" 253 -22 basechar 0
AnchorPoint: "Anchor-0" 348 678 basechar 0
LayerCount: 2
Fore
SplineSet
91 135 m 1,0,1
 113 96 113 96 141 78.5 c 128,-1,2
 169 61 169 61 204 61 c 0,3,4
 257 61 257 61 283 93.5 c 128,-1,5
 309 126 309 126 309 201 c 2,6,-1
 309 656 l 1,7,-1
 393 656 l 1,8,-1
 393 193 l 2,9,10
 393 151 393 151 382.5 113.5 c 128,-1,11
 372 76 372 76 350.5 48 c 128,-1,12
 329 20 329 20 294.5 4 c 128,-1,13
 260 -12 260 -12 212 -12 c 0,14,15
 89 -12 89 -12 31 93 c 1,16,-1
 91 135 l 1,0,1
EndSplineSet
Validated: 1
Substitution2: "'sups' Superscript in Latin lookup 17 subtable" J.sups
Substitution2: "'c2sc' Capitals to Small Capitals in Latin lookup 9 subtable" J.sc
AlternateSubs2: "'aalt' Access All Alternates in Latin lookup 1 subtable" J.sc J.sups
EndChar

StartChar: K
Encoding: 75 75 14
Width: 579
GlyphClass: 2
Flags: W
AnchorPoint: "Anchor-2" 328 -22 basechar 0
AnchorPoint: "Anchor-0" 311 678 basechar 0
LayerCount: 2
Fore
SplineSet
90 656 m 1,0,-1
 173 656 l 1,1,-1
 173 327 l 1,2,-1
 176 327 l 1,3,-1
 449 656 l 1,4,-1
 543 656 l 1,5,-1
 338 406 l 1,6,-1
 575 0 l 1,7,-1
 482 0 l 1,8,-1
 286 341 l 1,9,-1
 173 208 l 1,10,-1
 173 0 l 1,11,-1
 90 0 l 1,12,-1
 90 656 l 1,0,-1
EndSplineSet
Validated: 1
Substitution2: "'sups' Superscript in Latin lookup 17 subtable" K.sups
Substitution2: "'c2sc' Capitals to Small Capitals in Latin lookup 9 subtable" K.sc
AlternateSubs2: "'aalt' Access All Alternates in Latin lookup 1 subtable" K.sc K.sups
EndChar

StartChar: L
Encoding: 76 76 15
Width: 486
GlyphClass: 2
Flags: W
AnchorPoint: "Anchor-2" 289 -22 basechar 0
AnchorPoint: "Anchor-0" 133 678 basechar 0
LayerCount: 2
Fore
SplineSet
90 656 m 1,0,-1
 173 656 l 1,1,-1
 173 71 l 1,2,-1
 460 71 l 1,3,-1
 460 0 l 1,4,-1
 90 0 l 1,5,-1
 90 656 l 1,0,-1
EndSplineSet
Validated: 1
Substitution2: "'sups' Superscript in Latin lookup 17 subtable" L.sups
Substitution2: "'c2sc' Capitals to Small Capitals in Latin lookup 9 subtable" L.sc
AlternateSubs2: "'aalt' Access All Alternates in Latin lookup 1 subtable" L.sc L.sups
EndChar

StartChar: M
Encoding: 77 77 16
Width: 727
GlyphClass: 2
Flags: W
AnchorPoint: "Anchor-2" 365 -22 basechar 0
AnchorPoint: "Anchor-0" 363 678 basechar 0
LayerCount: 2
Fore
SplineSet
90 656 m 1,0,-1
 188 656 l 1,1,-1
 315 304 l 1,2,-1
 363 170 l 1,3,-1
 367 170 l 1,4,-1
 413 304 l 1,5,-1
 539 656 l 1,6,-1
 637 656 l 1,7,-1
 637 0 l 1,8,-1
 558 0 l 1,9,-1
 558 361 l 2,10,11
 558 405 558 405 561.5 458 c 128,-1,12
 565 511 565 511 569 555 c 1,13,-1
 565 555 l 1,14,-1
 512 409 l 1,15,-1
 386 66 l 1,16,-1
 339 66 l 1,17,-1
 212 409 l 1,18,-1
 160 555 l 1,19,-1
 156 555 l 1,20,21
 159 511 159 511 163 458 c 128,-1,22
 167 405 167 405 167 361 c 2,23,-1
 167 0 l 1,24,-1
 90 0 l 1,25,-1
 90 656 l 1,0,-1
EndSplineSet
Validated: 1
Substitution2: "'sups' Superscript in Latin lookup 17 subtable" M.sups
Substitution2: "'c2sc' Capitals to Small Capitals in Latin lookup 9 subtable" M.sc
AlternateSubs2: "'aalt' Access All Alternates in Latin lookup 1 subtable" M.sc M.sups
EndChar

StartChar: N
Encoding: 78 78 17
Width: 647
GlyphClass: 2
Flags: W
AnchorPoint: "Anchor-2" 327 -22 basechar 0
AnchorPoint: "Anchor-0" 327 678 basechar 0
LayerCount: 2
Fore
SplineSet
90 656 m 1,0,-1
 176 656 l 1,1,-1
 413 244 l 1,2,-1
 484 108 l 1,3,-1
 488 108 l 1,4,5
 485 158 485 158 481.5 211.5 c 128,-1,6
 478 265 478 265 478 317 c 2,7,-1
 478 656 l 1,8,-1
 557 656 l 1,9,-1
 557 0 l 1,10,-1
 471 0 l 1,11,-1
 233 413 l 1,12,-1
 162 548 l 1,13,-1
 158 548 l 1,14,15
 162 498 162 498 165.5 446.5 c 128,-1,16
 169 395 169 395 169 343 c 2,17,-1
 169 0 l 1,18,-1
 90 0 l 1,19,-1
 90 656 l 1,0,-1
EndSplineSet
Validated: 1
Substitution2: "'sups' Superscript in Latin lookup 17 subtable" N.sups
Substitution2: "'c2sc' Capitals to Small Capitals in Latin lookup 9 subtable" N.sc
AlternateSubs2: "'aalt' Access All Alternates in Latin lookup 1 subtable" N.sc N.sups
EndChar

StartChar: O
Encoding: 79 79 18
Width: 664
GlyphClass: 2
Flags: W
AnchorPoint: "Anchor-4" 332 0 basechar 0
AnchorPoint: "Anchor-3" 469 646 basechar 0
AnchorPoint: "Anchor-2" 332 -22 basechar 0
AnchorPoint: "Anchor-0" 332 678 basechar 0
LayerCount: 2
Fore
SplineSet
332 -12 m 256,0,1
 270 -12 270 -12 218.5 12 c 128,-1,2
 167 36 167 36 130 80.5 c 128,-1,3
 93 125 93 125 72.5 188.5 c 128,-1,4
 52 252 52 252 52 331 c 256,5,6
 52 410 52 410 72.5 472.5 c 128,-1,7
 93 535 93 535 130 578.5 c 128,-1,8
 167 622 167 622 218.5 645 c 128,-1,9
 270 668 270 668 332 668 c 256,10,11
 394 668 394 668 445.5 644.5 c 128,-1,12
 497 621 497 621 534.5 577.5 c 128,-1,13
 572 534 572 534 592.5 471.5 c 128,-1,14
 613 409 613 409 613 331 c 0,15,16
 613 252 613 252 592.5 188.5 c 128,-1,17
 572 125 572 125 534.5 80.5 c 128,-1,18
 497 36 497 36 445.5 12 c 128,-1,19
 394 -12 394 -12 332 -12 c 256,0,1
332 61 m 256,20,21
 376 61 376 61 411.5 80 c 128,-1,22
 447 99 447 99 472.5 134.5 c 128,-1,23
 498 170 498 170 512 219.5 c 128,-1,24
 526 269 526 269 526 331 c 0,25,26
 526 392 526 392 512 441 c 128,-1,27
 498 490 498 490 472.5 524 c 128,-1,28
 447 558 447 558 411.5 576.5 c 128,-1,29
 376 595 376 595 332 595 c 256,30,31
 288 595 288 595 252.5 576.5 c 128,-1,32
 217 558 217 558 191.5 524 c 128,-1,33
 166 490 166 490 152 441 c 128,-1,34
 138 392 138 392 138 331 c 0,35,36
 138 269 138 269 152 219.5 c 128,-1,37
 166 170 166 170 191.5 134.5 c 128,-1,38
 217 99 217 99 252.5 80 c 128,-1,39
 288 61 288 61 332 61 c 256,20,21
EndSplineSet
Validated: 1
Substitution2: "'sups' Superscript in Latin lookup 17 subtable" O.sups
Substitution2: "'c2sc' Capitals to Small Capitals in Latin lookup 9 subtable" O.sc
AlternateSubs2: "'aalt' Access All Alternates in Latin lookup 1 subtable" O.sc O.sups
EndChar

StartChar: P
Encoding: 80 80 19
Width: 576
GlyphClass: 2
Flags: W
AnchorPoint: "Anchor-2" 137 -22 basechar 0
AnchorPoint: "Anchor-0" 303 678 basechar 0
LayerCount: 2
Fore
SplineSet
90 656 m 1,0,-1
 291 656 l 2,1,2
 345 656 345 656 390 646 c 128,-1,3
 435 636 435 636 466.5 613.5 c 128,-1,4
 498 591 498 591 515.5 554 c 128,-1,5
 533 517 533 517 533 463 c 0,6,7
 533 411 533 411 515.5 373 c 128,-1,8
 498 335 498 335 466 310 c 128,-1,9
 434 285 434 285 389.5 272.5 c 128,-1,10
 345 260 345 260 291 260 c 2,11,-1
 173 260 l 1,12,-1
 173 0 l 1,13,-1
 90 0 l 1,14,-1
 90 656 l 1,0,-1
281 328 m 2,15,16
 367 328 367 328 408.5 360.5 c 128,-1,17
 450 393 450 393 450 463 c 0,18,19
 450 534 450 534 408 561.5 c 128,-1,20
 366 589 366 589 281 589 c 2,21,-1
 173 589 l 1,22,-1
 173 328 l 1,23,-1
 281 328 l 2,15,16
EndSplineSet
Validated: 1
Substitution2: "'sups' Superscript in Latin lookup 17 subtable" P.sups
Substitution2: "'c2sc' Capitals to Small Capitals in Latin lookup 9 subtable" P.sc
AlternateSubs2: "'aalt' Access All Alternates in Latin lookup 1 subtable" P.sc P.sups
EndChar

StartChar: Q
Encoding: 81 81 20
Width: 664
GlyphClass: 2
Flags: W
AnchorPoint: "Anchor-0" 332 678 basechar 0
LayerCount: 2
Fore
SplineSet
138 331 m 0,0,1
 138 268 138 268 152 217.5 c 128,-1,2
 166 167 166 167 191.5 131 c 128,-1,3
 217 95 217 95 252.5 76 c 128,-1,4
 288 57 288 57 332 57 c 256,5,6
 376 57 376 57 411.5 76 c 128,-1,7
 447 95 447 95 472.5 131 c 128,-1,8
 498 167 498 167 512 217.5 c 128,-1,9
 526 268 526 268 526 331 c 0,10,11
 526 392 526 392 512 441 c 128,-1,12
 498 490 498 490 472.5 524 c 128,-1,13
 447 558 447 558 411.5 576.5 c 128,-1,14
 376 595 376 595 332 595 c 256,15,16
 288 595 288 595 252.5 576.5 c 128,-1,17
 217 558 217 558 191.5 524 c 128,-1,18
 166 490 166 490 152 441 c 128,-1,19
 138 392 138 392 138 331 c 0,0,1
627 -149 m 1,20,21
 612 -154 612 -154 587 -159 c 128,-1,22
 562 -164 562 -164 533 -164 c 0,23,24
 442 -164 442 -164 381 -120.5 c 128,-1,25
 320 -77 320 -77 291 -9 c 1,26,27
 237 -2 237 -2 193 25 c 128,-1,28
 149 52 149 52 117.5 96 c 128,-1,29
 86 140 86 140 69 199.5 c 128,-1,30
 52 259 52 259 52 331 c 0,31,32
 52 410 52 410 72.5 472.5 c 128,-1,33
 93 535 93 535 130 578.5 c 128,-1,34
 167 622 167 622 218.5 645 c 128,-1,35
 270 668 270 668 332 668 c 256,36,37
 394 668 394 668 445.5 644.5 c 128,-1,38
 497 621 497 621 534.5 577.5 c 128,-1,39
 572 534 572 534 592.5 471.5 c 128,-1,40
 613 409 613 409 613 331 c 0,41,42
 613 260 613 260 596.5 201.5 c 128,-1,43
 580 143 580 143 549.5 99.5 c 128,-1,44
 519 56 519 56 476 28.5 c 128,-1,45
 433 1 433 1 381 -8 c 1,46,47
 404 -52 404 -52 446 -73 c 128,-1,48
 488 -94 488 -94 542 -94 c 0,49,50
 564 -94 564 -94 580.5 -91 c 128,-1,51
 597 -88 597 -88 611 -84 c 1,52,-1
 627 -149 l 1,20,21
EndSplineSet
Validated: 1
Substitution2: "'sups' Superscript in Latin lookup 17 subtable" Q.sups
Substitution2: "'c2sc' Capitals to Small Capitals in Latin lookup 9 subtable" Q.sc
AlternateSubs2: "'aalt' Access All Alternates in Latin lookup 1 subtable" Q.sc Q.sups
EndChar

StartChar: R
Encoding: 82 82 21
Width: 581
GlyphClass: 2
Flags: W
AnchorPoint: "Anchor-2" 310 -22 basechar 0
AnchorPoint: "Anchor-0" 295 678 basechar 0
LayerCount: 2
Fore
SplineSet
173 345 m 1,0,-1
 283 345 l 2,1,2
 360 345 360 345 401 376.5 c 128,-1,3
 442 408 442 408 442 472 c 0,4,5
 442 537 442 537 401 563 c 128,-1,6
 360 589 360 589 283 589 c 2,7,-1
 173 589 l 1,8,-1
 173 345 l 1,0,-1
450 0 m 1,9,-1
 292 277 l 1,10,-1
 173 277 l 1,11,-1
 173 0 l 1,12,-1
 90 0 l 1,13,-1
 90 656 l 1,14,-1
 295 656 l 2,15,16
 345 656 345 656 387.5 646.5 c 128,-1,17
 430 637 430 637 460.5 615 c 128,-1,18
 491 593 491 593 508 558 c 128,-1,19
 525 523 525 523 525 472 c 0,20,21
 525 395 525 395 485 349 c 128,-1,22
 445 303 445 303 378 286 c 1,23,-1
 544 0 l 1,24,-1
 450 0 l 1,9,-1
EndSplineSet
Validated: 1
Substitution2: "'sups' Superscript in Latin lookup 17 subtable" R.sups
Substitution2: "'c2sc' Capitals to Small Capitals in Latin lookup 9 subtable" R.sc
AlternateSubs2: "'aalt' Access All Alternates in Latin lookup 1 subtable" R.sc R.sups
EndChar

StartChar: S
Encoding: 83 83 22
Width: 534
GlyphClass: 2
Flags: W
AnchorPoint: "Anchor-2" 273 -22 basechar 0
AnchorPoint: "Anchor-1" 273 0 basechar 0
AnchorPoint: "Anchor-0" 278 678 basechar 0
LayerCount: 2
Fore
SplineSet
92 143 m 1,0,1
 127 106 127 106 174.5 83.5 c 128,-1,2
 222 61 222 61 273 61 c 0,3,4
 338 61 338 61 374 90.5 c 128,-1,5
 410 120 410 120 410 168 c 0,6,7
 410 193 410 193 401.5 210.5 c 128,-1,8
 393 228 393 228 378.5 240.5 c 128,-1,9
 364 253 364 253 344 263 c 128,-1,10
 324 273 324 273 301 284 c 2,11,-1
 207 325 l 2,12,13
 184 335 184 335 160 349 c 128,-1,14
 136 363 136 363 117 383 c 128,-1,15
 98 403 98 403 86 430.5 c 128,-1,16
 74 458 74 458 74 494 c 0,17,18
 74 531 74 531 89.5 563 c 128,-1,19
 105 595 105 595 132.5 618.5 c 128,-1,20
 160 642 160 642 197.5 655 c 128,-1,21
 235 668 235 668 280 668 c 0,22,23
 339 668 339 668 389 645.5 c 128,-1,24
 439 623 439 623 474 587 c 1,25,-1
 429 533 l 1,26,27
 399 562 399 562 362.5 578.5 c 128,-1,28
 326 595 326 595 280 595 c 0,29,30
 225 595 225 595 191.5 569.5 c 128,-1,31
 158 544 158 544 158 499 c 0,32,33
 158 475 158 475 167.5 458.5 c 128,-1,34
 177 442 177 442 193 429.5 c 128,-1,35
 209 417 209 417 228 407.5 c 128,-1,36
 247 398 247 398 267 390 c 2,37,-1
 360 350 l 2,38,39
 388 338 388 338 413 322.5 c 128,-1,40
 438 307 438 307 456 286.5 c 128,-1,41
 474 266 474 266 484.5 238.5 c 128,-1,42
 495 211 495 211 495 175 c 0,43,44
 495 136 495 136 479.5 102 c 128,-1,45
 464 68 464 68 435 42.5 c 128,-1,46
 406 17 406 17 365 2.5 c 128,-1,47
 324 -12 324 -12 272 -12 c 0,48,49
 203 -12 203 -12 144 14 c 128,-1,50
 85 40 85 40 42 85 c 1,51,-1
 92 143 l 1,0,1
EndSplineSet
Validated: 1
Substitution2: "'sups' Superscript in Latin lookup 17 subtable" S.sups
Substitution2: "'c2sc' Capitals to Small Capitals in Latin lookup 9 subtable" S.sc
AlternateSubs2: "'aalt' Access All Alternates in Latin lookup 1 subtable" S.sc S.sups
EndChar

StartChar: T
Encoding: 84 84 23
Width: 536
GlyphClass: 2
Flags: W
AnchorPoint: "Anchor-2" 268 -22 basechar 0
AnchorPoint: "Anchor-1" 268 0 basechar 0
AnchorPoint: "Anchor-0" 267 678 basechar 0
LayerCount: 2
Fore
SplineSet
226 586 m 1,0,-1
 28 586 l 1,1,-1
 28 656 l 1,2,-1
 508 656 l 1,3,-1
 508 586 l 1,4,-1
 310 586 l 1,5,-1
 310 0 l 1,6,-1
 226 0 l 1,7,-1
 226 586 l 1,0,-1
EndSplineSet
Validated: 1
Substitution2: "'sups' Superscript in Latin lookup 17 subtable" T.sups
Substitution2: "'c2sc' Capitals to Small Capitals in Latin lookup 9 subtable" T.sc
AlternateSubs2: "'aalt' Access All Alternates in Latin lookup 1 subtable" T.sc T.sups
EndChar

StartChar: U
Encoding: 85 85 24
Width: 645
GlyphClass: 2
Flags: W
AnchorPoint: "Anchor-4" 322 0 basechar 0
AnchorPoint: "Anchor-3" 525 666 basechar 0
AnchorPoint: "Anchor-2" 322 -22 basechar 0
AnchorPoint: "Anchor-0" 322 678 basechar 0
LayerCount: 2
Fore
SplineSet
87 656 m 1,0,-1
 170 656 l 1,1,-1
 170 269 l 2,2,3
 170 210 170 210 182 170 c 128,-1,4
 194 130 194 130 214.5 106 c 128,-1,5
 235 82 235 82 263 71.5 c 128,-1,6
 291 61 291 61 323 61 c 0,7,8
 356 61 356 61 384 71.5 c 128,-1,9
 412 82 412 82 433 106 c 128,-1,10
 454 130 454 130 466 170 c 128,-1,11
 478 210 478 210 478 269 c 2,12,-1
 478 656 l 1,13,-1
 558 656 l 1,14,-1
 558 271 l 2,15,16
 558 192 558 192 540 138 c 128,-1,17
 522 84 522 84 490.5 50.5 c 128,-1,18
 459 17 459 17 416 2.5 c 128,-1,19
 373 -12 373 -12 323 -12 c 256,20,21
 273 -12 273 -12 229.5 2.5 c 128,-1,22
 186 17 186 17 154.5 50.5 c 128,-1,23
 123 84 123 84 105 138 c 128,-1,24
 87 192 87 192 87 271 c 2,25,-1
 87 656 l 1,0,-1
EndSplineSet
Validated: 1
Substitution2: "'sups' Superscript in Latin lookup 17 subtable" U.sups
Substitution2: "'c2sc' Capitals to Small Capitals in Latin lookup 9 subtable" U.sc
AlternateSubs2: "'aalt' Access All Alternates in Latin lookup 1 subtable" U.sc U.sups
EndChar

StartChar: V
Encoding: 86 86 25
Width: 515
GlyphClass: 2
Flags: W
AnchorPoint: "Anchor-2" 258 -22 basechar 0
AnchorPoint: "Anchor-0" 257 678 basechar 0
LayerCount: 2
Fore
SplineSet
0 656 m 1,0,-1
 89 656 l 1,1,-1
 194 302 l 2,2,3
 212 243 212 243 225.5 193 c 128,-1,4
 239 143 239 143 258 85 c 1,5,-1
 262 85 l 1,6,7
 280 143 280 143 294 193 c 128,-1,8
 308 243 308 243 325 302 c 2,9,-1
 430 656 l 1,10,-1
 515 656 l 1,11,-1
 307 0 l 1,12,-1
 210 0 l 1,13,-1
 0 656 l 1,0,-1
EndSplineSet
Validated: 1
Substitution2: "'sups' Superscript in Latin lookup 17 subtable" V.sups
Substitution2: "'c2sc' Capitals to Small Capitals in Latin lookup 9 subtable" V.sc
AlternateSubs2: "'aalt' Access All Alternates in Latin lookup 1 subtable" V.sc V.sups
EndChar

StartChar: W
Encoding: 87 87 26
Width: 786
GlyphClass: 2
Flags: W
AnchorPoint: "Anchor-2" 396 -22 basechar 0
AnchorPoint: "Anchor-0" 393 678 basechar 0
LayerCount: 2
Fore
SplineSet
23 656 m 1,0,-1
 109 656 l 1,1,-1
 178 299 l 1,2,3
 187 245 187 245 197 193 c 128,-1,4
 207 141 207 141 216 87 c 1,5,-1
 220 87 l 1,6,7
 231 141 231 141 243 193.5 c 128,-1,8
 255 246 255 246 266 299 c 1,9,-1
 357 656 l 1,10,-1
 433 656 l 1,11,-1
 524 299 l 1,12,13
 536 247 536 247 548 194 c 128,-1,14
 560 141 560 141 572 87 c 1,15,-1
 576 87 l 1,16,17
 585 141 585 141 594 193.5 c 128,-1,18
 603 246 603 246 613 299 c 2,19,-1
 682 656 l 1,20,-1
 762 656 l 1,21,-1
 626 0 l 1,22,-1
 526 0 l 1,23,-1
 427 395 l 2,24,25
 418 433 418 433 410.5 469.5 c 128,-1,26
 403 506 403 506 395 544 c 1,27,-1
 391 544 l 1,28,29
 383 506 383 506 374.5 469.5 c 128,-1,30
 366 433 366 433 358 395 c 1,31,-1
 261 0 l 1,32,-1
 162 0 l 1,33,-1
 23 656 l 1,0,-1
EndSplineSet
Validated: 1
Substitution2: "'sups' Superscript in Latin lookup 17 subtable" W.sups
Substitution2: "'c2sc' Capitals to Small Capitals in Latin lookup 9 subtable" W.sc
AlternateSubs2: "'aalt' Access All Alternates in Latin lookup 1 subtable" W.sc W.sups
EndChar

StartChar: X
Encoding: 88 88 27
Width: 513
GlyphClass: 2
Flags: W
AnchorPoint: "Anchor-2" 252 -22 basechar 0
AnchorPoint: "Anchor-0" 257 678 basechar 0
LayerCount: 2
Fore
SplineSet
206 339 m 1,0,-1
 28 656 l 1,1,-1
 120 656 l 1,2,-1
 209 488 l 2,3,4
 222 465 222 465 233.5 443.5 c 128,-1,5
 245 422 245 422 260 393 c 1,6,-1
 264 393 l 1,7,8
 278 422 278 422 288.5 443.5 c 128,-1,9
 299 465 299 465 311 488 c 2,10,-1
 398 656 l 1,11,-1
 486 656 l 1,12,-1
 307 335 l 1,13,-1
 498 0 l 1,14,-1
 406 0 l 1,15,-1
 310 177 l 2,16,17
 297 201 297 201 283.5 226.5 c 128,-1,18
 270 252 270 252 254 282 c 1,19,-1
 250 282 l 1,20,21
 236 252 236 252 223 226.5 c 128,-1,22
 210 201 210 201 198 177 c 2,23,-1
 103 0 l 1,24,-1
 15 0 l 1,25,-1
 206 339 l 1,0,-1
EndSplineSet
Validated: 1
Substitution2: "'sups' Superscript in Latin lookup 17 subtable" X.sups
Substitution2: "'c2sc' Capitals to Small Capitals in Latin lookup 9 subtable" X.sc
AlternateSubs2: "'aalt' Access All Alternates in Latin lookup 1 subtable" X.sc X.sups
EndChar

StartChar: Y
Encoding: 89 89 28
Width: 476
GlyphClass: 2
Flags: W
AnchorPoint: "Anchor-2" 240 -22 basechar 0
AnchorPoint: "Anchor-0" 238 678 basechar 0
LayerCount: 2
Fore
SplineSet
196 254 m 1,0,-1
 -1 656 l 1,1,-1
 88 656 l 1,2,-1
 173 471 l 2,3,4
 189 435 189 435 204 400 c 128,-1,5
 219 365 219 365 236 328 c 1,6,-1
 240 328 l 1,7,8
 257 365 257 365 274 400 c 128,-1,9
 291 435 291 435 306 471 c 1,10,-1
 390 656 l 1,11,-1
 477 656 l 1,12,-1
 280 254 l 1,13,-1
 280 0 l 1,14,-1
 196 0 l 1,15,-1
 196 254 l 1,0,-1
EndSplineSet
Validated: 1
Substitution2: "'sups' Superscript in Latin lookup 17 subtable" Y.sups
Substitution2: "'c2sc' Capitals to Small Capitals in Latin lookup 9 subtable" Y.sc
AlternateSubs2: "'aalt' Access All Alternates in Latin lookup 1 subtable" Y.sc Y.sups
EndChar

StartChar: Z
Encoding: 90 90 29
Width: 539
GlyphClass: 2
Flags: W
AnchorPoint: "Anchor-2" 282 -22 basechar 0
AnchorPoint: "Anchor-0" 280 678 basechar 0
LayerCount: 2
Fore
SplineSet
45 50 m 1,0,-1
 390 586 l 1,1,-1
 76 586 l 1,2,-1
 76 656 l 1,3,-1
 494 656 l 1,4,-1
 494 607 l 1,5,-1
 148 71 l 1,6,-1
 497 71 l 1,7,-1
 497 0 l 1,8,-1
 45 0 l 1,9,-1
 45 50 l 1,0,-1
EndSplineSet
Validated: 1
Substitution2: "'sups' Superscript in Latin lookup 17 subtable" Z.sups
Substitution2: "'c2sc' Capitals to Small Capitals in Latin lookup 9 subtable" Z.sc
AlternateSubs2: "'aalt' Access All Alternates in Latin lookup 1 subtable" Z.sc Z.sups
EndChar

StartChar: a
Encoding: 97 97 30
Width: 512
GlyphClass: 2
Flags: W
AnchorPoint: "Anchor-4" 414 0 basechar 0
AnchorPoint: "Anchor-2" 252 -22 basechar 0
AnchorPoint: "Anchor-0" 269 508 basechar 0
LayerCount: 2
Fore
SplineSet
58 126 m 0,0,1
 58 206 58 206 129.5 248.5 c 128,-1,2
 201 291 201 291 357 308 c 1,3,4
 357 331 357 331 352.5 353 c 128,-1,5
 348 375 348 375 336.5 392 c 128,-1,6
 325 409 325 409 306 419.5 c 128,-1,7
 287 430 287 430 257 430 c 0,8,9
 214 430 214 430 177.5 414 c 128,-1,10
 141 398 141 398 112 378 c 1,11,-1
 79 435 l 1,12,13
 113 457 113 457 162 477.5 c 128,-1,14
 211 498 211 498 270 498 c 0,15,16
 359 498 359 498 399 443.5 c 128,-1,17
 439 389 439 389 439 298 c 2,18,-1
 439 0 l 1,19,-1
 371 0 l 1,20,-1
 364 58 l 1,21,-1
 362 58 l 1,22,23
 327 29 327 29 286.5 8.5 c 128,-1,24
 246 -12 246 -12 201 -12 c 0,25,26
 139 -12 139 -12 98.5 24 c 128,-1,27
 58 60 58 60 58 126 c 0,0,1
139 132 m 0,28,29
 139 90 139 90 163.5 72 c 128,-1,30
 188 54 188 54 224 54 c 0,31,32
 259 54 259 54 290.5 70.5 c 128,-1,33
 322 87 322 87 357 119 c 1,34,-1
 357 254 l 1,35,36
 296 246 296 246 254 235 c 128,-1,37
 212 224 212 224 186.5 209 c 128,-1,38
 161 194 161 194 150 174.5 c 128,-1,39
 139 155 139 155 139 132 c 0,28,29
EndSplineSet
Validated: 1
Substitution2: "'ss02' Style Set 2 in Latin lookup 27 subtable" a.a
Substitution2: "'sups' Superscript in Latin lookup 16 subtable" a.sups
Substitution2: "'smcp' Lowercase to Small Capitals in Latin lookup 11 subtable" A.sc
AlternateSubs2: "'aalt' Access All Alternates in Latin lookup 1 subtable" A.sc a.sups a.a
EndChar

StartChar: b
Encoding: 98 98 31
Width: 555
GlyphClass: 2
Flags: W
AnchorPoint: "Anchor-2" 284 -22 basechar 0
AnchorPoint: "Anchor-0" 126 730 basechar 0
LayerCount: 2
Fore
SplineSet
82 712 m 1,0,-1
 164 712 l 1,1,-1
 164 518 l 1,2,-1
 162 430 l 1,3,4
 195 459 195 459 234 478.5 c 128,-1,5
 273 498 273 498 314 498 c 0,6,7
 361 498 361 498 397 480.5 c 128,-1,8
 433 463 433 463 457.5 430.5 c 128,-1,9
 482 398 482 398 494.5 352.5 c 128,-1,10
 507 307 507 307 507 251 c 0,11,12
 507 189 507 189 490 140 c 128,-1,13
 473 91 473 91 444 57 c 128,-1,14
 415 23 415 23 377 5.5 c 128,-1,15
 339 -12 339 -12 297 -12 c 0,16,17
 263 -12 263 -12 226.5 3.5 c 128,-1,18
 190 19 190 19 158 48 c 1,19,-1
 155 48 l 1,20,-1
 148 0 l 1,21,-1
 82 0 l 1,22,-1
 82 712 l 1,0,-1
164 108 m 1,23,24
 196 80 196 80 227.5 68.5 c 128,-1,25
 259 57 259 57 283 57 c 0,26,27
 313 57 313 57 338.5 70.5 c 128,-1,28
 364 84 364 84 382.5 108.5 c 128,-1,29
 401 133 401 133 411.5 169 c 128,-1,30
 422 205 422 205 422 250 c 0,31,32
 422 290 422 290 415 323 c 128,-1,33
 408 356 408 356 392.5 379.5 c 128,-1,34
 377 403 377 403 352.5 416 c 128,-1,35
 328 429 328 429 294 429 c 0,36,37
 235 429 235 429 164 363 c 1,38,-1
 164 108 l 1,23,24
EndSplineSet
Validated: 1
Substitution2: "'sups' Superscript in Latin lookup 16 subtable" b.sups
Substitution2: "'smcp' Lowercase to Small Capitals in Latin lookup 11 subtable" B.sc
AlternateSubs2: "'aalt' Access All Alternates in Latin lookup 1 subtable" B.sc b.sups
EndChar

StartChar: c
Encoding: 99 99 32
Width: 456
GlyphClass: 2
Flags: W
AnchorPoint: "Anchor-2" 270 -22 basechar 0
AnchorPoint: "Anchor-1" 270 0 basechar 0
AnchorPoint: "Anchor-0" 276 508 basechar 0
LayerCount: 2
Fore
SplineSet
46 242 m 0,0,1
 46 303 46 303 65 350.5 c 128,-1,2
 84 398 84 398 116 431 c 128,-1,3
 148 464 148 464 190.5 481 c 128,-1,4
 233 498 233 498 280 498 c 0,5,6
 328 498 328 498 362.5 480.5 c 128,-1,7
 397 463 397 463 422 440 c 1,8,-1
 381 387 l 1,9,10
 359 406 359 406 335.5 418 c 128,-1,11
 312 430 312 430 283 430 c 0,12,13
 250 430 250 430 222 416.5 c 128,-1,14
 194 403 194 403 174 378 c 128,-1,15
 154 353 154 353 142.5 318.5 c 128,-1,16
 131 284 131 284 131 242 c 256,17,18
 131 200 131 200 142 166 c 128,-1,19
 153 132 153 132 172.5 107.5 c 128,-1,20
 192 83 192 83 220 69.5 c 128,-1,21
 248 56 248 56 281 56 c 0,22,23
 316 56 316 56 344.5 70.5 c 128,-1,24
 373 85 373 85 395 105 c 1,25,-1
 432 51 l 1,26,27
 399 22 399 22 358.5 5 c 128,-1,28
 318 -12 318 -12 274 -12 c 0,29,30
 226 -12 226 -12 184 5 c 128,-1,31
 142 22 142 22 111.5 54.5 c 128,-1,32
 81 87 81 87 63.5 134.5 c 128,-1,33
 46 182 46 182 46 242 c 0,0,1
EndSplineSet
Validated: 1
Substitution2: "'sups' Superscript in Latin lookup 16 subtable" c.sups
Substitution2: "'smcp' Lowercase to Small Capitals in Latin lookup 11 subtable" C.sc
AlternateSubs2: "'aalt' Access All Alternates in Latin lookup 1 subtable" C.sc c.sups
EndChar

StartChar: d
Encoding: 100 100 33
Width: 555
GlyphClass: 2
Flags: W
AnchorPoint: "Anchor-2" 301 -22 basechar 0
AnchorPoint: "Anchor-0" 393 730 basechar 0
LayerCount: 2
Fore
SplineSet
47 242 m 0,0,1
 47 301 47 301 64.5 348.5 c 128,-1,2
 82 396 82 396 111 429 c 128,-1,3
 140 462 140 462 178 480 c 128,-1,4
 216 498 216 498 258 498 c 256,5,6
 300 498 300 498 331 483 c 128,-1,7
 362 468 362 468 394 442 c 1,8,-1
 390 525 l 1,9,-1
 390 712 l 1,10,-1
 473 712 l 1,11,-1
 473 0 l 1,12,-1
 405 0 l 1,13,-1
 398 57 l 1,14,-1
 395 57 l 1,15,16
 366 29 366 29 328.5 8.5 c 128,-1,17
 291 -12 291 -12 248 -12 c 0,18,19
 156 -12 156 -12 101.5 54 c 128,-1,20
 47 120 47 120 47 242 c 0,0,1
132 243 m 0,21,22
 132 155 132 155 167 106 c 128,-1,23
 202 57 202 57 266 57 c 0,24,25
 300 57 300 57 330 73.5 c 128,-1,26
 360 90 360 90 390 124 c 1,27,-1
 390 378 l 1,28,29
 359 406 359 406 330.5 417.5 c 128,-1,30
 302 429 302 429 272 429 c 0,31,32
 243 429 243 429 217.5 415.5 c 128,-1,33
 192 402 192 402 173 377.5 c 128,-1,34
 154 353 154 353 143 319 c 128,-1,35
 132 285 132 285 132 243 c 0,21,22
EndSplineSet
Validated: 1
Substitution2: "'sups' Superscript in Latin lookup 16 subtable" d.sups
Substitution2: "'smcp' Lowercase to Small Capitals in Latin lookup 11 subtable" D.sc
AlternateSubs2: "'aalt' Access All Alternates in Latin lookup 1 subtable" D.sc d.sups
EndChar

StartChar: e
Encoding: 101 101 34
Width: 496
GlyphClass: 2
Flags: W
AnchorPoint: "Anchor-4" 389 0 basechar 0
AnchorPoint: "Anchor-2" 262 -22 basechar 0
AnchorPoint: "Anchor-0" 264 508 basechar 0
LayerCount: 2
Fore
SplineSet
46 242 m 256,0,1
 46 302 46 302 64.5 349.5 c 128,-1,2
 83 397 83 397 113.5 430 c 128,-1,3
 144 463 144 463 183 480.5 c 128,-1,4
 222 498 222 498 264 498 c 0,5,6
 310 498 310 498 346.5 482 c 128,-1,7
 383 466 383 466 407.5 436 c 128,-1,8
 432 406 432 406 445 364 c 128,-1,9
 458 322 458 322 458 270 c 0,10,11
 458 243 458 243 455 225 c 1,12,-1
 127 225 l 1,13,14
 132 146 132 146 175.5 100 c 128,-1,15
 219 54 219 54 289 54 c 0,16,17
 324 54 324 54 353.5 64.5 c 128,-1,18
 383 75 383 75 410 92 c 1,19,-1
 439 38 l 1,20,21
 407 18 407 18 368 3 c 128,-1,22
 329 -12 329 -12 279 -12 c 0,23,24
 230 -12 230 -12 187.5 5.5 c 128,-1,25
 145 23 145 23 113.5 55.5 c 128,-1,26
 82 88 82 88 64 135 c 128,-1,27
 46 182 46 182 46 242 c 256,0,1
386 279 m 1,28,29
 386 354 386 354 354.5 393.5 c 128,-1,30
 323 433 323 433 266 433 c 0,31,32
 240 433 240 433 216.5 422.5 c 128,-1,33
 193 412 193 412 174 392.5 c 128,-1,34
 155 373 155 373 142.5 344.5 c 128,-1,35
 130 316 130 316 126 279 c 1,36,-1
 386 279 l 1,28,29
EndSplineSet
Validated: 1
Substitution2: "'sups' Superscript in Latin lookup 16 subtable" e.sups
Substitution2: "'smcp' Lowercase to Small Capitals in Latin lookup 11 subtable" E.sc
AlternateSubs2: "'aalt' Access All Alternates in Latin lookup 1 subtable" E.sc e.sups
EndChar

StartChar: f
Encoding: 102 102 35
Width: 292
GlyphClass: 2
Flags: W
AnchorPoint: "Anchor-2" 137 -22 basechar 0
AnchorPoint: "Anchor-0" 219 740 basechar 0
LayerCount: 2
Fore
SplineSet
301 645 m 1,0,1
 274 657 274 657 246 657 c 0,2,3
 178 657 178 657 178 563 c 2,4,-1
 178 486 l 1,5,-1
 281 486 l 1,6,-1
 281 419 l 1,7,-1
 178 419 l 1,8,-1
 178 0 l 1,9,-1
 96 0 l 1,10,-1
 96 419 l 1,11,-1
 30 419 l 1,12,-1
 30 481 l 1,13,-1
 96 486 l 1,14,-1
 96 563 l 2,15,16
 96 638 96 638 130.5 681 c 128,-1,17
 165 724 165 724 238 724 c 0,18,19
 261 724 261 724 281.5 719.5 c 128,-1,20
 302 715 302 715 319 708 c 1,21,-1
 301 645 l 1,0,1
EndSplineSet
Validated: 1
Substitution2: "'sups' Superscript in Latin lookup 16 subtable" f.sups
Substitution2: "'smcp' Lowercase to Small Capitals in Latin lookup 11 subtable" F.sc
AlternateSubs2: "'aalt' Access All Alternates in Latin lookup 1 subtable" F.sc f.sups
EndChar

StartChar: g
Encoding: 103 103 36
Width: 504
GlyphClass: 2
Flags: W
AnchorPoint: "Anchor-2" 250 -230 basechar 0
AnchorPoint: "Anchor-0" 258 508 basechar 0
LayerCount: 2
Fore
SplineSet
117 -82 m 0,0,1
 117 -121 117 -121 154.5 -144 c 128,-1,2
 192 -167 192 -167 258 -167 c 0,3,4
 293 -167 293 -167 321.5 -158.5 c 128,-1,5
 350 -150 350 -150 370 -136.5 c 128,-1,6
 390 -123 390 -123 401 -105 c 128,-1,7
 412 -87 412 -87 412 -68 c 0,8,9
 412 -34 412 -34 387 -21 c 128,-1,10
 362 -8 362 -8 314 -8 c 2,11,-1
 230 -8 l 2,12,13
 216 -8 216 -8 199.5 -6.5 c 128,-1,14
 183 -5 183 -5 167 0 c 1,15,16
 141 -19 141 -19 129 -40 c 128,-1,17
 117 -61 117 -61 117 -82 c 0,0,1
45 -93 m 0,18,19
 45 -62 45 -62 64 -34 c 128,-1,20
 83 -6 83 -6 116 17 c 1,21,-1
 116 21 l 1,22,23
 98 32 98 32 85.5 51.5 c 128,-1,24
 73 71 73 71 73 100 c 0,25,26
 73 131 73 131 90 154 c 128,-1,27
 107 177 107 177 126 190 c 1,28,-1
 126 194 l 1,29,30
 102 214 102 214 82.5 247.5 c 128,-1,31
 63 281 63 281 63 325 c 0,32,33
 63 365 63 365 77.5 397 c 128,-1,34
 92 429 92 429 117 451.5 c 128,-1,35
 142 474 142 474 175.5 486 c 128,-1,36
 209 498 209 498 246 498 c 0,37,38
 266 498 266 498 283.5 494.5 c 128,-1,39
 301 491 301 491 315 486 c 1,40,-1
 484 486 l 1,41,-1
 484 423 l 1,42,-1
 384 423 l 1,43,44
 401 406 401 406 412.5 380 c 128,-1,45
 424 354 424 354 424 323 c 0,46,47
 424 284 424 284 410 252.5 c 128,-1,48
 396 221 396 221 372 199.5 c 128,-1,49
 348 178 348 178 315.5 166 c 128,-1,50
 283 154 283 154 246 154 c 0,51,52
 228 154 228 154 209 158.5 c 128,-1,53
 190 163 190 163 173 171 c 1,54,55
 160 160 160 160 151 146.5 c 128,-1,56
 142 133 142 133 142 113 c 0,57,58
 142 90 142 90 160 75 c 128,-1,59
 178 60 178 60 228 60 c 2,60,-1
 322 60 l 2,61,62
 407 60 407 60 449.5 32.5 c 128,-1,63
 492 5 492 5 492 -56 c 0,64,65
 492 -90 492 -90 475 -120.5 c 128,-1,66
 458 -151 458 -151 426 -174 c 128,-1,67
 394 -197 394 -197 348.5 -210.5 c 128,-1,68
 303 -224 303 -224 246 -224 c 0,69,70
 201 -224 201 -224 164 -215.5 c 128,-1,71
 127 -207 127 -207 100.5 -190 c 128,-1,72
 74 -173 74 -173 59.5 -149 c 128,-1,73
 45 -125 45 -125 45 -93 c 0,18,19
246 209 m 256,74,75
 267 209 267 209 285.5 217 c 128,-1,76
 304 225 304 225 318.5 240 c 128,-1,77
 333 255 333 255 341 276.5 c 128,-1,78
 349 298 349 298 349 325 c 0,79,80
 349 379 349 379 319 408.5 c 128,-1,81
 289 438 289 438 246 438 c 256,82,83
 203 438 203 438 173 408.5 c 128,-1,84
 143 379 143 379 143 325 c 0,85,86
 143 298 143 298 151 276.5 c 128,-1,87
 159 255 159 255 173.5 240 c 128,-1,88
 188 225 188 225 206.5 217 c 128,-1,89
 225 209 225 209 246 209 c 256,74,75
EndSplineSet
Validated: 1
Substitution2: "'ss03' Style Set 3 in Latin lookup 28 subtable" g.a
Substitution2: "'sups' Superscript in Latin lookup 16 subtable" g.sups
Substitution2: "'smcp' Lowercase to Small Capitals in Latin lookup 11 subtable" G.sc
AlternateSubs2: "'aalt' Access All Alternates in Latin lookup 1 subtable" G.sc g.sups g.a
EndChar

StartChar: h
Encoding: 104 104 37
Width: 544
GlyphClass: 2
Flags: W
AnchorPoint: "Anchor-2" 286 -22 basechar 0
AnchorPoint: "Anchor-0" 123 730 basechar 0
LayerCount: 2
Fore
SplineSet
82 712 m 1,0,-1
 164 712 l 1,1,-1
 164 518 l 1,2,-1
 161 418 l 1,3,4
 196 451 196 451 234 474.5 c 128,-1,5
 272 498 272 498 323 498 c 0,6,7
 400 498 400 498 435.5 450 c 128,-1,8
 471 402 471 402 471 308 c 2,9,-1
 471 0 l 1,10,-1
 389 0 l 1,11,-1
 389 297 l 2,12,13
 389 366 389 366 367 396.5 c 128,-1,14
 345 427 345 427 297 427 c 0,15,16
 259 427 259 427 230 408 c 128,-1,17
 201 389 201 389 164 352 c 1,18,-1
 164 0 l 1,19,-1
 82 0 l 1,20,-1
 82 712 l 1,0,-1
EndSplineSet
Validated: 1
Substitution2: "'sups' Superscript in Latin lookup 16 subtable" h.sups
Substitution2: "'smcp' Lowercase to Small Capitals in Latin lookup 11 subtable" H.sc
AlternateSubs2: "'aalt' Access All Alternates in Latin lookup 1 subtable" H.sc h.sups
EndChar

StartChar: i
Encoding: 105 105 38
Width: 246
GlyphClass: 2
Flags: W
AnchorPoint: "Anchor-4" 152 0 basechar 0
AnchorPoint: "Anchor-2" 123 -22 basechar 0
AnchorPoint: "Anchor-0" 123 694 basechar 0
LayerCount: 2
Fore
SplineSet
124 586 m 256,0,1
 100 586 100 586 83.5 601 c 128,-1,2
 67 616 67 616 67 639 c 0,3,4
 67 663 67 663 83.5 677.5 c 128,-1,5
 100 692 100 692 124 692 c 256,6,7
 148 692 148 692 164.5 677.5 c 128,-1,8
 181 663 181 663 181 639 c 0,9,10
 181 616 181 616 164.5 601 c 128,-1,11
 148 586 148 586 124 586 c 256,0,1
82 486 m 1,12,-1
 164 486 l 1,13,-1
 164 0 l 1,14,-1
 82 0 l 1,15,-1
 82 486 l 1,12,-1
EndSplineSet
Validated: 1
Substitution2: "'sups' Superscript in Latin lookup 16 subtable" i.sups
Substitution2: "'smcp' Lowercase to Small Capitals in Latin lookup 11 subtable" I.sc
Substitution2: "'locl' Localised Forms in Latin lookup 2 subtable" i.trk
AlternateSubs2: "'aalt' Access All Alternates in Latin lookup 1 subtable" i.trk I.sc i.sups
EndChar

StartChar: j
Encoding: 106 106 39
Width: 247
GlyphClass: 2
Flags: W
AnchorPoint: "Anchor-2" 59 -231 basechar 0
AnchorPoint: "Anchor-0" 125 694 basechar 0
LayerCount: 2
Fore
SplineSet
83 486 m 1,0,-1
 165 486 l 1,1,-1
 165 -55 l 2,2,3
 165 -129 165 -129 135 -173 c 128,-1,4
 105 -217 105 -217 32 -217 c 0,5,6
 9 -217 9 -217 -9 -213 c 128,-1,7
 -27 -209 -27 -209 -40 -204 c 1,8,-1
 -23 -142 l 1,9,10
 -14 -145 -14 -145 -2 -147.5 c 128,-1,11
 10 -150 10 -150 23 -150 c 0,12,13
 59 -150 59 -150 71 -125 c 128,-1,14
 83 -100 83 -100 83 -55 c 2,15,-1
 83 486 l 1,0,-1
125 586 m 0,16,17
 101 586 101 586 84.5 601 c 128,-1,18
 68 616 68 616 68 639 c 0,19,20
 68 663 68 663 84.5 677.5 c 128,-1,21
 101 692 101 692 125 692 c 0,22,23
 148 692 148 692 164.5 677.5 c 128,-1,24
 181 663 181 663 181 639 c 0,25,26
 181 616 181 616 164.5 601 c 128,-1,27
 148 586 148 586 125 586 c 0,16,17
EndSplineSet
Validated: 1
Substitution2: "'sups' Superscript in Latin lookup 16 subtable" j.sups
Substitution2: "'smcp' Lowercase to Small Capitals in Latin lookup 11 subtable" J.sc
AlternateSubs2: "'aalt' Access All Alternates in Latin lookup 1 subtable" J.sc j.sups
EndChar

StartChar: k
Encoding: 107 107 40
Width: 495
GlyphClass: 2
Flags: W
AnchorPoint: "Anchor-2" 271 -22 basechar 0
AnchorPoint: "Anchor-0" 126 730 basechar 0
LayerCount: 2
Fore
SplineSet
82 712 m 1,0,-1
 163 712 l 1,1,-1
 163 230 l 1,2,-1
 166 230 l 1,3,-1
 373 486 l 1,4,-1
 464 486 l 1,5,-1
 301 291 l 1,6,-1
 486 0 l 1,7,-1
 396 0 l 1,8,-1
 254 234 l 1,9,-1
 163 128 l 1,10,-1
 163 0 l 1,11,-1
 82 0 l 1,12,-1
 82 712 l 1,0,-1
EndSplineSet
Validated: 1
Substitution2: "'sups' Superscript in Latin lookup 16 subtable" k.sups
Substitution2: "'smcp' Lowercase to Small Capitals in Latin lookup 11 subtable" K.sc
AlternateSubs2: "'aalt' Access All Alternates in Latin lookup 1 subtable" K.sc k.sups
EndChar

StartChar: l
Encoding: 108 108 41
Width: 255
GlyphClass: 2
Flags: W
AnchorPoint: "Anchor-2" 122 -22 basechar 0
AnchorPoint: "Anchor-0" 122 730 basechar 0
LayerCount: 2
Fore
SplineSet
82 712 m 1,0,-1
 164 712 l 1,1,-1
 164 92 l 2,2,3
 164 72 164 72 171 64 c 128,-1,4
 178 56 178 56 187 56 c 0,5,6
 191 56 191 56 194.5 56 c 128,-1,7
 198 56 198 56 205 58 c 1,8,-1
 216 -4 l 1,9,10
 208 -8 208 -8 197 -10 c 128,-1,11
 186 -12 186 -12 169 -12 c 0,12,13
 122 -12 122 -12 102 16 c 128,-1,14
 82 44 82 44 82 98 c 2,15,-1
 82 712 l 1,0,-1
EndSplineSet
Validated: 1
Substitution2: "'ss01' Style Set 1 in Latin lookup 26 subtable" l.a
Substitution2: "'sups' Superscript in Latin lookup 16 subtable" l.sups
Substitution2: "'smcp' Lowercase to Small Capitals in Latin lookup 11 subtable" L.sc
AlternateSubs2: "'aalt' Access All Alternates in Latin lookup 1 subtable" L.sc l.sups l.a
EndChar

StartChar: m
Encoding: 109 109 42
Width: 829
GlyphClass: 2
Flags: W
AnchorPoint: "Anchor-2" 425 -22 basechar 0
AnchorPoint: "Anchor-0" 419 508 basechar 0
LayerCount: 2
Fore
SplineSet
82 486 m 1,0,-1
 150 486 l 1,1,-1
 157 416 l 1,2,-1
 160 416 l 1,3,4
 192 451 192 451 229.5 474.5 c 128,-1,5
 267 498 267 498 311 498 c 0,6,7
 367 498 367 498 398.5 473.5 c 128,-1,8
 430 449 430 449 445 405 c 1,9,10
 483 447 483 447 521.5 472.5 c 128,-1,11
 560 498 560 498 605 498 c 0,12,13
 680 498 680 498 716.5 450 c 128,-1,14
 753 402 753 402 753 308 c 2,15,-1
 753 0 l 1,16,-1
 671 0 l 1,17,-1
 671 297 l 2,18,19
 671 366 671 366 649 396.5 c 128,-1,20
 627 427 627 427 581 427 c 0,21,22
 526 427 526 427 459 352 c 1,23,-1
 459 0 l 1,24,-1
 377 0 l 1,25,-1
 377 297 l 2,26,27
 377 366 377 366 355 396.5 c 128,-1,28
 333 427 333 427 286 427 c 0,29,30
 231 427 231 427 164 352 c 1,31,-1
 164 0 l 1,32,-1
 82 0 l 1,33,-1
 82 486 l 1,0,-1
EndSplineSet
Validated: 1
Substitution2: "'sups' Superscript in Latin lookup 16 subtable" m.sups
Substitution2: "'smcp' Lowercase to Small Capitals in Latin lookup 11 subtable" M.sc
AlternateSubs2: "'aalt' Access All Alternates in Latin lookup 1 subtable" M.sc m.sups
EndChar

StartChar: n
Encoding: 110 110 43
Width: 547
GlyphClass: 2
Flags: W
AnchorPoint: "Anchor-2" 278 -22 basechar 0
AnchorPoint: "Anchor-0" 291 508 basechar 0
LayerCount: 2
Fore
SplineSet
82 486 m 1,0,-1
 150 486 l 1,1,-1
 157 416 l 1,2,-1
 160 416 l 1,3,4
 195 451 195 451 233.5 474.5 c 128,-1,5
 272 498 272 498 323 498 c 0,6,7
 400 498 400 498 435.5 450 c 128,-1,8
 471 402 471 402 471 308 c 2,9,-1
 471 0 l 1,10,-1
 389 0 l 1,11,-1
 389 297 l 2,12,13
 389 366 389 366 367 396.5 c 128,-1,14
 345 427 345 427 297 427 c 0,15,16
 259 427 259 427 230 408 c 128,-1,17
 201 389 201 389 164 352 c 1,18,-1
 164 0 l 1,19,-1
 82 0 l 1,20,-1
 82 486 l 1,0,-1
EndSplineSet
Validated: 1
Substitution2: "'sups' Superscript in Latin lookup 16 subtable" n.sups
Substitution2: "'smcp' Lowercase to Small Capitals in Latin lookup 11 subtable" N.sc
AlternateSubs2: "'aalt' Access All Alternates in Latin lookup 1 subtable" N.sc n.sups
EndChar

StartChar: o
Encoding: 111 111 44
Width: 542
GlyphClass: 2
Flags: W
AnchorPoint: "Anchor-4" 320 0 basechar 0
AnchorPoint: "Anchor-3" 364 486 basechar 0
AnchorPoint: "Anchor-2" 271 -22 basechar 0
AnchorPoint: "Anchor-0" 271 508 basechar 0
LayerCount: 2
Fore
SplineSet
46 242 m 0,0,1
 46 303 46 303 64.5 350.5 c 128,-1,2
 83 398 83 398 114 431 c 128,-1,3
 145 464 145 464 185.5 481 c 128,-1,4
 226 498 226 498 271 498 c 256,5,6
 316 498 316 498 356.5 481 c 128,-1,7
 397 464 397 464 428 431 c 128,-1,8
 459 398 459 398 477.5 350.5 c 128,-1,9
 496 303 496 303 496 242 c 0,10,11
 496 182 496 182 477.5 134.5 c 128,-1,12
 459 87 459 87 428 54.5 c 128,-1,13
 397 22 397 22 356.5 5 c 128,-1,14
 316 -12 316 -12 271 -12 c 256,15,16
 226 -12 226 -12 185.5 5 c 128,-1,17
 145 22 145 22 114 54.5 c 128,-1,18
 83 87 83 87 64.5 134.5 c 128,-1,19
 46 182 46 182 46 242 c 0,0,1
131 242 m 256,20,21
 131 200 131 200 141 166 c 128,-1,22
 151 132 151 132 169.5 107.5 c 128,-1,23
 188 83 188 83 214 69.5 c 128,-1,24
 240 56 240 56 271 56 c 256,25,26
 302 56 302 56 328 69.5 c 128,-1,27
 354 83 354 83 372.5 107.5 c 128,-1,28
 391 132 391 132 401 166 c 128,-1,29
 411 200 411 200 411 242 c 256,30,31
 411 284 411 284 401 318.5 c 128,-1,32
 391 353 391 353 372.5 378 c 128,-1,33
 354 403 354 403 328 416.5 c 128,-1,34
 302 430 302 430 271 430 c 256,35,36
 240 430 240 430 214 416.5 c 128,-1,37
 188 403 188 403 169.5 378 c 128,-1,38
 151 353 151 353 141 318.5 c 128,-1,39
 131 284 131 284 131 242 c 256,20,21
EndSplineSet
Validated: 1
Substitution2: "'sups' Superscript in Latin lookup 16 subtable" o.sups
Substitution2: "'smcp' Lowercase to Small Capitals in Latin lookup 11 subtable" O.sc
AlternateSubs2: "'aalt' Access All Alternates in Latin lookup 1 subtable" O.sc o.sups
EndChar

StartChar: p
Encoding: 112 112 45
Width: 555
GlyphClass: 2
Flags: W
AnchorPoint: "Anchor-2" 117 -218 basechar 0
AnchorPoint: "Anchor-0" 291 508 basechar 0
LayerCount: 2
Fore
SplineSet
164 -41 m 1,0,-1
 164 -205 l 1,1,-1
 82 -205 l 1,2,-1
 82 486 l 1,3,-1
 150 486 l 1,4,-1
 157 430 l 1,5,-1
 160 430 l 1,6,7
 193 458 193 458 232.5 478 c 128,-1,8
 272 498 272 498 315 498 c 0,9,10
 362 498 362 498 398 480.5 c 128,-1,11
 434 463 434 463 458 430.5 c 128,-1,12
 482 398 482 398 494.5 352.5 c 128,-1,13
 507 307 507 307 507 250 c 0,14,15
 507 188 507 188 490 139.5 c 128,-1,16
 473 91 473 91 444 57 c 128,-1,17
 415 23 415 23 377 5.5 c 128,-1,18
 339 -12 339 -12 297 -12 c 0,19,20
 263 -12 263 -12 229.5 3 c 128,-1,21
 196 18 196 18 162 44 c 1,22,-1
 164 -41 l 1,0,-1
164 108 m 1,23,24
 197 80 197 80 228 68.5 c 128,-1,25
 259 57 259 57 283 57 c 0,26,27
 313 57 313 57 338.5 70.5 c 128,-1,28
 364 84 364 84 382.5 108.5 c 128,-1,29
 401 133 401 133 411.5 169 c 128,-1,30
 422 205 422 205 422 250 c 0,31,32
 422 290 422 290 415 323 c 128,-1,33
 408 356 408 356 392.5 379.5 c 128,-1,34
 377 403 377 403 352.5 416 c 128,-1,35
 328 429 328 429 294 429 c 0,36,37
 263 429 263 429 231.5 412 c 128,-1,38
 200 395 200 395 164 363 c 1,39,-1
 164 108 l 1,23,24
EndSplineSet
Validated: 1
Substitution2: "'sups' Superscript in Latin lookup 16 subtable" p.sups
Substitution2: "'smcp' Lowercase to Small Capitals in Latin lookup 11 subtable" P.sc
AlternateSubs2: "'aalt' Access All Alternates in Latin lookup 1 subtable" P.sc p.sups
EndChar

StartChar: q
Encoding: 113 113 46
Width: 550
GlyphClass: 2
Flags: W
AnchorPoint: "Anchor-2" 426 -218 basechar 0
AnchorPoint: "Anchor-0" 278 508 basechar 0
LayerCount: 2
Fore
SplineSet
47 242 m 0,0,1
 47 301 47 301 64.5 348.5 c 128,-1,2
 82 396 82 396 111 429 c 128,-1,3
 140 462 140 462 178 480 c 128,-1,4
 216 498 216 498 258 498 c 256,5,6
 300 498 300 498 332 483.5 c 128,-1,7
 364 469 364 469 397 440 c 1,8,-1
 399 440 l 1,9,-1
 407 486 l 1,10,-1
 473 486 l 1,11,-1
 473 -205 l 1,12,-1
 390 -205 l 1,13,-1
 390 -32 l 1,14,-1
 394 54 l 1,15,16
 365 27 365 27 327.5 7.5 c 128,-1,17
 290 -12 290 -12 248 -12 c 0,18,19
 156 -12 156 -12 101.5 54 c 128,-1,20
 47 120 47 120 47 242 c 0,0,1
132 243 m 0,21,22
 132 155 132 155 167 106 c 128,-1,23
 202 57 202 57 266 57 c 0,24,25
 300 57 300 57 330 73.5 c 128,-1,26
 360 90 360 90 390 124 c 1,27,-1
 390 378 l 1,28,29
 359 406 359 406 330.5 417.5 c 128,-1,30
 302 429 302 429 272 429 c 0,31,32
 243 429 243 429 217.5 415.5 c 128,-1,33
 192 402 192 402 173 377.5 c 128,-1,34
 154 353 154 353 143 319 c 128,-1,35
 132 285 132 285 132 243 c 0,21,22
EndSplineSet
Validated: 1
Substitution2: "'sups' Superscript in Latin lookup 16 subtable" q.sups
Substitution2: "'smcp' Lowercase to Small Capitals in Latin lookup 11 subtable" Q.sc
AlternateSubs2: "'aalt' Access All Alternates in Latin lookup 1 subtable" Q.sc q.sups
EndChar

StartChar: r
Encoding: 114 114 47
Width: 347
GlyphClass: 2
Flags: W
AnchorPoint: "Anchor-2" 123 -22 basechar 0
AnchorPoint: "Anchor-0" 216 508 basechar 0
LayerCount: 2
Fore
SplineSet
82 486 m 1,0,-1
 150 486 l 1,1,-1
 157 398 l 1,2,-1
 160 398 l 1,3,4
 185 444 185 444 220.5 471 c 128,-1,5
 256 498 256 498 298 498 c 0,6,7
 327 498 327 498 350 488 c 1,8,-1
 334 416 l 1,9,10
 322 420 322 420 312 422 c 128,-1,11
 302 424 302 424 287 424 c 0,12,13
 256 424 256 424 222.5 399 c 128,-1,14
 189 374 189 374 164 312 c 1,15,-1
 164 0 l 1,16,-1
 82 0 l 1,17,-1
 82 486 l 1,0,-1
EndSplineSet
Validated: 1
Substitution2: "'sups' Superscript in Latin lookup 16 subtable" r.sups
Substitution2: "'smcp' Lowercase to Small Capitals in Latin lookup 11 subtable" R.sc
AlternateSubs2: "'aalt' Access All Alternates in Latin lookup 1 subtable" R.sc r.sups
EndChar

StartChar: s
Encoding: 115 115 48
Width: 419
GlyphClass: 2
Flags: W
AnchorPoint: "Anchor-2" 223 -22 basechar 0
AnchorPoint: "Anchor-1" 223 0 basechar 0
AnchorPoint: "Anchor-0" 219 508 basechar 0
LayerCount: 2
Fore
SplineSet
69 110 m 1,0,1
 101 84 101 84 134.5 68 c 128,-1,2
 168 52 168 52 212 52 c 0,3,4
 260 52 260 52 284 74 c 128,-1,5
 308 96 308 96 308 128 c 0,6,7
 308 147 308 147 298 161 c 128,-1,8
 288 175 288 175 272.5 185.5 c 128,-1,9
 257 196 257 196 237 204 c 128,-1,10
 217 212 217 212 197 220 c 1,11,12
 171 229 171 229 145 240.5 c 128,-1,13
 119 252 119 252 98.5 268.5 c 128,-1,14
 78 285 78 285 65 307 c 128,-1,15
 52 329 52 329 52 360 c 0,16,17
 52 389 52 389 63.5 414.5 c 128,-1,18
 75 440 75 440 96.5 458.5 c 128,-1,19
 118 477 118 477 149 487.5 c 128,-1,20
 180 498 180 498 219 498 c 0,21,22
 265 498 265 498 303.5 482 c 128,-1,23
 342 466 342 466 370 443 c 1,24,-1
 331 391 l 1,25,26
 306 410 306 410 279 422 c 128,-1,27
 252 434 252 434 220 434 c 0,28,29
 174 434 174 434 152.5 413 c 128,-1,30
 131 392 131 392 131 364 c 0,31,32
 131 347 131 347 140 334.5 c 128,-1,33
 149 322 149 322 164 312.5 c 128,-1,34
 179 303 179 303 198.5 295.5 c 128,-1,35
 218 288 218 288 239 280 c 0,36,37
 265 270 265 270 291.5 259 c 128,-1,38
 318 248 318 248 339 231.5 c 128,-1,39
 360 215 360 215 373.5 191 c 128,-1,40
 387 167 387 167 387 133 c 0,41,42
 387 103 387 103 375.5 77 c 128,-1,43
 364 51 364 51 341.5 31 c 128,-1,44
 319 11 319 11 285.5 -0.5 c 128,-1,45
 252 -12 252 -12 209 -12 c 0,46,47
 157 -12 157 -12 110 7 c 128,-1,48
 63 26 63 26 28 55 c 1,49,-1
 69 110 l 1,0,1
EndSplineSet
Validated: 1
Substitution2: "'sups' Superscript in Latin lookup 16 subtable" s.sups
Substitution2: "'smcp' Lowercase to Small Capitals in Latin lookup 11 subtable" S.sc
AlternateSubs2: "'aalt' Access All Alternates in Latin lookup 1 subtable" S.sc s.sups
EndChar

StartChar: t
Encoding: 116 116 49
Width: 338
GlyphClass: 2
Flags: W
AnchorPoint: "Anchor-2" 212 -22 basechar 0
AnchorPoint: "Anchor-1" 217 0 basechar 0
AnchorPoint: "Anchor-0" 143 643 basechar 0
LayerCount: 2
Fore
SplineSet
96 419 m 1,0,-1
 24 419 l 1,1,-1
 24 481 l 1,2,-1
 100 486 l 1,3,-1
 110 622 l 1,4,-1
 179 622 l 1,5,-1
 179 486 l 1,6,-1
 310 486 l 1,7,-1
 310 419 l 1,8,-1
 179 419 l 1,9,-1
 179 149 l 2,10,11
 179 104 179 104 195.5 79.5 c 128,-1,12
 212 55 212 55 254 55 c 0,13,14
 267 55 267 55 282 59 c 128,-1,15
 297 63 297 63 309 68 c 1,16,-1
 325 6 l 1,17,18
 305 -1 305 -1 281.5 -6.5 c 128,-1,19
 258 -12 258 -12 235 -12 c 0,20,21
 196 -12 196 -12 169.5 0 c 128,-1,22
 143 12 143 12 126.5 33 c 128,-1,23
 110 54 110 54 103 84 c 128,-1,24
 96 114 96 114 96 150 c 2,25,-1
 96 419 l 1,0,-1
EndSplineSet
Validated: 1
Substitution2: "'sups' Superscript in Latin lookup 16 subtable" t.sups
Substitution2: "'smcp' Lowercase to Small Capitals in Latin lookup 11 subtable" T.sc
AlternateSubs2: "'aalt' Access All Alternates in Latin lookup 1 subtable" T.sc t.sups
EndChar

StartChar: u
Encoding: 117 117 50
Width: 544
GlyphClass: 2
Flags: W
AnchorPoint: "Anchor-4" 428 0 basechar 0
AnchorPoint: "Anchor-3" 411 496 basechar 0
AnchorPoint: "Anchor-2" 290 -22 basechar 0
AnchorPoint: "Anchor-0" 272 508 basechar 0
LayerCount: 2
Fore
SplineSet
75 486 m 1,0,-1
 158 486 l 1,1,-1
 158 189 l 2,2,3
 158 120 158 120 179.5 89.5 c 128,-1,4
 201 59 201 59 249 59 c 0,5,6
 287 59 287 59 316 78.5 c 128,-1,7
 345 98 345 98 380 141 c 1,8,-1
 380 486 l 1,9,-1
 462 486 l 1,10,-1
 462 0 l 1,11,-1
 394 0 l 1,12,-1
 387 76 l 1,13,-1
 384 76 l 1,14,15
 350 36 350 36 312.5 12 c 128,-1,16
 275 -12 275 -12 224 -12 c 0,17,18
 146 -12 146 -12 110.5 36 c 128,-1,19
 75 84 75 84 75 178 c 2,20,-1
 75 486 l 1,0,-1
EndSplineSet
Validated: 1
Substitution2: "'sups' Superscript in Latin lookup 16 subtable" u.sups
Substitution2: "'smcp' Lowercase to Small Capitals in Latin lookup 11 subtable" U.sc
AlternateSubs2: "'aalt' Access All Alternates in Latin lookup 1 subtable" U.sc u.sups
EndChar

StartChar: v
Encoding: 118 118 51
Width: 467
GlyphClass: 2
Flags: W
AnchorPoint: "Anchor-2" 235 -22 basechar 0
AnchorPoint: "Anchor-0" 235 508 basechar 0
LayerCount: 2
Fore
SplineSet
12 486 m 1,0,-1
 97 486 l 1,1,-1
 189 210 l 2,2,3
 200 174 200 174 211.5 138 c 128,-1,4
 223 102 223 102 234 67 c 1,5,-1
 238 67 l 1,6,7
 249 102 249 102 260 138 c 128,-1,8
 271 174 271 174 282 210 c 2,9,-1
 374 486 l 1,10,-1
 455 486 l 1,11,-1
 283 0 l 1,12,-1
 187 0 l 1,13,-1
 12 486 l 1,0,-1
EndSplineSet
Validated: 1
Substitution2: "'sups' Superscript in Latin lookup 16 subtable" v.sups
Substitution2: "'smcp' Lowercase to Small Capitals in Latin lookup 11 subtable" V.sc
AlternateSubs2: "'aalt' Access All Alternates in Latin lookup 1 subtable" V.sc v.sups
EndChar

StartChar: w
Encoding: 119 119 52
Width: 718
GlyphClass: 2
Flags: W
AnchorPoint: "Anchor-2" 360 -22 basechar 0
AnchorPoint: "Anchor-0" 360 508 basechar 0
LayerCount: 2
Fore
SplineSet
24 486 m 1,0,-1
 108 486 l 1,1,-1
 180 205 l 2,2,3
 188 170 188 170 195 137 c 128,-1,4
 202 104 202 104 209 70 c 1,5,-1
 213 70 l 1,6,7
 221 104 221 104 229 137.5 c 128,-1,8
 237 171 237 171 246 205 c 2,9,-1
 321 486 l 1,10,-1
 401 486 l 1,11,-1
 477 205 l 2,12,13
 486 170 486 170 494.5 137 c 128,-1,14
 503 104 503 104 511 70 c 1,15,-1
 515 70 l 1,16,17
 523 104 523 104 530 137 c 128,-1,18
 537 170 537 170 545 205 c 2,19,-1
 616 486 l 1,20,-1
 694 486 l 1,21,-1
 564 0 l 1,22,-1
 464 0 l 1,23,-1
 394 261 l 2,24,25
 385 296 385 296 377.5 330 c 128,-1,26
 370 364 370 364 361 401 c 1,27,-1
 357 401 l 1,28,29
 349 364 349 364 341 329.5 c 128,-1,30
 333 295 333 295 323 260 c 2,31,-1
 255 0 l 1,32,-1
 159 0 l 1,33,-1
 24 486 l 1,0,-1
EndSplineSet
Validated: 1
Substitution2: "'sups' Superscript in Latin lookup 16 subtable" w.sups
Substitution2: "'smcp' Lowercase to Small Capitals in Latin lookup 11 subtable" W.sc
AlternateSubs2: "'aalt' Access All Alternates in Latin lookup 1 subtable" W.sc w.sups
EndChar

StartChar: x
Encoding: 120 120 53
Width: 446
GlyphClass: 2
Flags: W
AnchorPoint: "Anchor-2" 223 -22 basechar 0
AnchorPoint: "Anchor-0" 223 508 basechar 0
LayerCount: 2
Fore
SplineSet
173 254 m 1,0,-1
 26 486 l 1,1,-1
 115 486 l 1,2,-1
 180 379 l 2,3,4
 191 359 191 359 203 338.5 c 128,-1,5
 215 318 215 318 228 298 c 1,6,-1
 232 298 l 1,7,8
 243 318 243 318 254 338.5 c 128,-1,9
 265 359 265 359 276 379 c 2,10,-1
 335 486 l 1,11,-1
 421 486 l 1,12,-1
 274 245 l 1,13,-1
 432 0 l 1,14,-1
 343 0 l 1,15,-1
 272 113 l 2,16,17
 259 135 259 135 246 157 c 128,-1,18
 233 179 233 179 219 200 c 1,19,-1
 215 200 l 1,20,21
 202 179 202 179 190 157.5 c 128,-1,22
 178 136 178 136 166 113 c 1,23,-1
 100 0 l 1,24,-1
 14 0 l 1,25,-1
 173 254 l 1,0,-1
EndSplineSet
Validated: 1
Substitution2: "'sups' Superscript in Latin lookup 16 subtable" x.sups
Substitution2: "'smcp' Lowercase to Small Capitals in Latin lookup 11 subtable" X.sc
AlternateSubs2: "'aalt' Access All Alternates in Latin lookup 1 subtable" X.sc x.sups
EndChar

StartChar: y
Encoding: 121 121 54
Width: 467
GlyphClass: 2
Flags: W
AnchorPoint: "Anchor-2" 200 -242 basechar 0
AnchorPoint: "Anchor-0" 243 508 basechar 0
LayerCount: 2
Fore
SplineSet
49 -134 m 1,0,1
 57 -136 57 -136 67 -138.5 c 128,-1,2
 77 -141 77 -141 86 -141 c 0,3,4
 128 -141 128 -141 154.5 -111.5 c 128,-1,5
 181 -82 181 -82 196 -37 c 1,6,-1
 207 -1 l 1,7,-1
 12 486 l 1,8,-1
 97 486 l 1,9,-1
 196 217 l 2,10,11
 207 185 207 185 219.5 149.5 c 128,-1,12
 232 114 232 114 243 80 c 1,13,-1
 247 80 l 1,14,15
 258 113 258 113 268 149 c 128,-1,16
 278 185 278 185 288 217 c 2,17,-1
 375 486 l 1,18,-1
 455 486 l 1,19,-1
 272 -40 l 2,20,21
 259 -76 259 -76 243 -107 c 128,-1,22
 227 -138 227 -138 205 -160.5 c 128,-1,23
 183 -183 183 -183 155 -196 c 128,-1,24
 127 -209 127 -209 90 -209 c 0,25,26
 73 -209 73 -209 59 -206.5 c 128,-1,27
 45 -204 45 -204 33 -199 c 1,28,-1
 49 -134 l 1,29,-1
 49 -134 l 1,0,1
EndSplineSet
Validated: 5
Substitution2: "'sups' Superscript in Latin lookup 16 subtable" y.sups
Substitution2: "'smcp' Lowercase to Small Capitals in Latin lookup 11 subtable" Y.sc
AlternateSubs2: "'aalt' Access All Alternates in Latin lookup 1 subtable" Y.sc y.sups
EndChar

StartChar: z
Encoding: 122 122 55
Width: 425
GlyphClass: 2
Flags: W
AnchorPoint: "Anchor-2" 228 -22 basechar 0
AnchorPoint: "Anchor-0" 229 508 basechar 0
LayerCount: 2
Fore
SplineSet
31 44 m 1,0,-1
 287 419 l 1,1,-1
 59 419 l 1,2,-1
 59 486 l 1,3,-1
 391 486 l 1,4,-1
 391 442 l 1,5,-1
 135 67 l 1,6,-1
 399 67 l 1,7,-1
 399 0 l 1,8,-1
 31 0 l 1,9,-1
 31 44 l 1,0,-1
EndSplineSet
Validated: 1
Substitution2: "'sups' Superscript in Latin lookup 16 subtable" z.sups
Substitution2: "'smcp' Lowercase to Small Capitals in Latin lookup 11 subtable" Z.sc
AlternateSubs2: "'aalt' Access All Alternates in Latin lookup 1 subtable" Z.sc z.sups
EndChar

StartChar: Aogonek
Encoding: 260 260 77
Width: 544
GlyphClass: 2
Flags: W
AnchorPoint: "Anchor-0" 272 678 basechar 0
LayerCount: 2
Fore
SplineSet
369 267 m 1,0,-1
 338 367 l 2,1,2
 320 422 320 422 304 476.5 c 128,-1,3
 288 531 288 531 272 588 c 1,4,-1
 268 588 l 1,5,6
 253 531 253 531 237 476.5 c 128,-1,7
 221 422 221 422 203 367 c 2,8,-1
 172 267 l 1,9,-1
 369 267 l 1,0,-1
572 -184 m 1,10,11
 557 -195 557 -195 534.5 -203.5 c 128,-1,12
 512 -212 512 -212 492 -212 c 0,13,14
 452 -212 452 -212 424 -190 c 128,-1,15
 396 -168 396 -168 396 -125 c 0,16,17
 396 -105 396 -105 403 -86 c 128,-1,18
 410 -67 410 -67 421 -51 c 128,-1,19
 432 -35 432 -35 445 -22 c 128,-1,20
 458 -9 458 -9 471 0 c 1,21,-1
 452 0 l 1,22,-1
 390 200 l 1,23,-1
 151 200 l 1,24,-1
 88 0 l 1,25,-1
 3 0 l 1,26,-1
 225 656 l 1,27,-1
 319 656 l 1,28,-1
 541 0 l 1,29,30
 506 -14 506 -14 483.5 -45 c 128,-1,31
 461 -76 461 -76 461 -107 c 0,32,33
 461 -130 461 -130 475 -141.5 c 128,-1,34
 489 -153 489 -153 507 -153 c 0,35,36
 530 -153 530 -153 549 -139 c 1,37,-1
 572 -184 l 1,10,11
EndSplineSet
Validated: 1
Substitution2: "'c2sc' Capitals to Small Capitals in Latin lookup 9 subtable" Aogonek.sc
Ligature2: "'ccmp' Glyph Composition/Decomposition in Latin lookup 7 subtable" A uni0328
Substitution2: "'aalt' Access All Alternates in Latin lookup 0 subtable" Aogonek.sc
EndChar

StartChar: AE
Encoding: 198 198 78
Width: 822
GlyphClass: 2
Flags: W
AnchorPoint: "Anchor-0" 564 694 basechar 0
LayerCount: 2
Fore
SplineSet
401 258 m 1,0,-1
 401 590 l 1,1,-1
 397 590 l 1,2,3
 344 483 344 483 290 376 c 1,4,-1
 229 258 l 1,5,-1
 401 258 l 1,0,-1
773 71 m 1,6,-1
 773 0 l 1,7,-1
 401 0 l 1,8,-1
 401 191 l 1,9,-1
 195 191 l 1,10,-1
 96 0 l 1,11,-1
 8 0 l 1,12,-1
 352 656 l 1,13,-1
 763 656 l 1,14,-1
 763 586 l 1,15,-1
 485 586 l 1,16,-1
 485 380 l 1,17,-1
 717 380 l 1,18,-1
 717 309 l 1,19,-1
 485 309 l 1,20,-1
 485 71 l 1,21,-1
 773 71 l 1,6,-1
EndSplineSet
Validated: 1
Substitution2: "'c2sc' Capitals to Small Capitals in Latin lookup 9 subtable" AE.sc
Substitution2: "'aalt' Access All Alternates in Latin lookup 0 subtable" AE.sc
EndChar

StartChar: Eogonek
Encoding: 280 280 104
Width: 527
GlyphClass: 2
Flags: W
AnchorPoint: "Anchor-0" 285 678 basechar 0
LayerCount: 2
Fore
SplineSet
90 656 m 1,0,-1
 468 656 l 1,1,-1
 468 586 l 1,2,-1
 173 586 l 1,3,-1
 173 380 l 1,4,-1
 422 380 l 1,5,-1
 422 309 l 1,6,-1
 173 309 l 1,7,-1
 173 71 l 1,8,-1
 478 71 l 1,9,-1
 478 0 l 1,10,-1
 475 0 l 1,11,12
 458 -2 458 -2 441.5 -11.5 c 128,-1,13
 425 -21 425 -21 412 -35.5 c 128,-1,14
 399 -50 399 -50 391 -68.5 c 128,-1,15
 383 -87 383 -87 383 -107 c 0,16,17
 383 -130 383 -130 398 -141.5 c 128,-1,18
 413 -153 413 -153 431 -153 c 0,19,20
 452 -153 452 -153 471 -139 c 1,21,-1
 494 -184 l 1,22,23
 480 -195 480 -195 457 -203.5 c 128,-1,24
 434 -212 434 -212 414 -212 c 0,25,26
 374 -212 374 -212 346 -190 c 128,-1,27
 318 -168 318 -168 318 -125 c 0,28,29
 318 -83 318 -83 341.5 -50.5 c 128,-1,30
 365 -18 365 -18 393 0 c 1,31,-1
 90 0 l 1,32,-1
 90 656 l 1,0,-1
EndSplineSet
Validated: 1
Substitution2: "'c2sc' Capitals to Small Capitals in Latin lookup 9 subtable" Eogonek.sc
Ligature2: "'ccmp' Glyph Composition/Decomposition in Latin lookup 7 subtable" E uni0328
Substitution2: "'aalt' Access All Alternates in Latin lookup 0 subtable" Eogonek.sc
EndChar

StartChar: Hbar
Encoding: 294 294 115
Width: 687
Flags: W
LayerCount: 2
Fore
SplineSet
498 492 m 1,0,-1
 193 492 l 1,1,-1
 193 381 l 1,2,-1
 498 381 l 1,3,-1
 498 492 l 1,0,-1
654 492 m 1,4,-1
 582 492 l 1,5,-1
 582 0 l 1,6,-1
 498 0 l 1,7,-1
 498 309 l 1,8,-1
 193 309 l 1,9,-1
 193 0 l 1,10,-1
 110 0 l 1,11,-1
 110 492 l 1,12,-1
 32 492 l 1,13,-1
 32 534 l 1,14,-1
 110 539 l 1,15,-1
 110 656 l 1,16,-1
 193 656 l 1,17,-1
 193 539 l 1,18,-1
 498 539 l 1,19,-1
 498 656 l 1,20,-1
 582 656 l 1,21,-1
 582 539 l 1,22,-1
 654 539 l 1,23,-1
 654 492 l 1,4,-1
EndSplineSet
Validated: 1
Substitution2: "'c2sc' Capitals to Small Capitals in Latin lookup 9 subtable" Hbar.sc
Substitution2: "'aalt' Access All Alternates in Latin lookup 0 subtable" Hbar.sc
EndChar

StartChar: Iogonek
Encoding: 302 302 126
Width: 263
GlyphClass: 2
Flags: W
AnchorPoint: "Anchor-0" 131 678 basechar 0
LayerCount: 2
Fore
SplineSet
90 656 m 1,0,-1
 173 656 l 1,1,-1
 173 0 l 1,2,3
 142 -24 142 -24 125 -50 c 128,-1,4
 108 -76 108 -76 108 -107 c 0,5,6
 108 -130 108 -130 123 -141.5 c 128,-1,7
 138 -153 138 -153 155 -153 c 0,8,9
 177 -153 177 -153 196 -139 c 1,10,-1
 219 -184 l 1,11,12
 204 -195 204 -195 181.5 -203.5 c 128,-1,13
 159 -212 159 -212 139 -212 c 0,14,15
 99 -212 99 -212 71 -190 c 128,-1,16
 43 -168 43 -168 43 -125 c 256,17,18
 43 -82 43 -82 64.5 -52 c 128,-1,19
 86 -22 86 -22 110 0 c 1,20,-1
 90 0 l 1,21,-1
 90 656 l 1,0,-1
EndSplineSet
Validated: 1
Substitution2: "'ss04' Style Set 4 in Latin lookup 29 subtable" Iogonek.a
Substitution2: "'c2sc' Capitals to Small Capitals in Latin lookup 9 subtable" Iogonek.sc
Ligature2: "'ccmp' Glyph Composition/Decomposition in Latin lookup 7 subtable" I uni0328
AlternateSubs2: "'aalt' Access All Alternates in Latin lookup 1 subtable" Iogonek.sc Iogonek.a
EndChar

StartChar: Lslash
Encoding: 321 321 136
Width: 489
Flags: W
LayerCount: 2
Fore
SplineSet
465 71 m 1,0,-1
 465 0 l 1,1,-1
 95 0 l 1,2,-1
 95 240 l 1,3,-1
 13 194 l 1,4,-1
 13 261 l 1,5,-1
 95 308 l 1,6,-1
 95 656 l 1,7,-1
 179 656 l 1,8,-1
 179 345 l 1,9,-1
 364 445 l 1,10,-1
 364 377 l 1,11,-1
 179 278 l 1,12,-1
 179 71 l 1,13,-1
 465 71 l 1,0,-1
EndSplineSet
Validated: 1
Substitution2: "'c2sc' Capitals to Small Capitals in Latin lookup 9 subtable" Lslash.sc
Substitution2: "'aalt' Access All Alternates in Latin lookup 0 subtable" Lslash.sc
EndChar

StartChar: Oslash
Encoding: 216 216 160
Width: 664
GlyphClass: 2
Flags: W
AnchorPoint: "Anchor-0" 335 678 basechar 0
LayerCount: 2
Fore
SplineSet
208 116 m 1,0,1
 233 90 233 90 265 75.5 c 128,-1,2
 297 61 297 61 335 61 c 0,3,4
 379 61 379 61 414.5 80 c 128,-1,5
 450 99 450 99 475.5 134.5 c 128,-1,6
 501 170 501 170 515 219.5 c 128,-1,7
 529 269 529 269 529 331 c 0,8,9
 529 379 529 379 520.5 419 c 128,-1,10
 512 459 512 459 496 491 c 1,11,-1
 208 116 l 1,0,1
462 541 m 1,12,13
 411 595 411 595 335 595 c 0,14,15
 291 595 291 595 255 576.5 c 128,-1,16
 219 558 219 558 193.5 524 c 128,-1,17
 168 490 168 490 154 441 c 128,-1,18
 140 392 140 392 140 331 c 0,19,20
 140 235 140 235 174 167 c 1,21,-1
 462 541 l 1,12,13
550 561 m 1,22,23
 581 518 581 518 598 460.5 c 128,-1,24
 615 403 615 403 615 331 c 0,25,26
 615 252 615 252 594.5 188.5 c 128,-1,27
 574 125 574 125 536.5 80.5 c 128,-1,28
 499 36 499 36 447.5 12 c 128,-1,29
 396 -12 396 -12 335 -12 c 0,30,31
 283 -12 283 -12 238.5 4.5 c 128,-1,32
 194 21 194 21 159 53 c 1,33,-1
 96 -30 l 1,34,-1
 50 6 l 1,35,-1
 120 97 l 1,36,37
 88 141 88 141 71 200 c 128,-1,38
 54 259 54 259 54 331 c 0,39,40
 54 410 54 410 74.5 472.5 c 128,-1,41
 95 535 95 535 132.5 578.5 c 128,-1,42
 170 622 170 622 221.5 645 c 128,-1,43
 273 668 273 668 335 668 c 0,44,45
 439 668 439 668 510 605 c 1,46,-1
 573 686 l 1,47,-1
 619 651 l 1,48,-1
 550 561 l 1,22,23
EndSplineSet
Validated: 1
Substitution2: "'c2sc' Capitals to Small Capitals in Latin lookup 9 subtable" Oslash.sc
Substitution2: "'aalt' Access All Alternates in Latin lookup 0 subtable" Oslash.sc
EndChar

StartChar: OE
Encoding: 338 338 161
Width: 847
GlyphClass: 2
Flags: W
AnchorPoint: "Anchor-0" 532 678 basechar 0
LayerCount: 2
Fore
SplineSet
52 331 m 0,0,1
 52 488 52 488 136 572 c 128,-1,2
 220 656 220 656 373 656 c 2,3,-1
 788 656 l 1,4,-1
 788 586 l 1,5,-1
 510 586 l 1,6,-1
 510 380 l 1,7,-1
 742 380 l 1,8,-1
 742 309 l 1,9,-1
 510 309 l 1,10,-1
 510 71 l 1,11,-1
 798 71 l 1,12,-1
 798 0 l 1,13,-1
 369 0 l 2,14,15
 294 0 294 0 235.5 22.5 c 128,-1,16
 177 45 177 45 136 87.5 c 128,-1,17
 95 130 95 130 73.5 191.5 c 128,-1,18
 52 253 52 253 52 331 c 0,0,1
138 331 m 0,19,20
 138 205 138 205 199 136.5 c 128,-1,21
 260 68 260 68 379 68 c 2,22,-1
 427 68 l 1,23,-1
 427 588 l 1,24,-1
 379 588 l 2,25,26
 260 588 260 588 199 522 c 128,-1,27
 138 456 138 456 138 331 c 0,19,20
EndSplineSet
Validated: 1
Substitution2: "'c2sc' Capitals to Small Capitals in Latin lookup 9 subtable" OE.sc
Substitution2: "'aalt' Access All Alternates in Latin lookup 0 subtable" OE.sc
EndChar

StartChar: Ohorn
Encoding: 416 416 162
Width: 664
GlyphClass: 2
Flags: W
AnchorPoint: "Anchor-2" 331 -22 basechar 0
AnchorPoint: "Anchor-0" 335 678 basechar 0
LayerCount: 2
Fore
SplineSet
335 61 m 256,0,1
 379 61 379 61 414.5 80 c 128,-1,2
 450 99 450 99 475.5 134.5 c 128,-1,3
 501 170 501 170 515 219.5 c 128,-1,4
 529 269 529 269 529 331 c 0,5,6
 529 392 529 392 515 441 c 128,-1,7
 501 490 501 490 475.5 524 c 128,-1,8
 450 558 450 558 414.5 576.5 c 128,-1,9
 379 595 379 595 335 595 c 256,10,11
 291 595 291 595 255 576.5 c 128,-1,12
 219 558 219 558 193.5 524 c 128,-1,13
 168 490 168 490 154 441 c 128,-1,14
 140 392 140 392 140 331 c 0,15,16
 140 269 140 269 154 219.5 c 128,-1,17
 168 170 168 170 193.5 134.5 c 128,-1,18
 219 99 219 99 255 80 c 128,-1,19
 291 61 291 61 335 61 c 256,0,1
591 773 m 1,20,21
 601 759 601 759 607.5 743 c 128,-1,22
 614 727 614 727 614 708 c 0,23,24
 614 665 614 665 586.5 639.5 c 128,-1,25
 559 614 559 614 512 603 c 1,26,27
 560 559 560 559 587.5 490.5 c 128,-1,28
 615 422 615 422 615 331 c 0,29,30
 615 252 615 252 594.5 188.5 c 128,-1,31
 574 125 574 125 536.5 80.5 c 128,-1,32
 499 36 499 36 447.5 12 c 128,-1,33
 396 -12 396 -12 335 -12 c 0,34,35
 273 -12 273 -12 221.5 12 c 128,-1,36
 170 36 170 36 132.5 80.5 c 128,-1,37
 95 125 95 125 74.5 188.5 c 128,-1,38
 54 252 54 252 54 331 c 256,39,40
 54 410 54 410 74.5 472.5 c 128,-1,41
 95 535 95 535 132.5 578.5 c 128,-1,42
 170 622 170 622 221.5 645 c 128,-1,43
 273 668 273 668 335 668 c 0,44,45
 407 668 407 668 465 636 c 1,46,47
 507 644 507 644 526.5 659.5 c 128,-1,48
 546 675 546 675 546 703 c 0,49,50
 546 714 546 714 542 724 c 128,-1,51
 538 734 538 734 532 744 c 1,52,-1
 591 773 l 1,20,21
EndSplineSet
Validated: 1
Substitution2: "'c2sc' Capitals to Small Capitals in Latin lookup 9 subtable" Ohorn.sc
Substitution2: "'aalt' Access All Alternates in Latin lookup 0 subtable" Ohorn.sc
EndChar

StartChar: uni01EA
Encoding: 490 490 168
Width: 664
GlyphClass: 2
Flags: W
AnchorPoint: "Anchor-0" 331 678 basechar 0
LayerCount: 2
Fore
SplineSet
266 -125 m 0,0,1
 266 -92 266 -92 283.5 -62.5 c 128,-1,2
 301 -33 301 -33 327 -11 c 1,3,4
 264 -10 264 -10 213 15 c 128,-1,5
 162 40 162 40 126 84.5 c 128,-1,6
 90 129 90 129 71 191.5 c 128,-1,7
 52 254 52 254 52 331 c 0,8,9
 52 410 52 410 72.5 472.5 c 128,-1,10
 93 535 93 535 130 578.5 c 128,-1,11
 167 622 167 622 218.5 645 c 128,-1,12
 270 668 270 668 332 668 c 256,13,14
 394 668 394 668 445.5 644.5 c 128,-1,15
 497 621 497 621 534.5 577.5 c 128,-1,16
 572 534 572 534 592.5 471.5 c 128,-1,17
 613 409 613 409 613 331 c 0,18,19
 613 264 613 264 599.5 211 c 128,-1,20
 586 158 586 158 559.5 117 c 128,-1,21
 533 76 533 76 495 45.5 c 128,-1,22
 457 15 457 15 408 -7 c 0,23,24
 367 -25 367 -25 348.5 -53 c 128,-1,25
 330 -81 330 -81 330 -107 c 0,26,27
 330 -130 330 -130 345 -141.5 c 128,-1,28
 360 -153 360 -153 378 -153 c 0,29,30
 390 -153 390 -153 399.5 -149.5 c 128,-1,31
 409 -146 409 -146 418 -139 c 1,32,-1
 441 -184 l 1,33,34
 427 -195 427 -195 404 -203.5 c 128,-1,35
 381 -212 381 -212 361 -212 c 0,36,37
 321 -212 321 -212 293.5 -190 c 128,-1,38
 266 -168 266 -168 266 -125 c 0,0,1
332 61 m 256,39,40
 376 61 376 61 411.5 80 c 128,-1,41
 447 99 447 99 472.5 134.5 c 128,-1,42
 498 170 498 170 512 219.5 c 128,-1,43
 526 269 526 269 526 331 c 0,44,45
 526 392 526 392 512 441 c 128,-1,46
 498 490 498 490 472.5 524 c 128,-1,47
 447 558 447 558 411.5 576.5 c 128,-1,48
 376 595 376 595 332 595 c 256,49,50
 288 595 288 595 252.5 576.5 c 128,-1,51
 217 558 217 558 191.5 524 c 128,-1,52
 166 490 166 490 152 441 c 128,-1,53
 138 392 138 392 138 331 c 0,54,55
 138 269 138 269 152 219.5 c 128,-1,56
 166 170 166 170 191.5 134.5 c 128,-1,57
 217 99 217 99 252.5 80 c 128,-1,58
 288 61 288 61 332 61 c 256,39,40
EndSplineSet
Validated: 1
Substitution2: "'c2sc' Capitals to Small Capitals in Latin lookup 9 subtable" uni01EA.sc
Ligature2: "'ccmp' Glyph Composition/Decomposition in Latin lookup 7 subtable" O uni0328
Substitution2: "'aalt' Access All Alternates in Latin lookup 0 subtable" uni01EA.sc
EndChar

StartChar: uni1E9E
Encoding: 7838 7838 182
Width: 667
Flags: W
LayerCount: 2
Fore
SplineSet
91 417 m 2,0,1
 91 535 91 535 158 601.5 c 128,-1,2
 225 668 225 668 347 668 c 0,3,4
 431 668 431 668 484 626 c 128,-1,5
 537 584 537 584 564 514 c 1,6,-1
 426 362 l 1,7,8
 531 341 531 341 577.5 292 c 128,-1,9
 624 243 624 243 624 171 c 0,10,11
 624 132 624 132 610.5 98.5 c 128,-1,12
 597 65 597 65 572 40.5 c 128,-1,13
 547 16 547 16 512 2 c 128,-1,14
 477 -12 477 -12 434 -12 c 0,15,16
 376 -12 376 -12 330 9 c 128,-1,17
 284 30 284 30 253 64 c 1,18,-1
 301 118 l 1,19,20
 330 86 330 86 360 72 c 128,-1,21
 390 58 390 58 427 58 c 0,22,23
 480 58 480 58 509 89.5 c 128,-1,24
 538 121 538 121 538 171 c 0,25,26
 538 194 538 194 529.5 215 c 128,-1,27
 521 236 521 236 499 254 c 128,-1,28
 477 272 477 272 439.5 286 c 128,-1,29
 402 300 402 300 345 310 c 1,30,-1
 340 364 l 1,31,-1
 477 517 l 1,32,33
 460 551 460 551 427.5 575 c 128,-1,34
 395 599 395 599 344 599 c 0,35,36
 264 599 264 599 219.5 551.5 c 128,-1,37
 175 504 175 504 175 402 c 2,38,-1
 175 0 l 1,39,-1
 91 0 l 1,40,-1
 91 417 l 2,0,1
EndSplineSet
Validated: 1
Substitution2: "'c2sc' Capitals to Small Capitals in Latin lookup 9 subtable" uni1E9E.sc
Substitution2: "'aalt' Access All Alternates in Latin lookup 0 subtable" uni1E9E.sc
EndChar

StartChar: Uogonek
Encoding: 370 370 204
Width: 645
GlyphClass: 2
Flags: W
AnchorPoint: "Anchor-0" 322 678 basechar 0
LayerCount: 2
Fore
SplineSet
87 656 m 1,0,-1
 170 656 l 1,1,-1
 170 269 l 2,2,3
 170 210 170 210 182 170 c 128,-1,4
 194 130 194 130 214.5 106 c 128,-1,5
 235 82 235 82 263 71.5 c 128,-1,6
 291 61 291 61 323 61 c 0,7,8
 356 61 356 61 384 71.5 c 128,-1,9
 412 82 412 82 433 106 c 128,-1,10
 454 130 454 130 466 170 c 128,-1,11
 478 210 478 210 478 269 c 2,12,-1
 478 656 l 1,13,-1
 558 656 l 1,14,-1
 558 271 l 2,15,16
 558 205 558 205 546.5 159.5 c 128,-1,17
 535 114 535 114 514 82.5 c 128,-1,18
 493 51 493 51 463.5 30.5 c 128,-1,19
 434 10 434 10 398 -7 c 0,20,21
 359 -26 359 -26 339 -54 c 128,-1,22
 319 -82 319 -82 319 -107 c 0,23,24
 319 -130 319 -130 334 -141.5 c 128,-1,25
 349 -153 349 -153 367 -153 c 0,26,27
 388 -153 388 -153 407 -139 c 1,28,-1
 430 -184 l 1,29,30
 416 -195 416 -195 393 -203.5 c 128,-1,31
 370 -212 370 -212 350 -212 c 0,32,33
 310 -212 310 -212 282 -190 c 128,-1,34
 254 -168 254 -168 254 -125 c 0,35,36
 254 -104 254 -104 260.5 -87.5 c 128,-1,37
 267 -71 267 -71 276.5 -57 c 128,-1,38
 286 -43 286 -43 297.5 -31.5 c 128,-1,39
 309 -20 309 -20 318 -11 c 1,40,41
 267 -10 267 -10 224.5 6 c 128,-1,42
 182 22 182 22 151.5 55.5 c 128,-1,43
 121 89 121 89 104 142 c 128,-1,44
 87 195 87 195 87 271 c 2,45,-1
 87 656 l 1,0,-1
EndSplineSet
Validated: 1
Substitution2: "'c2sc' Capitals to Small Capitals in Latin lookup 9 subtable" Uogonek.sc
Ligature2: "'ccmp' Glyph Composition/Decomposition in Latin lookup 7 subtable" U uni0328
Substitution2: "'aalt' Access All Alternates in Latin lookup 0 subtable" Uogonek.sc
EndChar

StartChar: Uhorn
Encoding: 431 431 205
Width: 659
GlyphClass: 2
Flags: W
AnchorPoint: "Anchor-2" 322 -22 basechar 0
AnchorPoint: "Anchor-0" 323 678 basechar 0
LayerCount: 2
Fore
SplineSet
645 793 m 1,0,1
 656 779 656 779 662 763 c 128,-1,2
 668 747 668 747 668 728 c 0,3,4
 668 703 668 703 659 685 c 128,-1,5
 650 667 650 667 635 654 c 128,-1,6
 620 641 620 641 600 633 c 128,-1,7
 580 625 580 625 558 620 c 1,8,-1
 558 271 l 2,9,10
 558 192 558 192 540 138 c 128,-1,11
 522 84 522 84 490.5 50.5 c 128,-1,12
 459 17 459 17 416 2.5 c 128,-1,13
 373 -12 373 -12 323 -12 c 256,14,15
 273 -12 273 -12 229.5 2.5 c 128,-1,16
 186 17 186 17 154.5 50.5 c 128,-1,17
 123 84 123 84 105 138 c 128,-1,18
 87 192 87 192 87 271 c 2,19,-1
 87 656 l 1,20,-1
 170 656 l 1,21,-1
 170 269 l 2,22,23
 170 210 170 210 182 170 c 128,-1,24
 194 130 194 130 214.5 106 c 128,-1,25
 235 82 235 82 263 71.5 c 128,-1,26
 291 61 291 61 323 61 c 0,27,28
 356 61 356 61 384 71.5 c 128,-1,29
 412 82 412 82 433 106 c 128,-1,30
 454 130 454 130 466 170 c 128,-1,31
 478 210 478 210 478 269 c 2,32,-1
 478 656 l 1,33,-1
 511 656 l 1,34,35
 553 660 553 660 577 674 c 128,-1,36
 601 688 601 688 601 723 c 0,37,38
 601 734 601 734 597 744 c 128,-1,39
 593 754 593 754 586 764 c 1,40,-1
 645 793 l 1,0,1
EndSplineSet
Validated: 1
Substitution2: "'c2sc' Capitals to Small Capitals in Latin lookup 9 subtable" Uhorn.sc
Substitution2: "'aalt' Access All Alternates in Latin lookup 0 subtable" Uhorn.sc
EndChar

StartChar: Eth
Encoding: 208 208 227
Width: 638
Flags: W
LayerCount: 2
Fore
SplineSet
270 68 m 2,0,1
 385 68 385 68 442.5 137 c 128,-1,2
 500 206 500 206 500 331 c 256,3,4
 500 456 500 456 442.5 522 c 128,-1,5
 385 588 385 588 270 588 c 2,6,-1
 195 588 l 1,7,-1
 195 368 l 1,8,-1
 344 368 l 1,9,-1
 344 321 l 1,10,-1
 195 321 l 1,11,-1
 195 68 l 1,12,-1
 270 68 l 2,0,1
276 656 m 2,13,14
 428 656 428 656 507 572 c 128,-1,15
 586 488 586 488 586 331 c 0,16,17
 586 253 586 253 566 191.5 c 128,-1,18
 546 130 546 130 507 87.5 c 128,-1,19
 468 45 468 45 411 22.5 c 128,-1,20
 354 0 354 0 280 0 c 2,21,-1
 112 0 l 1,22,-1
 112 321 l 1,23,-1
 33 321 l 1,24,-1
 33 364 l 1,25,-1
 112 368 l 1,26,-1
 112 656 l 1,27,-1
 276 656 l 2,13,14
EndSplineSet
Validated: 1
Substitution2: "'c2sc' Capitals to Small Capitals in Latin lookup 9 subtable" Eth.sc
Substitution2: "'aalt' Access All Alternates in Latin lookup 0 subtable" Eth.sc
EndChar

StartChar: Thorn
Encoding: 222 222 228
Width: 583
Flags: W
LayerCount: 2
Fore
SplineSet
90 656 m 1,0,-1
 173 656 l 1,1,-1
 173 546 l 1,2,-1
 291 546 l 2,3,4
 345 546 345 546 390 536 c 128,-1,5
 435 526 435 526 466.5 503 c 128,-1,6
 498 480 498 480 515.5 443.5 c 128,-1,7
 533 407 533 407 533 353 c 0,8,9
 533 301 533 301 515.5 262.5 c 128,-1,10
 498 224 498 224 466 199 c 128,-1,11
 434 174 434 174 389.5 162 c 128,-1,12
 345 150 345 150 291 150 c 2,13,-1
 173 150 l 1,14,-1
 173 0 l 1,15,-1
 90 0 l 1,16,-1
 90 656 l 1,0,-1
281 218 m 2,17,18
 367 218 367 218 408.5 250 c 128,-1,19
 450 282 450 282 450 353 c 256,20,21
 450 424 450 424 408 451 c 128,-1,22
 366 478 366 478 281 478 c 2,23,-1
 173 478 l 1,24,-1
 173 218 l 1,25,-1
 281 218 l 2,17,18
EndSplineSet
Validated: 1
Substitution2: "'c2sc' Capitals to Small Capitals in Latin lookup 9 subtable" Thorn.sc
Substitution2: "'aalt' Access All Alternates in Latin lookup 0 subtable" Thorn.sc
EndChar

StartChar: uni018F
Encoding: 399 399 229
Width: 659
GlyphClass: 2
Flags: W
AnchorPoint: "Anchor-2" 355 -22 basechar 0
AnchorPoint: "Anchor-0" 352 678 basechar 0
LayerCount: 2
Fore
SplineSet
143 286 m 1,0,1
 146 232 146 232 160.5 189.5 c 128,-1,2
 175 147 175 147 199.5 117.5 c 128,-1,3
 224 88 224 88 256.5 72.5 c 128,-1,4
 289 57 289 57 328 57 c 0,5,6
 408 57 408 57 460 118 c 128,-1,7
 512 179 512 179 522 286 c 1,8,-1
 143 286 l 1,0,1
125 591 m 1,9,10
 160 625 160 625 212.5 646.5 c 128,-1,11
 265 668 265 668 332 668 c 0,12,13
 395 668 395 668 446 644.5 c 128,-1,14
 497 621 497 621 532.5 577.5 c 128,-1,15
 568 534 568 534 587.5 471.5 c 128,-1,16
 607 409 607 409 607 330 c 256,17,18
 607 251 607 251 586.5 188 c 128,-1,19
 566 125 566 125 529 80.5 c 128,-1,20
 492 36 492 36 440.5 12 c 128,-1,21
 389 -12 389 -12 328 -12 c 0,22,23
 266 -12 266 -12 216.5 12 c 128,-1,24
 167 36 167 36 131.5 80.5 c 128,-1,25
 96 125 96 125 77 187 c 128,-1,26
 58 249 58 249 58 325 c 0,27,28
 58 330 58 330 58.5 336.5 c 128,-1,29
 59 343 59 343 60 350 c 1,30,-1
 524 350 l 1,31,32
 519 466 519 466 468.5 532.5 c 128,-1,33
 418 599 418 599 325 599 c 0,34,35
 276 599 276 599 235 581 c 128,-1,36
 194 563 194 563 165 534 c 1,37,-1
 125 591 l 1,9,10
EndSplineSet
Validated: 1
Substitution2: "'c2sc' Capitals to Small Capitals in Latin lookup 9 subtable" uni018F.sc
Substitution2: "'aalt' Access All Alternates in Latin lookup 0 subtable" uni018F.sc
EndChar

StartChar: aogonek
Encoding: 261 261 251
Width: 512
GlyphClass: 2
Flags: W
AnchorPoint: "Anchor-0" 269 508 basechar 0
LayerCount: 2
Fore
SplineSet
139 132 m 0,0,1
 139 90 139 90 163.5 72 c 128,-1,2
 188 54 188 54 224 54 c 0,3,4
 259 54 259 54 290.5 70.5 c 128,-1,5
 322 87 322 87 357 119 c 1,6,-1
 357 254 l 1,7,8
 296 246 296 246 254 235 c 128,-1,9
 212 224 212 224 186.5 209 c 128,-1,10
 161 194 161 194 150 174.5 c 128,-1,11
 139 155 139 155 139 132 c 0,0,1
58 126 m 0,12,13
 58 206 58 206 129.5 248.5 c 128,-1,14
 201 291 201 291 357 308 c 1,15,16
 357 331 357 331 352.5 353 c 128,-1,17
 348 375 348 375 336.5 392 c 128,-1,18
 325 409 325 409 306 419.5 c 128,-1,19
 287 430 287 430 257 430 c 0,20,21
 214 430 214 430 177.5 414 c 128,-1,22
 141 398 141 398 112 378 c 1,23,-1
 79 435 l 1,24,25
 113 457 113 457 162 477.5 c 128,-1,26
 211 498 211 498 270 498 c 0,27,28
 359 498 359 498 399 443.5 c 128,-1,29
 439 389 439 389 439 298 c 2,30,-1
 439 0 l 1,31,32
 397 -17 397 -17 374.5 -46.5 c 128,-1,33
 352 -76 352 -76 352 -105 c 0,34,35
 352 -128 352 -128 366.5 -139.5 c 128,-1,36
 381 -151 381 -151 399 -151 c 0,37,38
 411 -151 411 -151 420.5 -147.5 c 128,-1,39
 430 -144 430 -144 439 -138 c 1,40,-1
 460 -179 l 1,41,42
 446 -190 446 -190 423.5 -198 c 128,-1,43
 401 -206 401 -206 382 -206 c 0,44,45
 344 -206 344 -206 318 -184.5 c 128,-1,46
 292 -163 292 -163 292 -121 c 0,47,48
 292 -101 292 -101 299 -82.5 c 128,-1,49
 306 -64 306 -64 317.5 -48 c 128,-1,50
 329 -32 329 -32 343 -18.5 c 128,-1,51
 357 -5 357 -5 372 4 c 1,52,-1
 364 58 l 1,53,-1
 362 58 l 1,54,55
 327 29 327 29 286.5 8.5 c 128,-1,56
 246 -12 246 -12 201 -12 c 0,57,58
 139 -12 139 -12 98.5 24 c 128,-1,59
 58 60 58 60 58 126 c 0,12,13
EndSplineSet
Validated: 1
Substitution2: "'ss02' Style Set 2 in Latin lookup 27 subtable" aogonek.a
Substitution2: "'smcp' Lowercase to Small Capitals in Latin lookup 11 subtable" Aogonek.sc
Ligature2: "'ccmp' Glyph Composition/Decomposition in Latin lookup 7 subtable" a uni0328
AlternateSubs2: "'aalt' Access All Alternates in Latin lookup 1 subtable" Aogonek.sc aogonek.a
EndChar

StartChar: ae
Encoding: 230 230 252
Width: 785
Flags: W
LayerCount: 2
Fore
SplineSet
139 132 m 0,0,1
 139 90 139 90 163.5 72 c 128,-1,2
 188 54 188 54 224 54 c 0,3,4
 258 54 258 54 298 73.5 c 128,-1,5
 338 93 338 93 371 129 c 1,6,7
 363 148 363 148 358 174.5 c 128,-1,8
 353 201 353 201 352 229 c 1,9,-1
 352 254 l 1,10,11
 294 246 294 246 253.5 235 c 128,-1,12
 213 224 213 224 187.5 209 c 128,-1,13
 162 194 162 194 150.5 174.5 c 128,-1,14
 139 155 139 155 139 132 c 0,0,1
79 435 m 1,15,16
 113 457 113 457 161 477.5 c 128,-1,17
 209 498 209 498 263 498 c 256,18,19
 317 498 317 498 352 470.5 c 128,-1,20
 387 443 387 443 402 395 c 1,21,22
 431 443 431 443 471.5 470.5 c 128,-1,23
 512 498 512 498 562 498 c 0,24,25
 607 498 607 498 641.5 482 c 128,-1,26
 676 466 676 466 699.5 436 c 128,-1,27
 723 406 723 406 735 363.5 c 128,-1,28
 747 321 747 321 747 269 c 0,29,30
 747 241 747 241 744 223 c 1,31,-1
 429 223 l 1,32,33
 430 185 430 185 442.5 154 c 128,-1,34
 455 123 455 123 475 101 c 128,-1,35
 495 79 495 79 522 67 c 128,-1,36
 549 55 549 55 580 55 c 0,37,38
 615 55 615 55 643 66.5 c 128,-1,39
 671 78 671 78 698 95 c 1,40,-1
 728 38 l 1,41,42
 696 18 696 18 658 3 c 128,-1,43
 620 -12 620 -12 570 -12 c 0,44,45
 509 -12 509 -12 468 15.5 c 128,-1,46
 427 43 427 43 399 79 c 1,47,48
 349 34 349 34 298.5 11 c 128,-1,49
 248 -12 248 -12 201 -12 c 0,50,51
 139 -12 139 -12 98.5 24 c 128,-1,52
 58 60 58 60 58 126 c 0,53,54
 58 206 58 206 129 248.5 c 128,-1,55
 200 291 200 291 352 308 c 1,56,57
 352 331 352 331 348 353 c 128,-1,58
 344 375 344 375 332.5 392 c 128,-1,59
 321 409 321 409 302 419.5 c 128,-1,60
 283 430 283 430 253 430 c 0,61,62
 213 430 213 430 177 414 c 128,-1,63
 141 398 141 398 112 378 c 1,64,-1
 79 435 l 1,15,16
675 278 m 1,65,66
 675 353 675 353 645.5 393 c 128,-1,67
 616 433 616 433 560 433 c 0,68,69
 509 433 509 433 472.5 391.5 c 128,-1,70
 436 350 436 350 429 278 c 1,71,-1
 675 278 l 1,65,66
EndSplineSet
Validated: 1
Substitution2: "'smcp' Lowercase to Small Capitals in Latin lookup 11 subtable" AE.sc
Substitution2: "'aalt' Access All Alternates in Latin lookup 0 subtable" AE.sc
EndChar

StartChar: dcroat
Encoding: 273 273 261
Width: 555
Flags: W
LayerCount: 2
Fore
SplineSet
390 358 m 1,0,1
 359 386 359 386 330.5 397.5 c 128,-1,2
 302 409 302 409 272 409 c 0,3,4
 243 409 243 409 217.5 396.5 c 128,-1,5
 192 384 192 384 173 360.5 c 128,-1,6
 154 337 154 337 143 304.5 c 128,-1,7
 132 272 132 272 132 233 c 0,8,9
 132 149 132 149 167 103 c 128,-1,10
 202 57 202 57 266 57 c 0,11,12
 300 57 300 57 330 73.5 c 128,-1,13
 360 90 360 90 390 124 c 1,14,-1
 390 358 l 1,0,1
545 576 m 1,15,-1
 473 571 l 1,16,-1
 473 0 l 1,17,-1
 403 0 l 1,18,-1
 397 55 l 1,19,-1
 394 55 l 1,20,21
 366 27 366 27 329 7.5 c 128,-1,22
 292 -12 292 -12 248 -12 c 0,23,24
 156 -12 156 -12 101.5 51 c 128,-1,25
 47 114 47 114 47 232 c 0,26,27
 47 289 47 289 64.5 334.5 c 128,-1,28
 82 380 82 380 111 412 c 128,-1,29
 140 444 140 444 178 461 c 128,-1,30
 216 478 216 478 258 478 c 256,31,32
 300 478 300 478 331 463 c 128,-1,33
 362 448 362 448 394 422 c 1,34,-1
 390 505 l 1,35,-1
 390 571 l 1,36,-1
 229 571 l 1,37,-1
 229 619 l 1,38,-1
 390 619 l 1,39,-1
 390 712 l 1,40,-1
 473 712 l 1,41,-1
 473 619 l 1,42,-1
 545 619 l 1,43,-1
 545 576 l 1,15,-1
EndSplineSet
Validated: 1
Substitution2: "'smcp' Lowercase to Small Capitals in Latin lookup 11 subtable" Dcroat.sc
Substitution2: "'aalt' Access All Alternates in Latin lookup 0 subtable" Dcroat.sc
EndChar

StartChar: eogonek
Encoding: 281 281 278
Width: 496
GlyphClass: 2
Flags: W
AnchorPoint: "Anchor-0" 264 508 basechar 0
LayerCount: 2
Fore
SplineSet
46 242 m 256,0,1
 46 302 46 302 64.5 349.5 c 128,-1,2
 83 397 83 397 113.5 430 c 128,-1,3
 144 463 144 463 183 480.5 c 128,-1,4
 222 498 222 498 264 498 c 0,5,6
 310 498 310 498 346.5 482 c 128,-1,7
 383 466 383 466 407.5 436 c 128,-1,8
 432 406 432 406 445 364 c 128,-1,9
 458 322 458 322 458 270 c 0,10,11
 458 243 458 243 455 225 c 1,12,-1
 127 225 l 1,13,14
 132 146 132 146 175.5 100 c 128,-1,15
 219 54 219 54 289 54 c 0,16,17
 324 54 324 54 353.5 64.5 c 128,-1,18
 383 75 383 75 410 92 c 1,19,-1
 439 38 l 1,20,21
 406 15 406 15 385 -4.5 c 128,-1,22
 364 -24 364 -24 351 -41 c 128,-1,23
 338 -58 338 -58 333 -73.5 c 128,-1,24
 328 -89 328 -89 328 -105 c 0,25,26
 328 -128 328 -128 342 -139.5 c 128,-1,27
 356 -151 356 -151 375 -151 c 0,28,29
 387 -151 387 -151 396.5 -147.5 c 128,-1,30
 406 -144 406 -144 415 -138 c 1,31,-1
 436 -179 l 1,32,33
 422 -190 422 -190 399.5 -198 c 128,-1,34
 377 -206 377 -206 358 -206 c 0,35,36
 320 -206 320 -206 294 -184.5 c 128,-1,37
 268 -163 268 -163 268 -121 c 0,38,39
 268 -102 268 -102 273.5 -85 c 128,-1,40
 279 -68 279 -68 288 -53 c 128,-1,41
 297 -38 297 -38 307.5 -26 c 128,-1,42
 318 -14 318 -14 328 -5 c 1,43,44
 315 -10 315 -10 303 -11 c 128,-1,45
 291 -12 291 -12 279 -12 c 0,46,47
 230 -12 230 -12 187.5 5.5 c 128,-1,48
 145 23 145 23 113.5 55.5 c 128,-1,49
 82 88 82 88 64 135 c 128,-1,50
 46 182 46 182 46 242 c 256,0,1
386 279 m 1,51,52
 386 354 386 354 355 393.5 c 128,-1,53
 324 433 324 433 266 433 c 0,54,55
 240 433 240 433 216.5 422.5 c 128,-1,56
 193 412 193 412 174 392.5 c 128,-1,57
 155 373 155 373 142.5 344.5 c 128,-1,58
 130 316 130 316 126 279 c 1,59,-1
 386 279 l 1,51,52
EndSplineSet
Validated: 1
Substitution2: "'smcp' Lowercase to Small Capitals in Latin lookup 11 subtable" Eogonek.sc
Ligature2: "'ccmp' Glyph Composition/Decomposition in Latin lookup 7 subtable" e uni0328
Substitution2: "'aalt' Access All Alternates in Latin lookup 0 subtable" Eogonek.sc
EndChar

StartChar: hbar
Encoding: 295 295 289
Width: 544
Flags: W
LayerCount: 2
Fore
SplineSet
161 398 m 1,0,1
 196 431 196 431 234 454.5 c 128,-1,2
 272 478 272 478 323 478 c 0,3,4
 400 478 400 478 435.5 430 c 128,-1,5
 471 382 471 382 471 288 c 2,6,-1
 471 0 l 1,7,-1
 389 0 l 1,8,-1
 389 277 l 2,9,10
 389 346 389 346 367 376.5 c 128,-1,11
 345 407 345 407 297 407 c 0,12,13
 259 407 259 407 230 388 c 128,-1,14
 201 369 201 369 164 332 c 1,15,-1
 164 0 l 1,16,-1
 82 0 l 1,17,-1
 82 571 l 1,18,-1
 8 571 l 1,19,-1
 8 614 l 1,20,-1
 82 619 l 1,21,-1
 82 712 l 1,22,-1
 164 712 l 1,23,-1
 164 619 l 1,24,-1
 346 619 l 1,25,-1
 346 571 l 1,26,-1
 164 571 l 1,27,-1
 164 498 l 1,28,-1
 161 398 l 1,0,1
EndSplineSet
Validated: 1
Substitution2: "'smcp' Lowercase to Small Capitals in Latin lookup 11 subtable" Hbar.sc
Substitution2: "'aalt' Access All Alternates in Latin lookup 0 subtable" Hbar.sc
EndChar

StartChar: iogonek
Encoding: 303 303 299
Width: 246
GlyphClass: 3
Flags: W
LayerCount: 2
Fore
SplineSet
82 486 m 1,0,-1
 164 486 l 1,1,-1
 164 0 l 1,2,3
 134 -22 134 -22 116.5 -49 c 128,-1,4
 99 -76 99 -76 99 -105 c 0,5,6
 99 -128 99 -128 113 -139.5 c 128,-1,7
 127 -151 127 -151 146 -151 c 0,8,9
 157 -151 157 -151 166.5 -147.5 c 128,-1,10
 176 -144 176 -144 186 -138 c 1,11,-1
 207 -179 l 1,12,13
 193 -190 193 -190 170.5 -198 c 128,-1,14
 148 -206 148 -206 129 -206 c 0,15,16
 91 -206 91 -206 64.5 -184.5 c 128,-1,17
 38 -163 38 -163 38 -121 c 0,18,19
 38 -81 38 -81 59.5 -51 c 128,-1,20
 81 -21 81 -21 102 0 c 1,21,-1
 82 0 l 1,22,-1
 82 486 l 1,0,-1
123 586 m 0,23,24
 99 586 99 586 82.5 601 c 128,-1,25
 66 616 66 616 66 639 c 0,26,27
 66 663 66 663 82.5 677.5 c 128,-1,28
 99 692 99 692 123 692 c 0,29,30
 146 692 146 692 162.5 677.5 c 128,-1,31
 179 663 179 663 179 639 c 0,32,33
 179 616 179 616 162.5 601 c 128,-1,34
 146 586 146 586 123 586 c 0,23,24
EndSplineSet
Validated: 1
Substitution2: "Single Substitution lookup 32 subtable" iogonek.d
Substitution2: "'smcp' Lowercase to Small Capitals in Latin lookup 11 subtable" Iogonek.sc
Ligature2: "'ccmp' Glyph Composition/Decomposition in Latin lookup 7 subtable" i uni0328
Substitution2: "'aalt' Access All Alternates in Latin lookup 0 subtable" Iogonek.sc
EndChar

StartChar: iogonek.d
Encoding: 1114116 -1 300
Width: 246
GlyphClass: 2
Flags: W
AnchorPoint: "Anchor-0" 124 508 basechar 0
LayerCount: 2
Fore
SplineSet
82 486 m 1,0,-1
 164 486 l 1,1,-1
 164 0 l 1,2,3
 134 -22 134 -22 116.5 -49 c 128,-1,4
 99 -76 99 -76 99 -105 c 0,5,6
 99 -128 99 -128 113 -139.5 c 128,-1,7
 127 -151 127 -151 146 -151 c 0,8,9
 157 -151 157 -151 166.5 -147.5 c 128,-1,10
 176 -144 176 -144 186 -138 c 1,11,-1
 207 -179 l 1,12,13
 193 -190 193 -190 170.5 -198 c 128,-1,14
 148 -206 148 -206 129 -206 c 0,15,16
 91 -206 91 -206 64.5 -184.5 c 128,-1,17
 38 -163 38 -163 38 -121 c 0,18,19
 38 -81 38 -81 59.5 -51 c 128,-1,20
 81 -21 81 -21 102 0 c 1,21,-1
 82 0 l 1,22,-1
 82 486 l 1,0,-1
EndSplineSet
Validated: 1
Ligature2: "Ligature Substitution lookup 31 subtable" i uni0328
Substitution2: "'smcp' Lowercase to Small Capitals in Latin lookup 11 subtable" Iogonek.sc
Substitution2: "'aalt' Access All Alternates in Latin lookup 0 subtable" Iogonek.sc
EndChar

StartChar: dotlessi
Encoding: 305 305 301
Width: 246
GlyphClass: 2
Flags: W
AnchorPoint: "Anchor-4" 152 0 basechar 0
AnchorPoint: "Anchor-2" 123 -22 basechar 0
AnchorPoint: "Anchor-0" 124 508 basechar 0
LayerCount: 2
Fore
SplineSet
82 486 m 1,0,-1
 164 486 l 1,1,-1
 164 0 l 1,2,-1
 82 0 l 1,3,-1
 82 486 l 1,0,-1
EndSplineSet
Validated: 1
EndChar

StartChar: kgreenlandic
Encoding: 312 312 304
Width: 495
Flags: W
LayerCount: 2
Fore
SplineSet
82 486 m 1,0,-1
 164 486 l 1,1,-1
 164 228 l 1,2,-1
 167 228 l 1,3,-1
 373 486 l 1,4,-1
 464 486 l 1,5,-1
 303 291 l 1,6,-1
 486 0 l 1,7,-1
 396 0 l 1,8,-1
 254 231 l 1,9,-1
 164 125 l 1,10,-1
 164 0 l 1,11,-1
 82 0 l 1,12,-1
 82 486 l 1,0,-1
EndSplineSet
Validated: 1
EndChar

StartChar: lslash
Encoding: 322 322 312
Width: 262
Flags: W
LayerCount: 2
Fore
SplineSet
169 374 m 1,0,-1
 169 92 l 2,1,2
 169 72 169 72 176 64 c 128,-1,3
 183 56 183 56 192 56 c 0,4,5
 195 56 195 56 198.5 56 c 128,-1,6
 202 56 202 56 210 58 c 1,7,-1
 221 -4 l 1,8,9
 212 -8 212 -8 201 -10 c 128,-1,10
 190 -12 190 -12 173 -12 c 0,11,12
 127 -12 127 -12 106.5 16 c 128,-1,13
 86 44 86 44 86 98 c 2,14,-1
 86 331 l 1,15,-1
 23 291 l 1,16,-1
 23 361 l 1,17,-1
 86 401 l 1,18,-1
 86 712 l 1,19,-1
 169 712 l 1,20,-1
 169 444 l 1,21,-1
 239 489 l 1,22,-1
 239 419 l 1,23,-1
 169 374 l 1,0,-1
EndSplineSet
Validated: 1
Substitution2: "'ss01' Style Set 1 in Latin lookup 26 subtable" lslash.a
Substitution2: "'smcp' Lowercase to Small Capitals in Latin lookup 11 subtable" Lslash.sc
AlternateSubs2: "'aalt' Access All Alternates in Latin lookup 1 subtable" Lslash.sc lslash.a
EndChar

StartChar: oslash
Encoding: 248 248 337
Width: 542
GlyphClass: 2
Flags: W
AnchorPoint: "Anchor-0" 271 508 basechar 0
LayerCount: 2
Fore
SplineSet
178 93 m 1,0,1
 217 54 217 54 271 54 c 0,2,3
 302 54 302 54 328.5 67.5 c 128,-1,4
 355 81 355 81 374.5 105.5 c 128,-1,5
 394 130 394 130 404.5 164 c 128,-1,6
 415 198 415 198 415 239 c 0,7,8
 415 306 415 306 391 353 c 1,9,-1
 178 93 l 1,0,1
364 392 m 1,10,11
 327 432 327 432 271 432 c 0,12,13
 240 432 240 432 213.5 418.5 c 128,-1,14
 187 405 187 405 168 380.5 c 128,-1,15
 149 356 149 356 138 321.5 c 128,-1,16
 127 287 127 287 127 246 c 0,17,18
 127 179 127 179 150 133 c 1,19,-1
 364 392 l 1,10,11
442 415 m 1,20,21
 467 383 467 383 481.5 339.5 c 128,-1,22
 496 296 496 296 496 242 c 0,23,24
 496 182 496 182 477.5 134.5 c 128,-1,25
 459 87 459 87 428 54.5 c 128,-1,26
 397 22 397 22 356.5 5 c 128,-1,27
 316 -12 316 -12 271 -12 c 0,28,29
 192 -12 192 -12 132 37 c 1,30,-1
 83 -23 l 1,31,-1
 46 6 l 1,32,-1
 100 71 l 1,33,34
 75 103 75 103 60.5 145.5 c 128,-1,35
 46 188 46 188 46 242 c 0,36,37
 46 303 46 303 64.5 350.5 c 128,-1,38
 83 398 83 398 114 431 c 128,-1,39
 145 464 145 464 185.5 481 c 128,-1,40
 226 498 226 498 271 498 c 0,41,42
 309 498 309 498 345 485.5 c 128,-1,43
 381 473 381 473 410 448 c 1,44,-1
 460 509 l 1,45,-1
 496 480 l 1,46,-1
 442 415 l 1,20,21
EndSplineSet
Validated: 1
Substitution2: "'smcp' Lowercase to Small Capitals in Latin lookup 11 subtable" Oslash.sc
Substitution2: "'aalt' Access All Alternates in Latin lookup 0 subtable" Oslash.sc
EndChar

StartChar: oe
Encoding: 339 339 338
Width: 839
GlyphClass: 2
Flags: W
AnchorPoint: "Anchor-0" 440 508 basechar 0
LayerCount: 2
Fore
SplineSet
130 242 m 256,0,1
 130 200 130 200 140 166 c 128,-1,2
 150 132 150 132 168 107.5 c 128,-1,3
 186 83 186 83 211 69.5 c 128,-1,4
 236 56 236 56 266 56 c 256,5,6
 296 56 296 56 321 69.5 c 128,-1,7
 346 83 346 83 364 107.5 c 128,-1,8
 382 132 382 132 392 166 c 128,-1,9
 402 200 402 200 402 242 c 256,10,11
 402 284 402 284 392 318.5 c 128,-1,12
 382 353 382 353 364 378 c 128,-1,13
 346 403 346 403 321 416.5 c 128,-1,14
 296 430 296 430 266 430 c 256,15,16
 236 430 236 430 211 416.5 c 128,-1,17
 186 403 186 403 168 378 c 128,-1,18
 150 353 150 353 140 318.5 c 128,-1,19
 130 284 130 284 130 242 c 256,0,1
46 242 m 0,20,21
 46 303 46 303 64 350.5 c 128,-1,22
 82 398 82 398 112 431 c 128,-1,23
 142 464 142 464 182 481 c 128,-1,24
 222 498 222 498 266 498 c 0,25,26
 322 498 322 498 369 467 c 128,-1,27
 416 436 416 436 442 376 c 1,28,29
 470 433 470 433 514.5 465.5 c 128,-1,30
 559 498 559 498 613 498 c 0,31,32
 658 498 658 498 693 482 c 128,-1,33
 728 466 728 466 752 436 c 128,-1,34
 776 406 776 406 788.5 363.5 c 128,-1,35
 801 321 801 321 801 269 c 0,36,37
 801 241 801 241 798 223 c 1,38,-1
 479 223 l 1,39,40
 480 185 480 185 492.5 154 c 128,-1,41
 505 123 505 123 525.5 101 c 128,-1,42
 546 79 546 79 573.5 67 c 128,-1,43
 601 55 601 55 632 55 c 0,44,45
 667 55 667 55 696 66.5 c 128,-1,46
 725 78 725 78 752 95 c 1,47,-1
 782 38 l 1,48,49
 750 18 750 18 711 3 c 128,-1,50
 672 -12 672 -12 622 -12 c 0,51,52
 565 -12 565 -12 518 20 c 128,-1,53
 471 52 471 52 443 109 c 1,54,55
 386 -12 386 -12 264 -12 c 0,56,57
 220 -12 220 -12 180.5 5 c 128,-1,58
 141 22 141 22 111 54.5 c 128,-1,59
 81 87 81 87 63.5 134.5 c 128,-1,60
 46 182 46 182 46 242 c 0,20,21
729 278 m 1,61,62
 729 353 729 353 698 393 c 128,-1,63
 667 433 667 433 611 433 c 0,64,65
 560 433 560 433 523 391.5 c 128,-1,66
 486 350 486 350 479 278 c 1,67,-1
 729 278 l 1,61,62
EndSplineSet
Validated: 1
Substitution2: "'smcp' Lowercase to Small Capitals in Latin lookup 11 subtable" OE.sc
Substitution2: "'aalt' Access All Alternates in Latin lookup 0 subtable" OE.sc
EndChar

StartChar: ohorn
Encoding: 417 417 339
Width: 542
GlyphClass: 2
Flags: W
AnchorPoint: "Anchor-2" 271 -22 basechar 0
AnchorPoint: "Anchor-0" 271 508 basechar 0
LayerCount: 2
Fore
SplineSet
271 56 m 256,0,1
 302 56 302 56 328 69.5 c 128,-1,2
 354 83 354 83 372.5 107.5 c 128,-1,3
 391 132 391 132 401 166 c 128,-1,4
 411 200 411 200 411 242 c 256,5,6
 411 284 411 284 401 318.5 c 128,-1,7
 391 353 391 353 372.5 378 c 128,-1,8
 354 403 354 403 328 416.5 c 128,-1,9
 302 430 302 430 271 430 c 256,10,11
 240 430 240 430 214 416.5 c 128,-1,12
 188 403 188 403 169.5 378 c 128,-1,13
 151 353 151 353 141 318.5 c 128,-1,14
 131 284 131 284 131 242 c 256,15,16
 131 200 131 200 141 166 c 128,-1,17
 151 132 151 132 169.5 107.5 c 128,-1,18
 188 83 188 83 214 69.5 c 128,-1,19
 240 56 240 56 271 56 c 256,0,1
484 613 m 1,20,21
 494 599 494 599 500.5 583 c 128,-1,22
 507 567 507 567 507 548 c 0,23,24
 507 503 507 503 479 479.5 c 128,-1,25
 451 456 451 456 414 445 c 1,26,27
 451 412 451 412 473.5 361 c 128,-1,28
 496 310 496 310 496 242 c 0,29,30
 496 182 496 182 477.5 134.5 c 128,-1,31
 459 87 459 87 428 54.5 c 128,-1,32
 397 22 397 22 356.5 5 c 128,-1,33
 316 -12 316 -12 271 -12 c 256,34,35
 226 -12 226 -12 185.5 5 c 128,-1,36
 145 22 145 22 114 54.5 c 128,-1,37
 83 87 83 87 64.5 134.5 c 128,-1,38
 46 182 46 182 46 242 c 0,39,40
 46 303 46 303 64.5 350.5 c 128,-1,41
 83 398 83 398 114 431 c 128,-1,42
 145 464 145 464 185.5 481 c 128,-1,43
 226 498 226 498 271 498 c 0,44,45
 321 498 321 498 365 477 c 1,46,47
 400 483 400 483 419.5 498.5 c 128,-1,48
 439 514 439 514 439 542 c 0,49,50
 439 553 439 553 435 563.5 c 128,-1,51
 431 574 431 574 424 584 c 1,52,-1
 484 613 l 1,20,21
EndSplineSet
Validated: 1
Substitution2: "'smcp' Lowercase to Small Capitals in Latin lookup 11 subtable" Ohorn.sc
Substitution2: "'aalt' Access All Alternates in Latin lookup 0 subtable" Ohorn.sc
EndChar

StartChar: uni01EB
Encoding: 491 491 345
Width: 542
GlyphClass: 2
Flags: W
AnchorPoint: "Anchor-0" 271 508 basechar 0
LayerCount: 2
Fore
SplineSet
205 -121 m 0,0,1
 205 -102 205 -102 210.5 -85.5 c 128,-1,2
 216 -69 216 -69 224.5 -54.5 c 128,-1,3
 233 -40 233 -40 242.5 -29 c 128,-1,4
 252 -18 252 -18 261 -11 c 1,5,6
 217 -9 217 -9 178 9.5 c 128,-1,7
 139 28 139 28 109.5 60 c 128,-1,8
 80 92 80 92 63 138 c 128,-1,9
 46 184 46 184 46 242 c 0,10,11
 46 303 46 303 64.5 350.5 c 128,-1,12
 83 398 83 398 114 431 c 128,-1,13
 145 464 145 464 185.5 481 c 128,-1,14
 226 498 226 498 271 498 c 256,15,16
 316 498 316 498 356.5 481 c 128,-1,17
 397 464 397 464 428 431 c 128,-1,18
 459 398 459 398 477.5 350.5 c 128,-1,19
 496 303 496 303 496 242 c 0,20,21
 496 191 496 191 484.5 152.5 c 128,-1,22
 473 114 473 114 452 84.5 c 128,-1,23
 431 55 431 55 402 33.5 c 128,-1,24
 373 12 373 12 337 -4 c 0,25,26
 303 -20 303 -20 284.5 -48 c 128,-1,27
 266 -76 266 -76 266 -105 c 0,28,29
 266 -128 266 -128 280 -139.5 c 128,-1,30
 294 -151 294 -151 312 -151 c 0,31,32
 324 -151 324 -151 333.5 -147.5 c 128,-1,33
 343 -144 343 -144 353 -138 c 1,34,-1
 374 -179 l 1,35,36
 360 -190 360 -190 337.5 -198 c 128,-1,37
 315 -206 315 -206 295 -206 c 0,38,39
 257 -206 257 -206 231 -184.5 c 128,-1,40
 205 -163 205 -163 205 -121 c 0,0,1
131 242 m 256,41,42
 131 200 131 200 141 166 c 128,-1,43
 151 132 151 132 169.5 107.5 c 128,-1,44
 188 83 188 83 214 69.5 c 128,-1,45
 240 56 240 56 271 56 c 256,46,47
 302 56 302 56 328 69.5 c 128,-1,48
 354 83 354 83 372.5 107.5 c 128,-1,49
 391 132 391 132 401 166 c 128,-1,50
 411 200 411 200 411 242 c 256,51,52
 411 284 411 284 401 318.5 c 128,-1,53
 391 353 391 353 372.5 378 c 128,-1,54
 354 403 354 403 328 416.5 c 128,-1,55
 302 430 302 430 271 430 c 256,56,57
 240 430 240 430 214 416.5 c 128,-1,58
 188 403 188 403 169.5 378 c 128,-1,59
 151 353 151 353 141 318.5 c 128,-1,60
 131 284 131 284 131 242 c 256,41,42
EndSplineSet
Validated: 1
Substitution2: "'smcp' Lowercase to Small Capitals in Latin lookup 11 subtable" uni01EA.sc
Ligature2: "'ccmp' Glyph Composition/Decomposition in Latin lookup 7 subtable" o uni0328
Substitution2: "'aalt' Access All Alternates in Latin lookup 0 subtable" uni01EA.sc
EndChar

StartChar: germandbls
Encoding: 223 223 359
Width: 576
Flags: W
LayerCount: 2
Fore
SplineSet
82 515 m 2,0,1
 82 609 82 609 133 665.5 c 128,-1,2
 184 722 184 722 278 722 c 0,3,4
 317 722 317 722 347.5 710.5 c 128,-1,5
 378 699 378 699 399 679 c 128,-1,6
 420 659 420 659 430.5 632.5 c 128,-1,7
 441 606 441 606 441 576 c 0,8,9
 441 538 441 538 427 511.5 c 128,-1,10
 413 485 413 485 395.5 463 c 128,-1,11
 378 441 378 441 364 420.5 c 128,-1,12
 350 400 350 400 350 374 c 0,13,14
 350 350 350 350 364.5 334 c 128,-1,15
 379 318 379 318 401 305.5 c 128,-1,16
 423 293 423 293 448.5 280 c 128,-1,17
 474 267 474 267 496 249 c 128,-1,18
 518 231 518 231 532.5 204 c 128,-1,19
 547 177 547 177 547 137 c 0,20,21
 547 105 547 105 536 78 c 128,-1,22
 525 51 525 51 504 31 c 128,-1,23
 483 11 483 11 453.5 -0.5 c 128,-1,24
 424 -12 424 -12 387 -12 c 0,25,26
 345 -12 345 -12 311 1 c 128,-1,27
 277 14 277 14 246 37 c 1,28,-1
 279 95 l 1,29,30
 305 73 305 73 330.5 62.5 c 128,-1,31
 356 52 356 52 385 52 c 0,32,33
 427 52 427 52 448 76 c 128,-1,34
 469 100 469 100 469 132 c 0,35,36
 469 161 469 161 454.5 180 c 128,-1,37
 440 199 440 199 418 213 c 128,-1,38
 396 227 396 227 370.5 239.5 c 128,-1,39
 345 252 345 252 323 268 c 128,-1,40
 301 284 301 284 286.5 306.5 c 128,-1,41
 272 329 272 329 272 364 c 0,42,43
 272 398 272 398 285.5 422 c 128,-1,44
 299 446 299 446 315.5 468 c 128,-1,45
 332 490 332 490 346 513 c 128,-1,46
 360 536 360 536 360 568 c 0,47,48
 360 606 360 606 339.5 630.5 c 128,-1,49
 319 655 319 655 277 655 c 0,50,51
 223 655 223 655 193.5 616.5 c 128,-1,52
 164 578 164 578 164 500 c 2,53,-1
 164 0 l 1,54,-1
 82 0 l 1,55,-1
 82 515 l 2,0,1
EndSplineSet
Validated: 1
Substitution2: "'smcp' Lowercase to Small Capitals in Latin lookup 11 subtable" uni1E9E.sc
Substitution2: "'aalt' Access All Alternates in Latin lookup 0 subtable" uni1E9E.sc
EndChar

StartChar: uogonek
Encoding: 371 371 382
Width: 544
GlyphClass: 2
Flags: W
AnchorPoint: "Anchor-0" 269 502 basechar 0
LayerCount: 2
Fore
SplineSet
75 486 m 1,0,-1
 158 486 l 1,1,-1
 158 189 l 2,2,3
 158 120 158 120 179 89.5 c 128,-1,4
 200 59 200 59 249 59 c 0,5,6
 287 59 287 59 316 78.5 c 128,-1,7
 345 98 345 98 380 141 c 1,8,-1
 380 486 l 1,9,-1
 462 486 l 1,10,-1
 462 0 l 1,11,12
 417 -22 417 -22 396 -49 c 128,-1,13
 375 -76 375 -76 375 -105 c 0,14,15
 375 -128 375 -128 389.5 -139.5 c 128,-1,16
 404 -151 404 -151 421 -151 c 0,17,18
 433 -151 433 -151 443 -147.5 c 128,-1,19
 453 -144 453 -144 462 -138 c 1,20,-1
 483 -179 l 1,21,22
 469 -190 469 -190 446.5 -198 c 128,-1,23
 424 -206 424 -206 405 -206 c 0,24,25
 367 -206 367 -206 340.5 -184.5 c 128,-1,26
 314 -163 314 -163 314 -121 c 0,27,28
 314 -80 314 -80 338.5 -49.5 c 128,-1,29
 363 -19 363 -19 395 4 c 1,30,-1
 387 76 l 1,31,-1
 384 76 l 1,32,33
 350 36 350 36 312.5 12 c 128,-1,34
 275 -12 275 -12 224 -12 c 0,35,36
 146 -12 146 -12 110.5 36 c 128,-1,37
 75 84 75 84 75 178 c 2,38,-1
 75 486 l 1,0,-1
EndSplineSet
Validated: 1
Substitution2: "'smcp' Lowercase to Small Capitals in Latin lookup 11 subtable" Uogonek.sc
Ligature2: "'ccmp' Glyph Composition/Decomposition in Latin lookup 7 subtable" u uni0328
Substitution2: "'aalt' Access All Alternates in Latin lookup 0 subtable" Uogonek.sc
EndChar

StartChar: uhorn
Encoding: 432 432 383
Width: 544
GlyphClass: 2
Flags: W
AnchorPoint: "Anchor-2" 289 -22 basechar 0
AnchorPoint: "Anchor-0" 271 508 basechar 0
LayerCount: 2
Fore
SplineSet
530 623 m 1,0,1
 540 609 540 609 546.5 593 c 128,-1,2
 553 577 553 577 553 558 c 0,3,4
 553 535 553 535 545 518 c 128,-1,5
 537 501 537 501 524.5 488.5 c 128,-1,6
 512 476 512 476 495.5 468 c 128,-1,7
 479 460 479 460 462 455 c 1,8,-1
 462 0 l 1,9,-1
 394 0 l 1,10,-1
 387 76 l 1,11,-1
 384 76 l 1,12,13
 350 36 350 36 312.5 12 c 128,-1,14
 275 -12 275 -12 224 -12 c 0,15,16
 146 -12 146 -12 110.5 36 c 128,-1,17
 75 84 75 84 75 178 c 2,18,-1
 75 486 l 1,19,-1
 158 486 l 1,20,-1
 158 189 l 2,21,22
 158 120 158 120 179.5 89.5 c 128,-1,23
 201 59 201 59 249 59 c 0,24,25
 287 59 287 59 316 78.5 c 128,-1,26
 345 98 345 98 380 141 c 1,27,-1
 380 486 l 1,28,-1
 401 486 l 1,29,30
 436 490 436 490 460.5 504 c 128,-1,31
 485 518 485 518 485 552 c 0,32,33
 485 563 485 563 481 573.5 c 128,-1,34
 477 584 477 584 471 594 c 1,35,-1
 530 623 l 1,0,1
EndSplineSet
Validated: 1
Substitution2: "'smcp' Lowercase to Small Capitals in Latin lookup 11 subtable" Uhorn.sc
Substitution2: "'aalt' Access All Alternates in Latin lookup 0 subtable" Uhorn.sc
EndChar

StartChar: eth
Encoding: 240 240 405
Width: 545
Flags: W
LayerCount: 2
Fore
SplineSet
271 56 m 0,0,1
 305 56 305 56 330 70.5 c 128,-1,2
 355 85 355 85 372 111 c 128,-1,3
 389 137 389 137 397.5 173.5 c 128,-1,4
 406 210 406 210 406 254 c 0,5,6
 406 268 406 268 405.5 282 c 128,-1,7
 405 296 405 296 404 309 c 1,8,9
 371 353 371 353 338 368 c 128,-1,10
 305 383 305 383 271 383 c 0,11,12
 238 383 238 383 212 371 c 128,-1,13
 186 359 186 359 168 337 c 128,-1,14
 150 315 150 315 140.5 285.5 c 128,-1,15
 131 256 131 256 131 222 c 0,16,17
 131 184 131 184 142 153.5 c 128,-1,18
 153 123 153 123 172.5 101.5 c 128,-1,19
 192 80 192 80 217 68 c 128,-1,20
 242 56 242 56 271 56 c 0,0,1
349 605 m 1,21,22
 409 544 409 544 447 460 c 128,-1,23
 485 376 485 376 485 257 c 0,24,25
 485 197 485 197 469.5 147.5 c 128,-1,26
 454 98 454 98 425.5 62.5 c 128,-1,27
 397 27 397 27 357.5 7.5 c 128,-1,28
 318 -12 318 -12 269 -12 c 0,29,30
 227 -12 227 -12 188 4 c 128,-1,31
 149 20 149 20 119 50.5 c 128,-1,32
 89 81 89 81 71 124.5 c 128,-1,33
 53 168 53 168 53 222 c 0,34,35
 53 273 53 273 69 314.5 c 128,-1,36
 85 356 85 356 112.5 385.5 c 128,-1,37
 140 415 140 415 177.5 431 c 128,-1,38
 215 447 215 447 259 447 c 0,39,40
 297 447 297 447 332 431 c 128,-1,41
 367 415 367 415 393 381 c 1,42,43
 379 443 379 443 351.5 489 c 128,-1,44
 324 535 324 535 286 573 c 1,45,-1
 145 500 l 1,46,-1
 121 541 l 1,47,-1
 248 606 l 1,48,49
 196 646 196 646 136 678 c 1,50,-1
 174 730 l 1,51,52
 210 710 210 710 245 688 c 128,-1,53
 280 666 280 666 312 639 c 1,54,-1
 454 712 l 1,55,-1
 478 671 l 1,56,-1
 349 605 l 1,21,22
EndSplineSet
Validated: 1
Substitution2: "'smcp' Lowercase to Small Capitals in Latin lookup 11 subtable" Eth.sc
Substitution2: "'aalt' Access All Alternates in Latin lookup 0 subtable" Eth.sc
EndChar

StartChar: thorn
Encoding: 254 254 406
Width: 555
GlyphClass: 2
Flags: W
AnchorPoint: "Anchor-2" 284 -22 basechar 0
AnchorPoint: "Anchor-0" 126 730 basechar 0
LayerCount: 2
Fore
SplineSet
164 -205 m 1,0,-1
 82 -205 l 1,1,-1
 82 712 l 1,2,-1
 164 712 l 1,3,-1
 164 518 l 1,4,-1
 163 435 l 1,5,6
 195 461 195 461 233 479.5 c 128,-1,7
 271 498 271 498 311 498 c 0,8,9
 359 498 359 498 395.5 480.5 c 128,-1,10
 432 463 432 463 457 430.5 c 128,-1,11
 482 398 482 398 494.5 352.5 c 128,-1,12
 507 307 507 307 507 250 c 0,13,14
 507 188 507 188 490 139.5 c 128,-1,15
 473 91 473 91 444 57 c 128,-1,16
 415 23 415 23 377 5.5 c 128,-1,17
 339 -12 339 -12 297 -12 c 0,18,19
 262 -12 262 -12 229 2 c 128,-1,20
 196 16 196 16 163 42 c 1,21,-1
 164 -41 l 1,22,-1
 164 -205 l 1,0,-1
164 108 m 1,23,24
 197 80 197 80 228 68.5 c 128,-1,25
 259 57 259 57 283 57 c 0,26,27
 313 57 313 57 338.5 70.5 c 128,-1,28
 364 84 364 84 382.5 108.5 c 128,-1,29
 401 133 401 133 411.5 169 c 128,-1,30
 422 205 422 205 422 250 c 0,31,32
 422 290 422 290 415 323 c 128,-1,33
 408 356 408 356 392.5 379.5 c 128,-1,34
 377 403 377 403 352.5 416 c 128,-1,35
 328 429 328 429 294 429 c 0,36,37
 263 429 263 429 231.5 412 c 128,-1,38
 200 395 200 395 164 363 c 1,39,-1
 164 108 l 1,23,24
EndSplineSet
Validated: 1
Substitution2: "'smcp' Lowercase to Small Capitals in Latin lookup 11 subtable" Thorn.sc
Substitution2: "'aalt' Access All Alternates in Latin lookup 0 subtable" Thorn.sc
EndChar

StartChar: uni0237
Encoding: 567 567 407
Width: 247
GlyphClass: 2
Flags: W
AnchorPoint: "Anchor-0" 125 508 basechar 0
LayerCount: 2
Fore
SplineSet
83 486 m 1,0,-1
 165 486 l 1,1,-1
 165 -55 l 2,2,3
 165 -129 165 -129 135 -173 c 128,-1,4
 105 -217 105 -217 32 -217 c 0,5,6
 9 -217 9 -217 -9 -213 c 128,-1,7
 -27 -209 -27 -209 -40 -204 c 1,8,-1
 -23 -142 l 1,9,10
 -14 -145 -14 -145 -2 -147.5 c 128,-1,11
 10 -150 10 -150 23 -150 c 0,12,13
 59 -150 59 -150 71 -125 c 128,-1,14
 83 -100 83 -100 83 -55 c 2,15,-1
 83 486 l 1,0,-1
EndSplineSet
Validated: 1
EndChar

StartChar: uni0251
Encoding: 593 593 408
Width: 555
GlyphClass: 2
Flags: W
AnchorPoint: "Anchor-2" 283 -22 basechar 0
AnchorPoint: "Anchor-0" 282 508 basechar 0
LayerCount: 2
Fore
SplineSet
132 243 m 0,0,1
 132 155 132 155 167 106 c 128,-1,2
 202 57 202 57 266 57 c 0,3,4
 300 57 300 57 330 73.5 c 128,-1,5
 360 90 360 90 390 124 c 1,6,-1
 390 378 l 1,7,8
 359 406 359 406 330.5 417.5 c 128,-1,9
 302 429 302 429 272 429 c 0,10,11
 243 429 243 429 217.5 415.5 c 128,-1,12
 192 402 192 402 173 377.5 c 128,-1,13
 154 353 154 353 143 319 c 128,-1,14
 132 285 132 285 132 243 c 0,0,1
47 242 m 0,15,16
 47 301 47 301 64.5 348.5 c 128,-1,17
 82 396 82 396 111.5 429 c 128,-1,18
 141 462 141 462 179 480 c 128,-1,19
 217 498 217 498 259 498 c 0,20,21
 300 498 300 498 332 483 c 128,-1,22
 364 468 364 468 397 439 c 1,23,-1
 399 439 l 1,24,-1
 406 486 l 1,25,-1
 473 486 l 1,26,-1
 473 0 l 1,27,-1
 405 0 l 1,28,-1
 398 57 l 1,29,-1
 395 57 l 1,30,31
 366 29 366 29 328.5 8.5 c 128,-1,32
 291 -12 291 -12 248 -12 c 0,33,34
 156 -12 156 -12 101.5 54 c 128,-1,35
 47 120 47 120 47 242 c 0,15,16
EndSplineSet
Validated: 1
EndChar

StartChar: uni0259
Encoding: 601 601 409
Width: 496
GlyphClass: 2
Flags: W
AnchorPoint: "Anchor-4" 240 0 basechar 0
AnchorPoint: "Anchor-2" 240 -22 basechar 0
AnchorPoint: "Anchor-0" 242 508 basechar 0
LayerCount: 2
Fore
SplineSet
37 222 m 0,0,1
 37 236 37 236 38 247.5 c 128,-1,2
 39 259 39 259 41 268 c 1,3,-1
 368 268 l 1,4,5
 364 343 364 343 326.5 388 c 128,-1,6
 289 433 289 433 223 433 c 0,7,8
 186 433 186 433 156 421.5 c 128,-1,9
 126 410 126 410 97 391 c 1,10,-1
 68 445 l 1,11,12
 102 468 102 468 143.5 483 c 128,-1,13
 185 498 185 498 236 498 c 0,14,15
 282 498 282 498 321 481 c 128,-1,16
 360 464 360 464 388.5 431 c 128,-1,17
 417 398 417 398 433.5 351 c 128,-1,18
 450 304 450 304 450 244 c 256,19,20
 450 184 450 184 433.5 136.5 c 128,-1,21
 417 89 417 89 388.5 56 c 128,-1,22
 360 23 360 23 321 5.5 c 128,-1,23
 282 -12 282 -12 238 -12 c 0,24,25
 192 -12 192 -12 155 4 c 128,-1,26
 118 20 118 20 91.5 50.5 c 128,-1,27
 65 81 65 81 51 124.5 c 128,-1,28
 37 168 37 168 37 222 c 0,0,1
110 213 m 1,29,30
 110 132 110 132 144 93 c 128,-1,31
 178 54 178 54 236 54 c 0,32,33
 293 54 293 54 327.5 95 c 128,-1,34
 362 136 362 136 369 213 c 1,35,-1
 110 213 l 1,29,30
EndSplineSet
Validated: 1
Substitution2: "'sups' Superscript in Latin lookup 16 subtable" uni0259.sups
Substitution2: "'smcp' Lowercase to Small Capitals in Latin lookup 11 subtable" uni018F.sc
AlternateSubs2: "'aalt' Access All Alternates in Latin lookup 1 subtable" uni018F.sc uni0259.sups
EndChar

StartChar: uni0261
Encoding: 609 609 410
Width: 559
GlyphClass: 2
Flags: W
AnchorPoint: "Anchor-2" 274 -221 basechar 0
AnchorPoint: "Anchor-0" 286 508 basechar 0
LayerCount: 2
Fore
SplineSet
115 -105 m 1,0,1
 151 -129 151 -129 187.5 -139.5 c 128,-1,2
 224 -150 224 -150 259 -150 c 0,3,4
 326 -150 326 -150 358.5 -115.5 c 128,-1,5
 391 -81 391 -81 393 -22 c 1,6,-1
 394 70 l 1,7,8
 366 43 366 43 329.5 24 c 128,-1,9
 293 5 293 5 250 5 c 0,10,11
 204 5 204 5 167 22 c 128,-1,12
 130 39 130 39 104 70.5 c 128,-1,13
 78 102 78 102 64 147.5 c 128,-1,14
 50 193 50 193 50 250 c 256,15,16
 50 307 50 307 67.5 353 c 128,-1,17
 85 399 85 399 114 431 c 128,-1,18
 143 463 143 463 181.5 480.5 c 128,-1,19
 220 498 220 498 261 498 c 0,20,21
 303 498 303 498 334.5 483.5 c 128,-1,22
 366 469 366 469 397 441 c 1,23,-1
 399 441 l 1,24,-1
 406 486 l 1,25,-1
 475 486 l 1,26,-1
 475 -24 l 2,27,28
 475 -115 475 -115 419 -165.5 c 128,-1,29
 363 -216 363 -216 259 -216 c 0,30,31
 214 -216 214 -216 168.5 -202.5 c 128,-1,32
 123 -189 123 -189 85 -163 c 1,33,-1
 115 -105 l 1,0,1
268 73 m 0,34,35
 302 73 302 73 331.5 89.5 c 128,-1,36
 361 106 361 106 393 140 c 1,37,-1
 393 378 l 1,38,39
 361 406 361 406 332.5 417.5 c 128,-1,40
 304 429 304 429 274 429 c 0,41,42
 245 429 245 429 219.5 416 c 128,-1,43
 194 403 194 403 175 379 c 128,-1,44
 156 355 156 355 145 322.5 c 128,-1,45
 134 290 134 290 134 251 c 0,46,47
 134 169 134 169 169 121 c 128,-1,48
 204 73 204 73 268 73 c 0,34,35
EndSplineSet
Validated: 1
EndChar

StartChar: f_f
Encoding: 64256 64256 411
Width: 574
GlyphClass: 3
Flags: W
LayerCount: 2
Fore
SplineSet
586 645 m 1,0,1
 557 657 557 657 531 657 c 0,2,3
 462 657 462 657 462 563 c 2,4,-1
 462 486 l 1,5,-1
 565 486 l 1,6,-1
 565 419 l 1,7,-1
 462 419 l 1,8,-1
 462 0 l 1,9,-1
 380 0 l 1,10,-1
 380 419 l 1,11,-1
 178 419 l 1,12,-1
 178 0 l 1,13,-1
 96 0 l 1,14,-1
 96 419 l 1,15,-1
 30 419 l 1,16,-1
 30 481 l 1,17,-1
 96 486 l 1,18,-1
 96 550 l 2,19,20
 96 626 96 626 133.5 670 c 128,-1,21
 171 714 171 714 247 714 c 0,22,23
 271 714 271 714 294.5 709 c 128,-1,24
 318 704 318 704 336 696 c 1,25,-1
 319 634 l 1,26,27
 289 647 289 647 254 647 c 0,28,29
 218 647 218 647 198 621.5 c 128,-1,30
 178 596 178 596 178 548 c 2,31,-1
 178 486 l 1,32,-1
 380 486 l 1,33,-1
 380 563 l 2,34,35
 380 638 380 638 414.5 681 c 128,-1,36
 449 724 449 724 522 724 c 0,37,38
 545 724 545 724 565.5 719.5 c 128,-1,39
 586 715 586 715 603 708 c 1,40,-1
 586 645 l 1,0,1
EndSplineSet
Validated: 1
Ligature2: "'liga' Standard Ligatures in Latin lookup 30 subtable" f f
EndChar

StartChar: f_t
Encoding: 1114117 -1 414
Width: 594
GlyphClass: 3
Flags: W
LayerCount: 2
Fore
SplineSet
581 6 m 1,0,1
 561 -1 561 -1 537.5 -6.5 c 128,-1,2
 514 -12 514 -12 491 -12 c 0,3,4
 452 -12 452 -12 425.5 0 c 128,-1,5
 399 12 399 12 382.5 33 c 128,-1,6
 366 54 366 54 359 84 c 128,-1,7
 352 114 352 114 352 150 c 2,8,-1
 352 419 l 1,9,-1
 178 419 l 1,10,-1
 178 0 l 1,11,-1
 96 0 l 1,12,-1
 96 419 l 1,13,-1
 30 419 l 1,14,-1
 30 481 l 1,15,-1
 96 486 l 1,16,-1
 96 563 l 2,17,18
 96 638 96 638 130.5 681 c 128,-1,19
 165 724 165 724 238 724 c 0,20,21
 261 724 261 724 281.5 719.5 c 128,-1,22
 302 715 302 715 319 708 c 1,23,-1
 301 645 l 1,24,25
 274 657 274 657 246 657 c 0,26,27
 178 657 178 657 178 563 c 2,28,-1
 178 486 l 1,29,-1
 356 486 l 1,30,-1
 366 622 l 1,31,-1
 434 622 l 1,32,-1
 434 486 l 1,33,-1
 566 486 l 1,34,-1
 566 419 l 1,35,-1
 434 419 l 1,36,-1
 434 149 l 2,37,38
 434 104 434 104 451 79.5 c 128,-1,39
 468 55 468 55 510 55 c 0,40,41
 523 55 523 55 538 59 c 128,-1,42
 553 63 553 63 565 68 c 1,43,-1
 581 6 l 1,0,1
EndSplineSet
Validated: 1
Ligature2: "'liga' Standard Ligatures in Latin lookup 30 subtable" f t
EndChar

StartChar: I.a
Encoding: 1114118 -1 415
Width: 344
GlyphClass: 2
Flags: W
AnchorPoint: "Anchor-4" 148 0 basechar 0
AnchorPoint: "Anchor-2" 173 -22 basechar 0
AnchorPoint: "Anchor-0" 171 678 basechar 0
LayerCount: 2
Fore
SplineSet
46 71 m 1,0,-1
 130 71 l 1,1,-1
 130 586 l 1,2,-1
 46 586 l 1,3,-1
 46 656 l 1,4,-1
 296 656 l 1,5,-1
 296 586 l 1,6,-1
 213 586 l 1,7,-1
 213 71 l 1,8,-1
 296 71 l 1,9,-1
 296 0 l 1,10,-1
 46 0 l 1,11,-1
 46 71 l 1,0,-1
EndSplineSet
Validated: 1
EndChar

StartChar: Iogonek.a
Encoding: 1114129 -1 426
Width: 344
GlyphClass: 2
Flags: W
AnchorPoint: "Anchor-0" 171 678 basechar 0
LayerCount: 2
Fore
SplineSet
46 71 m 1,0,-1
 130 71 l 1,1,-1
 130 586 l 1,2,-1
 46 586 l 1,3,-1
 46 656 l 1,4,-1
 296 656 l 1,5,-1
 296 586 l 1,6,-1
 213 586 l 1,7,-1
 213 71 l 1,8,-1
 296 71 l 1,9,-1
 296 0 l 1,10,-1
 209 0 l 1,11,12
 180 -23 180 -23 163 -50.5 c 128,-1,13
 146 -78 146 -78 146 -107 c 0,14,15
 146 -130 146 -130 161 -141.5 c 128,-1,16
 176 -153 176 -153 194 -153 c 0,17,18
 206 -153 206 -153 215.5 -149.5 c 128,-1,19
 225 -146 225 -146 234 -139 c 1,20,-1
 257 -184 l 1,21,22
 243 -195 243 -195 220 -203.5 c 128,-1,23
 197 -212 197 -212 177 -212 c 0,24,25
 138 -212 138 -212 110 -190 c 128,-1,26
 82 -168 82 -168 82 -125 c 0,27,28
 82 -84 82 -84 104 -52 c 128,-1,29
 126 -20 126 -20 150 0 c 1,30,-1
 46 0 l 1,31,-1
 46 71 l 1,0,-1
EndSplineSet
Validated: 1
EndChar

StartChar: aogonek.a
Encoding: 1114152 -1 449
Width: 555
GlyphClass: 2
Flags: W
AnchorPoint: "Anchor-0" 282 508 basechar 0
LayerCount: 2
Fore
SplineSet
132 243 m 0,0,1
 132 155 132 155 167 106 c 128,-1,2
 202 57 202 57 266 57 c 0,3,4
 300 57 300 57 330 73.5 c 128,-1,5
 360 90 360 90 390 124 c 1,6,-1
 390 378 l 1,7,8
 359 406 359 406 330.5 417.5 c 128,-1,9
 302 429 302 429 272 429 c 0,10,11
 243 429 243 429 217.5 415.5 c 128,-1,12
 192 402 192 402 173 377.5 c 128,-1,13
 154 353 154 353 143 319 c 128,-1,14
 132 285 132 285 132 243 c 0,0,1
47 242 m 0,15,16
 47 301 47 301 64.5 348.5 c 128,-1,17
 82 396 82 396 111.5 429 c 128,-1,18
 141 462 141 462 179 480 c 128,-1,19
 217 498 217 498 259 498 c 0,20,21
 300 498 300 498 332 483 c 128,-1,22
 364 468 364 468 397 439 c 1,23,-1
 399 439 l 1,24,-1
 406 486 l 1,25,-1
 473 486 l 1,26,-1
 473 0 l 1,27,28
 428 -22 428 -22 407 -49 c 128,-1,29
 386 -76 386 -76 386 -105 c 0,30,31
 386 -128 386 -128 400 -139.5 c 128,-1,32
 414 -151 414 -151 432 -151 c 0,33,34
 444 -151 444 -151 454 -147.5 c 128,-1,35
 464 -144 464 -144 473 -138 c 1,36,-1
 494 -179 l 1,37,38
 480 -190 480 -190 457.5 -198 c 128,-1,39
 435 -206 435 -206 416 -206 c 0,40,41
 378 -206 378 -206 351.5 -184.5 c 128,-1,42
 325 -163 325 -163 325 -121 c 0,43,44
 325 -80 325 -80 349 -49.5 c 128,-1,45
 373 -19 373 -19 405 4 c 1,46,-1
 398 57 l 1,47,-1
 395 57 l 1,48,49
 366 29 366 29 328.5 8.5 c 128,-1,50
 291 -12 291 -12 248 -12 c 0,51,52
 156 -12 156 -12 101.5 54 c 128,-1,53
 47 120 47 120 47 242 c 0,15,16
EndSplineSet
Validated: 1
EndChar

StartChar: l.a
Encoding: 1114161 -1 458
Width: 246
GlyphClass: 2
Flags: W
AnchorPoint: "Anchor-2" 123 -22 basechar 0
AnchorPoint: "Anchor-0" 123 730 basechar 0
LayerCount: 2
Fore
SplineSet
82 712 m 1,0,-1
 164 712 l 1,1,-1
 164 0 l 1,2,-1
 82 0 l 1,3,-1
 82 712 l 1,0,-1
EndSplineSet
Validated: 1
EndChar

StartChar: lslash.a
Encoding: 1114169 -1 466
Width: 257
Flags: W
LayerCount: 2
Fore
SplineSet
239 419 m 1,0,-1
 164 371 l 1,1,-1
 164 0 l 1,2,-1
 82 0 l 1,3,-1
 82 329 l 1,4,-1
 23 291 l 1,5,-1
 23 361 l 1,6,-1
 82 399 l 1,7,-1
 82 712 l 1,8,-1
 164 712 l 1,9,-1
 164 441 l 1,10,-1
 239 489 l 1,11,-1
 239 419 l 1,0,-1
EndSplineSet
Validated: 1
EndChar

StartChar: ampersand
Encoding: 38 38 468
Width: 609
Flags: W
LayerCount: 2
Fore
SplineSet
112 175 m 0,0,1
 112 148 112 148 122 125.5 c 128,-1,2
 132 103 132 103 149.5 87 c 128,-1,3
 167 71 167 71 190.5 62.5 c 128,-1,4
 214 54 214 54 241 54 c 0,5,6
 275 54 275 54 306 68 c 128,-1,7
 337 82 337 82 366 107 c 1,8,9
 318 149 318 149 273.5 199 c 128,-1,10
 229 249 229 249 194 302 c 1,11,12
 159 274 159 274 135.5 243.5 c 128,-1,13
 112 213 112 213 112 175 c 0,0,1
189 514 m 0,14,15
 189 487 189 487 197.5 458 c 128,-1,16
 206 429 206 429 220 399 c 1,17,18
 242 414 242 414 262.5 429.5 c 128,-1,19
 283 445 283 445 298.5 461.5 c 128,-1,20
 314 478 314 478 323 496.5 c 128,-1,21
 332 515 332 515 332 537 c 0,22,23
 332 566 332 566 317.5 587.5 c 128,-1,24
 303 609 303 609 270 609 c 0,25,26
 233 609 233 609 211 582 c 128,-1,27
 189 555 189 555 189 514 c 0,14,15
572 -12 m 1,28,29
 537 -2 537 -2 499 16.5 c 128,-1,30
 461 35 461 35 421 63 c 1,31,32
 383 29 383 29 336.5 8.5 c 128,-1,33
 290 -12 290 -12 232 -12 c 0,34,35
 187 -12 187 -12 150.5 1.5 c 128,-1,36
 114 15 114 15 87.5 39 c 128,-1,37
 61 63 61 63 46.5 96.5 c 128,-1,38
 32 130 32 130 32 170 c 0,39,40
 32 203 32 203 42.5 230 c 128,-1,41
 53 257 53 257 71 280 c 128,-1,42
 89 303 89 303 112.5 322.5 c 128,-1,43
 136 342 136 342 161 359 c 1,44,45
 141 400 141 400 129.5 438.5 c 128,-1,46
 118 477 118 477 118 513 c 0,47,48
 118 546 118 546 129 574 c 128,-1,49
 140 602 140 602 160 623 c 128,-1,50
 180 644 180 644 208 656 c 128,-1,51
 236 668 236 668 270 668 c 0,52,53
 331 668 331 668 365 632 c 128,-1,54
 399 596 399 596 399 538 c 0,55,56
 399 506 399 506 386 479 c 128,-1,57
 373 452 373 452 352 428.5 c 128,-1,58
 331 405 331 405 304.5 384.5 c 128,-1,59
 278 364 278 364 251 344 c 1,60,61
 283 293 283 293 326.5 246 c 128,-1,62
 370 199 370 199 417 160 c 1,63,64
 447 201 447 201 470.5 249 c 128,-1,65
 494 297 494 297 509 354 c 1,66,-1
 586 354 l 1,67,68
 566 289 566 289 538 230 c 128,-1,69
 510 171 510 171 471 119 c 1,70,71
 505 96 505 96 536 80 c 128,-1,72
 567 64 567 64 594 56 c 1,73,-1
 572 -12 l 1,28,29
EndSplineSet
Validated: 1
Substitution2: "'smcp' Lowercase to Small Capitals in Latin lookup 10 subtable" ampersand.sc
Substitution2: "'aalt' Access All Alternates in Latin lookup 0 subtable" ampersand.sc
EndChar

StartChar: zero
Encoding: 48 48 469
Width: 497
Flags: W
LayerCount: 2
Fore
SplineSet
249 -12 m 0,0,1
 152 -12 152 -12 98 74 c 128,-1,2
 44 160 44 160 44 321 c 256,3,4
 44 482 44 482 98 566 c 128,-1,5
 152 650 152 650 249 650 c 0,6,7
 345 650 345 650 399 566 c 128,-1,8
 453 482 453 482 453 321 c 256,9,10
 453 160 453 160 399 74 c 128,-1,11
 345 -12 345 -12 249 -12 c 0,0,1
249 54 m 0,12,13
 277 54 277 54 299.5 69.5 c 128,-1,14
 322 85 322 85 338.5 117.5 c 128,-1,15
 355 150 355 150 364 200.5 c 128,-1,16
 373 251 373 251 373 321 c 256,17,18
 373 391 373 391 364 441 c 128,-1,19
 355 491 355 491 338.5 522.5 c 128,-1,20
 322 554 322 554 299.5 569 c 128,-1,21
 277 584 277 584 249 584 c 256,22,23
 221 584 221 584 198 569 c 128,-1,24
 175 554 175 554 158.5 522.5 c 128,-1,25
 142 491 142 491 133 441 c 128,-1,26
 124 391 124 391 124 321 c 0,27,28
 124 181 124 181 158.5 117.5 c 128,-1,29
 193 54 193 54 249 54 c 0,12,13
EndSplineSet
Validated: 1
Substitution2: "'zero' Slashed Zero in Latin lookup 24 subtable" zero.0
Substitution2: "'ss05' Style Set 5 in Latin lookup 23 subtable" zero.0s
Substitution2: "'onum' Oldstyle Figures in Latin lookup 22 subtable" zero.tnum
Substitution2: "'pnum' Proportional Numbers in Latin lookup 21 subtable" zero.pnum
Substitution2: "'subs' Subscript in Latin lookup 20 subtable" zero.subs
Substitution2: "'sups' Superscript in Latin lookup 18 subtable" zero.sups
Substitution2: "'dnom' Denominators in Latin lookup 13 subtable" zero.dnom
Substitution2: "'numr' Numerators in Latin lookup 12 subtable" zero.numr
Substitution2: "'smcp' Lowercase to Small Capitals in Latin lookup 10 subtable" zero.sc
AlternateSubs2: "'aalt' Access All Alternates in Latin lookup 1 subtable" zero.sc zero.numr zero.dnom zero.sups zero.subs zero.pnum zero.tnum
EndChar

StartChar: one
Encoding: 49 49 470
Width: 497
Flags: W
LayerCount: 2
Fore
SplineSet
79 68 m 1,0,-1
 225 68 l 1,1,-1
 225 538 l 1,2,-1
 109 538 l 1,3,-1
 109 591 l 1,4,5
 153 599 153 599 185.5 610.5 c 128,-1,6
 218 622 218 622 244 638 c 1,7,-1
 307 638 l 1,8,-1
 307 68 l 1,9,-1
 439 68 l 1,10,-1
 439 0 l 1,11,-1
 79 0 l 1,12,-1
 79 68 l 1,0,-1
EndSplineSet
Validated: 1
Substitution2: "'onum' Oldstyle Figures in Latin lookup 22 subtable" one.tnum
Substitution2: "'pnum' Proportional Numbers in Latin lookup 21 subtable" one.pnum
Substitution2: "'subs' Subscript in Latin lookup 20 subtable" one.subs
Substitution2: "'sups' Superscript in Latin lookup 18 subtable" one.sups
Substitution2: "'dnom' Denominators in Latin lookup 13 subtable" one.dnom
Substitution2: "'numr' Numerators in Latin lookup 12 subtable" one.numr
Substitution2: "'smcp' Lowercase to Small Capitals in Latin lookup 10 subtable" one.sc
AlternateSubs2: "'aalt' Access All Alternates in Latin lookup 1 subtable" one.sc one.numr one.dnom one.sups one.subs one.pnum one.tnum
EndChar

StartChar: two
Encoding: 50 50 471
Width: 497
Flags: W
LayerCount: 2
Fore
SplineSet
40 49 m 1,0,1
 112 121 112 121 168 179 c 128,-1,2
 224 237 224 237 262 286.5 c 128,-1,3
 300 336 300 336 320 377.5 c 128,-1,4
 340 419 340 419 340 458 c 0,5,6
 340 513 340 513 310 548 c 128,-1,7
 280 583 280 583 219 583 c 0,8,9
 179 583 179 583 145 560.5 c 128,-1,10
 111 538 111 538 83 506 c 1,11,-1
 36 553 l 1,12,13
 76 597 76 597 121 623.5 c 128,-1,14
 166 650 166 650 229 650 c 0,15,16
 318 650 318 650 369 598.5 c 128,-1,17
 420 547 420 547 420 462 c 0,18,19
 420 417 420 417 400.5 371.5 c 128,-1,20
 381 326 381 326 346.5 277.5 c 128,-1,21
 312 229 312 229 264.5 176.5 c 128,-1,22
 217 124 217 124 160 65 c 1,23,24
 186 67 186 67 214 69 c 128,-1,25
 242 71 242 71 267 71 c 2,26,-1
 452 71 l 1,27,-1
 452 0 l 1,28,-1
 40 0 l 1,29,-1
 40 49 l 1,0,1
EndSplineSet
Validated: 1
Substitution2: "'onum' Oldstyle Figures in Latin lookup 22 subtable" two.tnum
Substitution2: "'pnum' Proportional Numbers in Latin lookup 21 subtable" two.pnum
Substitution2: "'subs' Subscript in Latin lookup 20 subtable" two.subs
Substitution2: "'sups' Superscript in Latin lookup 18 subtable" two.sups
Substitution2: "'dnom' Denominators in Latin lookup 13 subtable" two.dnom
Substitution2: "'numr' Numerators in Latin lookup 12 subtable" two.numr
Substitution2: "'smcp' Lowercase to Small Capitals in Latin lookup 10 subtable" two.sc
AlternateSubs2: "'aalt' Access All Alternates in Latin lookup 1 subtable" two.sc two.numr two.dnom two.sups two.subs two.pnum two.tnum
EndChar

StartChar: three
Encoding: 51 51 472
Width: 497
Flags: W
LayerCount: 2
Fore
SplineSet
68 132 m 1,0,1
 97 102 97 102 135.5 79 c 128,-1,2
 174 56 174 56 231 56 c 0,3,4
 289 56 289 56 326 87.5 c 128,-1,5
 363 119 363 119 363 173 c 0,6,7
 363 201 363 201 352.5 224.5 c 128,-1,8
 342 248 342 248 318 265 c 128,-1,9
 294 282 294 282 255 291 c 128,-1,10
 216 300 216 300 159 300 c 1,11,-1
 159 363 l 1,12,13
 210 363 210 363 244.5 372 c 128,-1,14
 279 381 279 381 300.5 397 c 128,-1,15
 322 413 322 413 331 435 c 128,-1,16
 340 457 340 457 340 482 c 0,17,18
 340 529 340 529 310.5 556 c 128,-1,19
 281 583 281 583 230 583 c 0,20,21
 190 583 190 583 156.5 565 c 128,-1,22
 123 547 123 547 94 518 c 1,23,-1
 50 570 l 1,24,25
 87 605 87 605 131.5 627.5 c 128,-1,26
 176 650 176 650 233 650 c 0,27,28
 275 650 275 650 310 639 c 128,-1,29
 345 628 345 628 370.5 607.5 c 128,-1,30
 396 587 396 587 410 557 c 128,-1,31
 424 527 424 527 424 488 c 0,32,33
 424 430 424 430 392 393 c 128,-1,34
 360 356 360 356 308 336 c 1,35,-1
 308 332 l 1,36,37
 337 325 337 325 362 311.5 c 128,-1,38
 387 298 387 298 406 277.5 c 128,-1,39
 425 257 425 257 435.5 230 c 128,-1,40
 446 203 446 203 446 170 c 0,41,42
 446 128 446 128 429.5 94 c 128,-1,43
 413 60 413 60 384.5 36.5 c 128,-1,44
 356 13 356 13 318 0.5 c 128,-1,45
 280 -12 280 -12 236 -12 c 0,46,47
 198 -12 198 -12 166.5 -4.5 c 128,-1,48
 135 3 135 3 109 15.5 c 128,-1,49
 83 28 83 28 62.5 44 c 128,-1,50
 42 60 42 60 26 78 c 1,51,-1
 68 132 l 1,0,1
EndSplineSet
Validated: 1
Substitution2: "'onum' Oldstyle Figures in Latin lookup 22 subtable" three.tnum
Substitution2: "'pnum' Proportional Numbers in Latin lookup 21 subtable" three.pnum
Substitution2: "'subs' Subscript in Latin lookup 20 subtable" three.subs
Substitution2: "'sups' Superscript in Latin lookup 18 subtable" three.sups
Substitution2: "'dnom' Denominators in Latin lookup 13 subtable" three.dnom
Substitution2: "'numr' Numerators in Latin lookup 12 subtable" three.numr
Substitution2: "'smcp' Lowercase to Small Capitals in Latin lookup 10 subtable" three.sc
AlternateSubs2: "'aalt' Access All Alternates in Latin lookup 1 subtable" three.sc three.numr three.dnom three.sups three.subs three.pnum three.tnum
EndChar

StartChar: four
Encoding: 52 52 473
Width: 497
Flags: W
LayerCount: 2
Fore
SplineSet
304 242 m 1,0,-1
 304 427 l 2,1,2
 304 453 304 453 305.5 488.5 c 128,-1,3
 307 524 307 524 309 550 c 1,4,-1
 305 550 l 1,5,6
 293 527 293 527 280 505 c 128,-1,7
 267 483 267 483 253 460 c 1,8,-1
 104 242 l 1,9,-1
 304 242 l 1,0,-1
469 176 m 1,10,-1
 382 176 l 1,11,-1
 382 0 l 1,12,-1
 304 0 l 1,13,-1
 304 176 l 1,14,-1
 17 176 l 1,15,-1
 17 230 l 1,16,-1
 290 638 l 1,17,-1
 382 638 l 1,18,-1
 382 242 l 1,19,-1
 469 242 l 1,20,-1
 469 176 l 1,10,-1
EndSplineSet
Validated: 1
Substitution2: "'onum' Oldstyle Figures in Latin lookup 22 subtable" four.tnum
Substitution2: "'pnum' Proportional Numbers in Latin lookup 21 subtable" four.pnum
Substitution2: "'subs' Subscript in Latin lookup 20 subtable" four.subs
Substitution2: "'sups' Superscript in Latin lookup 18 subtable" four.sups
Substitution2: "'dnom' Denominators in Latin lookup 13 subtable" four.dnom
Substitution2: "'numr' Numerators in Latin lookup 12 subtable" four.numr
Substitution2: "'smcp' Lowercase to Small Capitals in Latin lookup 10 subtable" four.sc
AlternateSubs2: "'aalt' Access All Alternates in Latin lookup 1 subtable" four.sc four.numr four.dnom four.sups four.subs four.pnum four.tnum
EndChar

StartChar: five
Encoding: 53 53 474
Width: 497
Flags: W
LayerCount: 2
Fore
SplineSet
65 129 m 1,0,1
 93 100 93 100 131.5 78 c 128,-1,2
 170 56 170 56 226 56 c 0,3,4
 255 56 255 56 280.5 66.5 c 128,-1,5
 306 77 306 77 325 96 c 128,-1,6
 344 115 344 115 355 142 c 128,-1,7
 366 169 366 169 366 202 c 0,8,9
 366 268 366 268 329 305 c 128,-1,10
 292 342 292 342 230 342 c 0,11,12
 197 342 197 342 173.5 332 c 128,-1,13
 150 322 150 322 121 303 c 1,14,-1
 77 331 l 1,15,-1
 98 638 l 1,16,-1
 417 638 l 1,17,-1
 417 567 l 1,18,-1
 170 567 l 1,19,-1
 153 378 l 1,20,21
 176 390 176 390 199 397 c 128,-1,22
 222 404 222 404 251 404 c 0,23,24
 292 404 292 404 328 392 c 128,-1,25
 364 380 364 380 391 355.5 c 128,-1,26
 418 331 418 331 433.5 293.5 c 128,-1,27
 449 256 449 256 449 204 c 256,28,29
 449 152 449 152 431 112 c 128,-1,30
 413 72 413 72 383 44.5 c 128,-1,31
 353 17 353 17 314.5 2.5 c 128,-1,32
 276 -12 276 -12 234 -12 c 0,33,34
 196 -12 196 -12 164.5 -4.5 c 128,-1,35
 133 3 133 3 107.5 15 c 128,-1,36
 82 27 82 27 61.5 42.5 c 128,-1,37
 41 58 41 58 25 75 c 1,38,-1
 65 129 l 1,0,1
EndSplineSet
Validated: 1
Substitution2: "'onum' Oldstyle Figures in Latin lookup 22 subtable" five.tnum
Substitution2: "'pnum' Proportional Numbers in Latin lookup 21 subtable" five.pnum
Substitution2: "'subs' Subscript in Latin lookup 20 subtable" five.subs
Substitution2: "'sups' Superscript in Latin lookup 18 subtable" five.sups
Substitution2: "'dnom' Denominators in Latin lookup 13 subtable" five.dnom
Substitution2: "'numr' Numerators in Latin lookup 12 subtable" five.numr
Substitution2: "'smcp' Lowercase to Small Capitals in Latin lookup 10 subtable" five.sc
AlternateSubs2: "'aalt' Access All Alternates in Latin lookup 1 subtable" five.sc five.numr five.dnom five.sups five.subs five.pnum five.tnum
EndChar

StartChar: six
Encoding: 54 54 475
Width: 497
Flags: W
LayerCount: 2
Fore
SplineSet
268 53 m 0,0,1
 292 53 292 53 312 63 c 128,-1,2
 332 73 332 73 347 91.5 c 128,-1,3
 362 110 362 110 370.5 135.5 c 128,-1,4
 379 161 379 161 379 193 c 0,5,6
 379 256 379 256 350 292 c 128,-1,7
 321 328 321 328 261 328 c 0,8,9
 231 328 231 328 195.5 308.5 c 128,-1,10
 160 289 160 289 128 244 c 1,11,12
 136 150 136 150 171.5 101.5 c 128,-1,13
 207 53 207 53 268 53 c 0,0,1
399 531 m 1,14,15
 379 554 379 554 351.5 567.5 c 128,-1,16
 324 581 324 581 294 581 c 0,17,18
 261 581 261 581 231 567 c 128,-1,19
 201 553 201 553 178 521 c 128,-1,20
 155 489 155 489 141 437.5 c 128,-1,21
 127 386 127 386 126 310 c 1,22,23
 156 347 156 347 196 368.5 c 128,-1,24
 236 390 236 390 275 390 c 0,25,26
 358 390 358 390 407.5 341 c 128,-1,27
 457 292 457 292 457 193 c 0,28,29
 457 147 457 147 442 109.5 c 128,-1,30
 427 72 427 72 401 45 c 128,-1,31
 375 18 375 18 341 3 c 128,-1,32
 307 -12 307 -12 268 -12 c 0,33,34
 221 -12 221 -12 181 7 c 128,-1,35
 141 26 141 26 111.5 64.5 c 128,-1,36
 82 103 82 103 65 160.5 c 128,-1,37
 48 218 48 218 48 295 c 0,38,39
 48 391 48 391 68 458.5 c 128,-1,40
 88 526 88 526 122 568.5 c 128,-1,41
 156 611 156 611 199.5 630.5 c 128,-1,42
 243 650 243 650 291 650 c 0,43,44
 343 650 343 650 380.5 630.5 c 128,-1,45
 418 611 418 611 445 582 c 1,46,-1
 399 531 l 1,14,15
EndSplineSet
Validated: 1
Substitution2: "'onum' Oldstyle Figures in Latin lookup 22 subtable" six.tnum
Substitution2: "'pnum' Proportional Numbers in Latin lookup 21 subtable" six.pnum
Substitution2: "'subs' Subscript in Latin lookup 20 subtable" six.subs
Substitution2: "'sups' Superscript in Latin lookup 18 subtable" six.sups
Substitution2: "'dnom' Denominators in Latin lookup 13 subtable" six.dnom
Substitution2: "'numr' Numerators in Latin lookup 12 subtable" six.numr
Substitution2: "'smcp' Lowercase to Small Capitals in Latin lookup 10 subtable" six.sc
AlternateSubs2: "'aalt' Access All Alternates in Latin lookup 1 subtable" six.sc six.numr six.dnom six.sups six.subs six.pnum six.tnum
EndChar

StartChar: seven
Encoding: 55 55 476
Width: 497
Flags: W
LayerCount: 2
Fore
SplineSet
177 0 m 1,0,1
 181 90 181 90 193 165 c 128,-1,2
 205 240 205 240 226.5 307.5 c 128,-1,3
 248 375 248 375 281.5 438 c 128,-1,4
 315 501 315 501 362 567 c 1,5,-1
 44 567 l 1,6,-1
 44 638 l 1,7,-1
 455 638 l 1,8,-1
 455 587 l 1,9,10
 398 515 398 515 362.5 449 c 128,-1,11
 327 383 327 383 306 314.5 c 128,-1,12
 285 246 285 246 275.5 169.5 c 128,-1,13
 266 93 266 93 262 0 c 1,14,-1
 177 0 l 1,15,-1
 177 0 l 1,0,1
EndSplineSet
Validated: 5
Substitution2: "'onum' Oldstyle Figures in Latin lookup 22 subtable" seven.tnum
Substitution2: "'pnum' Proportional Numbers in Latin lookup 21 subtable" seven.pnum
Substitution2: "'subs' Subscript in Latin lookup 20 subtable" seven.subs
Substitution2: "'sups' Superscript in Latin lookup 18 subtable" seven.sups
Substitution2: "'dnom' Denominators in Latin lookup 13 subtable" seven.dnom
Substitution2: "'numr' Numerators in Latin lookup 12 subtable" seven.numr
Substitution2: "'smcp' Lowercase to Small Capitals in Latin lookup 10 subtable" seven.sc
AlternateSubs2: "'aalt' Access All Alternates in Latin lookup 1 subtable" seven.sc seven.numr seven.dnom seven.sups seven.subs seven.pnum seven.tnum
EndChar

StartChar: eight
Encoding: 56 56 477
Width: 497
Flags: W
LayerCount: 2
Fore
SplineSet
115 171 m 0,0,1
 115 144 115 144 125.5 122 c 128,-1,2
 136 100 136 100 154.5 83.5 c 128,-1,3
 173 67 173 67 198 58 c 128,-1,4
 223 49 223 49 252 49 c 0,5,6
 308 49 308 49 342.5 80 c 128,-1,7
 377 111 377 111 377 161 c 0,8,9
 377 192 377 192 363 214 c 128,-1,10
 349 236 349 236 325 252.5 c 128,-1,11
 301 269 301 269 269.5 282.5 c 128,-1,12
 238 296 238 296 204 310 c 1,13,14
 166 284 166 284 140.5 249.5 c 128,-1,15
 115 215 115 215 115 171 c 0,0,1
295 348 m 1,16,17
 327 377 327 377 344.5 409 c 128,-1,18
 362 441 362 441 362 476 c 0,19,20
 362 524 362 524 333 556.5 c 128,-1,21
 304 589 304 589 251 589 c 0,22,23
 206 589 206 589 177 561 c 128,-1,24
 148 533 148 533 148 486 c 0,25,26
 148 457 148 457 160 436.5 c 128,-1,27
 172 416 172 416 192.5 400 c 128,-1,28
 213 384 213 384 239.5 371.5 c 128,-1,29
 266 359 266 359 295 348 c 1,16,17
41 163 m 0,30,31
 41 194 41 194 51.5 220.5 c 128,-1,32
 62 247 62 247 78.5 268.5 c 128,-1,33
 95 290 95 290 116.5 306.5 c 128,-1,34
 138 323 138 323 161 335 c 1,35,-1
 161 339 l 1,36,37
 126 364 126 364 99 399.5 c 128,-1,38
 72 435 72 435 72 486 c 0,39,40
 72 523 72 523 86 553 c 128,-1,41
 100 583 100 583 124 604.5 c 128,-1,42
 148 626 148 626 181 638 c 128,-1,43
 214 650 214 650 253 650 c 0,44,45
 295 650 295 650 328 637.5 c 128,-1,46
 361 625 361 625 384.5 602.5 c 128,-1,47
 408 580 408 580 420.5 548.5 c 128,-1,48
 433 517 433 517 433 480 c 0,49,50
 433 455 433 455 424.5 432 c 128,-1,51
 416 409 416 409 403.5 389 c 128,-1,52
 391 369 391 369 375.5 353 c 128,-1,53
 360 337 360 337 345 326 c 1,54,-1
 345 322 l 1,55,56
 366 310 366 310 386 294.5 c 128,-1,57
 406 279 406 279 421.5 259.5 c 128,-1,58
 437 240 437 240 446.5 215 c 128,-1,59
 456 190 456 190 456 158 c 0,60,61
 456 122 456 122 441 91 c 128,-1,62
 426 60 426 60 399 37 c 128,-1,63
 372 14 372 14 334 1 c 128,-1,64
 296 -12 296 -12 250 -12 c 0,65,66
 205 -12 205 -12 166.5 1 c 128,-1,67
 128 14 128 14 100.5 37.5 c 128,-1,68
 73 61 73 61 57 93 c 128,-1,69
 41 125 41 125 41 163 c 0,30,31
EndSplineSet
Validated: 1
Substitution2: "'onum' Oldstyle Figures in Latin lookup 22 subtable" eight.tnum
Substitution2: "'pnum' Proportional Numbers in Latin lookup 21 subtable" eight.pnum
Substitution2: "'subs' Subscript in Latin lookup 20 subtable" eight.subs
Substitution2: "'sups' Superscript in Latin lookup 18 subtable" eight.sups
Substitution2: "'dnom' Denominators in Latin lookup 13 subtable" eight.dnom
Substitution2: "'numr' Numerators in Latin lookup 12 subtable" eight.numr
Substitution2: "'smcp' Lowercase to Small Capitals in Latin lookup 10 subtable" eight.sc
AlternateSubs2: "'aalt' Access All Alternates in Latin lookup 1 subtable" eight.sc eight.numr eight.dnom eight.sups eight.subs eight.pnum eight.tnum
EndChar

StartChar: nine
Encoding: 57 57 478
Width: 497
Flags: W
LayerCount: 2
Fore
SplineSet
235 310 m 0,0,1
 266 310 266 310 301.5 329.5 c 128,-1,2
 337 349 337 349 369 395 c 1,3,4
 361 489 361 489 325 537 c 128,-1,5
 289 585 289 585 228 585 c 0,6,7
 205 585 205 585 184.5 575 c 128,-1,8
 164 565 164 565 149 546.5 c 128,-1,9
 134 528 134 528 125.5 502 c 128,-1,10
 117 476 117 476 117 445 c 0,11,12
 117 382 117 382 146 346 c 128,-1,13
 175 310 175 310 235 310 c 0,0,1
97 107 m 1,14,15
 117 84 117 84 144.5 70 c 128,-1,16
 172 56 172 56 202 56 c 0,17,18
 236 56 236 56 266 70 c 128,-1,19
 296 84 296 84 319 116.5 c 128,-1,20
 342 149 342 149 356 201 c 128,-1,21
 370 253 370 253 371 330 c 1,22,23
 341 292 341 292 301 270 c 128,-1,24
 261 248 261 248 221 248 c 0,25,26
 138 248 138 248 89 297 c 128,-1,27
 40 346 40 346 40 445 c 0,28,29
 40 491 40 491 55 528.5 c 128,-1,30
 70 566 70 566 95.5 593 c 128,-1,31
 121 620 121 620 155.5 635 c 128,-1,32
 190 650 190 650 228 650 c 0,33,34
 275 650 275 650 315.5 631 c 128,-1,35
 356 612 356 612 385.5 573.5 c 128,-1,36
 415 535 415 535 431.5 477.5 c 128,-1,37
 448 420 448 420 448 343 c 0,38,39
 448 247 448 247 428 179.5 c 128,-1,40
 408 112 408 112 374 69.5 c 128,-1,41
 340 27 340 27 296.5 7.5 c 128,-1,42
 253 -12 253 -12 205 -12 c 0,43,44
 154 -12 154 -12 115.5 7 c 128,-1,45
 77 26 77 26 51 55 c 1,46,-1
 97 107 l 1,14,15
EndSplineSet
Validated: 1
Substitution2: "'onum' Oldstyle Figures in Latin lookup 22 subtable" nine.tnum
Substitution2: "'pnum' Proportional Numbers in Latin lookup 21 subtable" nine.pnum
Substitution2: "'subs' Subscript in Latin lookup 20 subtable" nine.subs
Substitution2: "'sups' Superscript in Latin lookup 18 subtable" nine.sups
Substitution2: "'dnom' Denominators in Latin lookup 13 subtable" nine.dnom
Substitution2: "'numr' Numerators in Latin lookup 12 subtable" nine.numr
Substitution2: "'smcp' Lowercase to Small Capitals in Latin lookup 10 subtable" nine.sc
AlternateSubs2: "'aalt' Access All Alternates in Latin lookup 1 subtable" nine.sc nine.numr nine.dnom nine.sups nine.subs nine.pnum nine.tnum
EndChar

StartChar: zero.pnum
Encoding: 1114171 -1 479
Width: 538
Flags: W
LayerCount: 2
Fore
SplineSet
269 -12 m 256,0,1
 219 -12 219 -12 179.5 10.5 c 128,-1,2
 140 33 140 33 112 75.5 c 128,-1,3
 84 118 84 118 69.5 180 c 128,-1,4
 55 242 55 242 55 321 c 0,5,6
 55 480 55 480 112 565 c 128,-1,7
 169 650 169 650 269 650 c 256,8,9
 369 650 369 650 426 564.5 c 128,-1,10
 483 479 483 479 483 321 c 0,11,12
 483 242 483 242 468.5 180 c 128,-1,13
 454 118 454 118 426 75.5 c 128,-1,14
 398 33 398 33 358.5 10.5 c 128,-1,15
 319 -12 319 -12 269 -12 c 256,0,1
269 56 m 256,16,17
 328 56 328 56 364 119.5 c 128,-1,18
 400 183 400 183 400 321 c 256,19,20
 400 459 400 459 364 520 c 128,-1,21
 328 581 328 581 269 581 c 256,22,23
 210 581 210 581 174 520 c 128,-1,24
 138 459 138 459 138 321 c 256,25,26
 138 183 138 183 174 119.5 c 128,-1,27
 210 56 210 56 269 56 c 256,16,17
EndSplineSet
Validated: 1
Substitution2: "'zero' Slashed Zero in Latin lookup 24 subtable" zero.0p
Substitution2: "'ss05' Style Set 5 in Latin lookup 23 subtable" zero.0ps
Substitution2: "'onum' Oldstyle Figures in Latin lookup 22 subtable" zero.onum
Substitution2: "'aalt' Access All Alternates in Latin lookup 0 subtable" zero.onum
EndChar

StartChar: one.pnum
Encoding: 1114172 -1 480
Width: 369
Flags: W
LayerCount: 2
Fore
SplineSet
167 538 m 1,0,-1
 50 538 l 1,1,-1
 50 591 l 1,2,3
 95 599 95 599 127.5 610.5 c 128,-1,4
 160 622 160 622 186 638 c 1,5,-1
 249 638 l 1,6,-1
 249 0 l 1,7,-1
 167 0 l 1,8,-1
 167 538 l 1,0,-1
EndSplineSet
Validated: 1
Substitution2: "'onum' Oldstyle Figures in Latin lookup 22 subtable" one.onum
Substitution2: "'aalt' Access All Alternates in Latin lookup 0 subtable" one.onum
EndChar

StartChar: two.pnum
Encoding: 1114173 -1 481
Width: 501
Flags: W
LayerCount: 2
Fore
SplineSet
43 49 m 1,0,1
 115 121 115 121 170 179 c 128,-1,2
 225 237 225 237 263 286.5 c 128,-1,3
 301 336 301 336 320.5 377.5 c 128,-1,4
 340 419 340 419 340 458 c 0,5,6
 340 513 340 513 311.5 548 c 128,-1,7
 283 583 283 583 221 583 c 0,8,9
 181 583 181 583 146.5 560.5 c 128,-1,10
 112 538 112 538 85 506 c 1,11,-1
 37 553 l 1,12,13
 79 599 79 599 124.5 624.5 c 128,-1,14
 170 650 170 650 231 650 c 0,15,16
 320 650 320 650 370 598.5 c 128,-1,17
 420 547 420 547 420 462 c 0,18,19
 420 417 420 417 401 371.5 c 128,-1,20
 382 326 382 326 347.5 277.5 c 128,-1,21
 313 229 313 229 266 176.5 c 128,-1,22
 219 124 219 124 164 65 c 1,23,24
 190 67 190 67 218 69 c 128,-1,25
 246 71 246 71 271 71 c 2,26,-1
 448 71 l 1,27,-1
 448 0 l 1,28,-1
 43 0 l 1,29,-1
 43 49 l 1,0,1
EndSplineSet
Validated: 1
Substitution2: "'onum' Oldstyle Figures in Latin lookup 22 subtable" two.onum
Substitution2: "'aalt' Access All Alternates in Latin lookup 0 subtable" two.onum
EndChar

StartChar: seven.pnum
Encoding: 1114178 -1 486
Width: 491
Flags: W
LayerCount: 2
Fore
SplineSet
167 0 m 1,0,1
 171 90 171 90 182.5 165 c 128,-1,2
 194 240 194 240 215 307.5 c 128,-1,3
 236 375 236 375 268.5 438 c 128,-1,4
 301 501 301 501 348 567 c 1,5,-1
 44 567 l 1,6,-1
 44 638 l 1,7,-1
 441 638 l 1,8,-1
 441 587 l 1,9,10
 385 515 385 515 350 449 c 128,-1,11
 315 383 315 383 294.5 314.5 c 128,-1,12
 274 246 274 246 265 169.5 c 128,-1,13
 256 93 256 93 252 0 c 1,14,-1
 167 0 l 1,15,-1
 167 0 l 1,0,1
EndSplineSet
Validated: 5
Substitution2: "'onum' Oldstyle Figures in Latin lookup 22 subtable" seven.onum
Substitution2: "'aalt' Access All Alternates in Latin lookup 0 subtable" seven.onum
EndChar

StartChar: zero.tnum
Encoding: 1114181 -1 489
Width: 497
Flags: W
LayerCount: 2
Fore
SplineSet
249 -12 m 256,0,1
 155 -12 155 -12 99.5 63 c 128,-1,2
 44 138 44 138 44 287 c 256,3,4
 44 436 44 436 99.5 511 c 128,-1,5
 155 586 155 586 249 586 c 256,6,7
 343 586 343 586 398 511 c 128,-1,8
 453 436 453 436 453 287 c 256,9,10
 453 138 453 138 398 63 c 128,-1,11
 343 -12 343 -12 249 -12 c 256,0,1
249 54 m 0,12,13
 308 54 308 54 340.5 115.5 c 128,-1,14
 373 177 373 177 373 287 c 256,15,16
 373 397 373 397 340.5 458 c 128,-1,17
 308 519 308 519 249 519 c 0,18,19
 189 519 189 519 156.5 458 c 128,-1,20
 124 397 124 397 124 287 c 256,21,22
 124 177 124 177 156.5 115.5 c 128,-1,23
 189 54 189 54 249 54 c 0,12,13
EndSplineSet
Validated: 1
Substitution2: "'pnum' Proportional Numbers in Latin lookup 21 subtable" zero.onum
Substitution2: "'aalt' Access All Alternates in Latin lookup 0 subtable" zero.onum
EndChar

StartChar: one.tnum
Encoding: 1114182 -1 490
Width: 497
Flags: W
LayerCount: 2
Fore
SplineSet
79 68 m 1,0,-1
 225 68 l 1,1,-1
 225 474 l 1,2,-1
 109 474 l 1,3,-1
 109 527 l 1,4,5
 153 535 153 535 185.5 546.5 c 128,-1,6
 218 558 218 558 244 574 c 1,7,-1
 307 574 l 1,8,-1
 307 68 l 1,9,-1
 439 68 l 1,10,-1
 439 0 l 1,11,-1
 79 0 l 1,12,-1
 79 68 l 1,0,-1
EndSplineSet
Validated: 1
Substitution2: "'pnum' Proportional Numbers in Latin lookup 21 subtable" one.onum
Substitution2: "'aalt' Access All Alternates in Latin lookup 0 subtable" one.onum
EndChar

StartChar: two.tnum
Encoding: 1114183 -1 491
Width: 497
Flags: W
LayerCount: 2
Fore
SplineSet
40 49 m 1,0,1
 111 108 111 108 166.5 156.5 c 128,-1,2
 222 205 222 205 260 246.5 c 128,-1,3
 298 288 298 288 318 324.5 c 128,-1,4
 338 361 338 361 338 396 c 0,5,6
 338 449 338 449 309 483 c 128,-1,7
 280 517 280 517 220 517 c 0,8,9
 179 517 179 517 145 495 c 128,-1,10
 111 473 111 473 83 441 c 1,11,-1
 36 487 l 1,12,13
 76 532 76 532 121 558 c 128,-1,14
 166 584 166 584 229 584 c 0,15,16
 317 584 317 584 367.5 533.5 c 128,-1,17
 418 483 418 483 418 399 c 0,18,19
 418 358 418 358 399.5 320 c 128,-1,20
 381 282 381 282 347.5 242 c 128,-1,21
 314 202 314 202 268.5 158.5 c 128,-1,22
 223 115 223 115 169 65 c 1,23,24
 195 67 195 67 223 69 c 128,-1,25
 251 71 251 71 276 71 c 2,26,-1
 452 71 l 1,27,-1
 452 0 l 1,28,-1
 40 0 l 1,29,-1
 40 49 l 1,0,1
EndSplineSet
Validated: 1
Substitution2: "'pnum' Proportional Numbers in Latin lookup 21 subtable" two.onum
Substitution2: "'aalt' Access All Alternates in Latin lookup 0 subtable" two.onum
EndChar

StartChar: three.tnum
Encoding: 1114184 -1 492
Width: 497
Flags: W
LayerCount: 2
Fore
SplineSet
68 58 m 1,0,1
 97 28 97 28 135.5 5.5 c 128,-1,2
 174 -17 174 -17 231 -17 c 0,3,4
 289 -17 289 -17 326 16 c 128,-1,5
 363 49 363 49 363 103 c 0,6,7
 363 131 363 131 352.5 154.5 c 128,-1,8
 342 178 342 178 318 195 c 128,-1,9
 294 212 294 212 255 221.5 c 128,-1,10
 216 231 216 231 159 231 c 1,11,-1
 159 295 l 1,12,13
 210 295 210 295 244.5 304.5 c 128,-1,14
 279 314 279 314 300.5 330.5 c 128,-1,15
 322 347 322 347 331 369 c 128,-1,16
 340 391 340 391 340 416 c 0,17,18
 340 463 340 463 310.5 491 c 128,-1,19
 281 519 281 519 230 519 c 0,20,21
 190 519 190 519 156.5 501 c 128,-1,22
 123 483 123 483 94 454 c 1,23,-1
 50 506 l 1,24,25
 87 541 87 541 131.5 563.5 c 128,-1,26
 176 586 176 586 233 586 c 0,27,28
 275 586 275 586 310 575 c 128,-1,29
 345 564 345 564 370.5 543 c 128,-1,30
 396 522 396 522 410 491.5 c 128,-1,31
 424 461 424 461 424 422 c 0,32,33
 424 364 424 364 392 325.5 c 128,-1,34
 360 287 360 287 308 268 c 1,35,-1
 308 264 l 1,36,37
 337 257 337 257 362 243 c 128,-1,38
 387 229 387 229 406 208 c 128,-1,39
 425 187 425 187 435.5 159.5 c 128,-1,40
 446 132 446 132 446 99 c 0,41,42
 446 57 446 57 429.5 22.5 c 128,-1,43
 413 -12 413 -12 384.5 -36 c 128,-1,44
 356 -60 356 -60 318 -73 c 128,-1,45
 280 -86 280 -86 236 -86 c 0,46,47
 198 -86 198 -86 166.5 -78.5 c 128,-1,48
 135 -71 135 -71 109 -58.5 c 128,-1,49
 83 -46 83 -46 62.5 -30 c 128,-1,50
 42 -14 42 -14 26 4 c 1,51,-1
 68 58 l 1,0,1
EndSplineSet
Validated: 1
Substitution2: "'pnum' Proportional Numbers in Latin lookup 21 subtable" three.onum
Substitution2: "'aalt' Access All Alternates in Latin lookup 0 subtable" three.onum
EndChar

StartChar: four.tnum
Encoding: 1114185 -1 493
Width: 497
Flags: W
LayerCount: 2
Fore
SplineSet
304 160 m 1,0,-1
 304 363 l 2,1,2
 304 389 304 389 305.5 423 c 128,-1,3
 307 457 307 457 309 483 c 1,4,-1
 305 483 l 1,5,6
 280 433 280 433 253 385 c 1,7,-1
 104 160 l 1,8,-1
 304 160 l 1,0,-1
469 94 m 1,9,-1
 382 94 l 1,10,-1
 382 -74 l 1,11,-1
 304 -74 l 1,12,-1
 304 94 l 1,13,-1
 17 94 l 1,14,-1
 17 149 l 1,15,-1
 290 574 l 1,16,-1
 382 574 l 1,17,-1
 382 160 l 1,18,-1
 469 160 l 1,19,-1
 469 94 l 1,9,-1
EndSplineSet
Validated: 1
Substitution2: "'pnum' Proportional Numbers in Latin lookup 21 subtable" four.onum
Substitution2: "'aalt' Access All Alternates in Latin lookup 0 subtable" four.onum
EndChar

StartChar: five.tnum
Encoding: 1114186 -1 494
Width: 497
Flags: W
LayerCount: 2
Fore
SplineSet
65 55 m 1,0,1
 93 27 93 27 131.5 5 c 128,-1,2
 170 -17 170 -17 226 -17 c 0,3,4
 255 -17 255 -17 280.5 -6.5 c 128,-1,5
 306 4 306 4 325 23.5 c 128,-1,6
 344 43 344 43 355 70 c 128,-1,7
 366 97 366 97 366 131 c 0,8,9
 366 198 366 198 329 235.5 c 128,-1,10
 292 273 292 273 230 273 c 0,11,12
 197 273 197 273 173.5 263.5 c 128,-1,13
 150 254 150 254 121 234 c 1,14,-1
 77 262 l 1,15,-1
 98 574 l 1,16,-1
 417 574 l 1,17,-1
 417 503 l 1,18,-1
 170 503 l 1,19,-1
 153 309 l 1,20,21
 176 321 176 321 199 328.5 c 128,-1,22
 222 336 222 336 251 336 c 0,23,24
 292 336 292 336 328 324 c 128,-1,25
 364 312 364 312 391 287 c 128,-1,26
 418 262 418 262 433.5 224 c 128,-1,27
 449 186 449 186 449 134 c 0,28,29
 449 81 449 81 431 40 c 128,-1,30
 413 -1 413 -1 383 -29 c 128,-1,31
 353 -57 353 -57 314.5 -71.5 c 128,-1,32
 276 -86 276 -86 234 -86 c 0,33,34
 196 -86 196 -86 164.5 -78.5 c 128,-1,35
 133 -71 133 -71 107.5 -58.5 c 128,-1,36
 82 -46 82 -46 61.5 -30 c 128,-1,37
 41 -14 41 -14 25 3 c 1,38,-1
 65 55 l 1,0,1
EndSplineSet
Validated: 1
Substitution2: "'pnum' Proportional Numbers in Latin lookup 21 subtable" five.onum
Substitution2: "'aalt' Access All Alternates in Latin lookup 0 subtable" five.onum
EndChar

StartChar: seven.tnum
Encoding: 1114188 -1 496
Width: 497
Flags: W
LayerCount: 2
Fore
SplineSet
177 -74 m 1,0,1
 181 17 181 17 193 93.5 c 128,-1,2
 205 170 205 170 226.5 239 c 128,-1,3
 248 308 248 308 281.5 372.5 c 128,-1,4
 315 437 315 437 362 503 c 1,5,-1
 44 503 l 1,6,-1
 44 574 l 1,7,-1
 455 574 l 1,8,-1
 455 523 l 1,9,10
 398 450 398 450 362.5 383 c 128,-1,11
 327 316 327 316 306 246 c 128,-1,12
 285 176 285 176 275.5 98 c 128,-1,13
 266 20 266 20 262 -74 c 1,14,-1
 177 -74 l 1,15,-1
 177 -74 l 1,0,1
EndSplineSet
Validated: 5
Substitution2: "'pnum' Proportional Numbers in Latin lookup 21 subtable" seven.onum
Substitution2: "'aalt' Access All Alternates in Latin lookup 0 subtable" seven.onum
EndChar

StartChar: nine.tnum
Encoding: 1114190 -1 498
Width: 497
Flags: W
LayerCount: 2
Fore
SplineSet
229 227 m 0,0,1
 263 227 263 227 300 246.5 c 128,-1,2
 337 266 337 266 370 313 c 1,3,4
 364 416 364 416 327 468.5 c 128,-1,5
 290 521 290 521 225 521 c 0,6,7
 200 521 200 521 178.5 510 c 128,-1,8
 157 499 157 499 141.5 479.5 c 128,-1,9
 126 460 126 460 117 433 c 128,-1,10
 108 406 108 406 108 373 c 0,11,12
 108 305 108 305 137 266 c 128,-1,13
 166 227 166 227 229 227 c 0,0,1
89 29 m 1,14,15
 138 -17 138 -17 200 -17 c 0,16,17
 235 -17 235 -17 265 -3.5 c 128,-1,18
 295 10 295 10 317.5 40.5 c 128,-1,19
 340 71 340 71 354 121 c 128,-1,20
 368 171 368 171 371 245 c 1,21,22
 340 207 340 207 298.5 186 c 128,-1,23
 257 165 257 165 215 165 c 0,24,25
 126 165 126 165 78 219 c 128,-1,26
 30 273 30 273 30 373 c 0,27,28
 30 420 30 420 45.5 459.5 c 128,-1,29
 61 499 61 499 87.5 527 c 128,-1,30
 114 555 114 555 149.5 570.5 c 128,-1,31
 185 586 185 586 225 586 c 0,32,33
 277 586 277 586 319 564.5 c 128,-1,34
 361 543 361 543 390 502.5 c 128,-1,35
 419 462 419 462 434.5 404.5 c 128,-1,36
 450 347 450 347 450 274 c 0,37,38
 450 182 450 182 432 114.5 c 128,-1,39
 414 47 414 47 381.5 2.5 c 128,-1,40
 349 -42 349 -42 304 -64 c 128,-1,41
 259 -86 259 -86 204 -86 c 0,42,43
 156 -86 156 -86 121 -71 c 128,-1,44
 86 -56 86 -56 54 -29 c 1,45,-1
 89 29 l 1,14,15
EndSplineSet
Validated: 1
Substitution2: "'pnum' Proportional Numbers in Latin lookup 21 subtable" nine.onum
Substitution2: "'aalt' Access All Alternates in Latin lookup 0 subtable" nine.onum
EndChar

StartChar: one.onum
Encoding: 1114192 -1 500
Width: 369
Flags: W
LayerCount: 2
Fore
SplineSet
167 474 m 1,0,-1
 50 474 l 1,1,-1
 50 527 l 1,2,3
 95 535 95 535 127.5 546.5 c 128,-1,4
 160 558 160 558 186 574 c 1,5,-1
 249 574 l 1,6,-1
 249 0 l 1,7,-1
 167 0 l 1,8,-1
 167 474 l 1,0,-1
EndSplineSet
Validated: 1
EndChar

StartChar: two.onum
Encoding: 1114193 -1 501
Width: 497
Flags: W
LayerCount: 2
Fore
SplineSet
48 49 m 1,0,1
 119 108 119 108 173 156.5 c 128,-1,2
 227 205 227 205 263 246.5 c 128,-1,3
 299 288 299 288 317 324.5 c 128,-1,4
 335 361 335 361 335 396 c 0,5,6
 335 449 335 449 307.5 483 c 128,-1,7
 280 517 280 517 220 517 c 0,8,9
 179 517 179 517 147.5 495 c 128,-1,10
 116 473 116 473 88 441 c 1,11,-1
 41 487 l 1,12,13
 81 531 81 531 124 557.5 c 128,-1,14
 167 584 167 584 229 584 c 0,15,16
 273 584 273 584 307.5 570.5 c 128,-1,17
 342 557 342 557 366 533 c 128,-1,18
 390 509 390 509 402.5 475 c 128,-1,19
 415 441 415 441 415 399 c 0,20,21
 415 358 415 358 397.5 320 c 128,-1,22
 380 282 380 282 348.5 242 c 128,-1,23
 317 202 317 202 272.5 158.5 c 128,-1,24
 228 115 228 115 174 65 c 1,25,26
 200 67 200 67 228 69 c 128,-1,27
 256 71 256 71 281 71 c 2,28,-1
 444 71 l 1,29,-1
 444 0 l 1,30,-1
 48 0 l 1,31,-1
 48 49 l 1,0,1
EndSplineSet
Validated: 1
EndChar

StartChar: seven.onum
Encoding: 1114198 -1 506
Width: 489
Flags: W
LayerCount: 2
Fore
SplineSet
165 -74 m 1,0,1
 169 17 169 17 180.5 94 c 128,-1,2
 192 171 192 171 214 239.5 c 128,-1,3
 236 308 236 308 268.5 372.5 c 128,-1,4
 301 437 301 437 348 503 c 1,5,-1
 44 503 l 1,6,-1
 44 574 l 1,7,-1
 441 574 l 1,8,-1
 441 523 l 1,9,10
 385 450 385 450 349.5 383 c 128,-1,11
 314 316 314 316 293 246 c 128,-1,12
 272 176 272 176 263 98.5 c 128,-1,13
 254 21 254 21 250 -74 c 1,14,-1
 165 -74 l 1,15,-1
 165 -74 l 1,0,1
EndSplineSet
Validated: 5
EndChar

StartChar: period
Encoding: 46 46 509
Width: 249
Flags: W
LayerCount: 2
Fore
SplineSet
65 50 m 0,0,1
 65 79 65 79 82.5 96.5 c 128,-1,2
 100 114 100 114 125 114 c 0,3,4
 149 114 149 114 166.5 96.5 c 128,-1,5
 184 79 184 79 184 50 c 0,6,7
 184 23 184 23 166.5 5.5 c 128,-1,8
 149 -12 149 -12 125 -12 c 0,9,10
 100 -12 100 -12 82.5 5.5 c 128,-1,11
 65 23 65 23 65 50 c 0,0,1
EndSplineSet
Validated: 1
Substitution2: "'subs' Subscript in Latin lookup 20 subtable" period.subs
Substitution2: "'sups' Superscript in Latin lookup 18 subtable" period.sups
Substitution2: "'dnom' Denominators in Latin lookup 13 subtable" period.dnom
Substitution2: "'numr' Numerators in Latin lookup 12 subtable" period.numr
AlternateSubs2: "'aalt' Access All Alternates in Latin lookup 1 subtable" period.numr period.dnom period.sups period.subs
EndChar

StartChar: comma
Encoding: 44 44 510
Width: 249
Flags: W
LayerCount: 2
Fore
SplineSet
47 -122 m 1,0,1
 89 -103 89 -103 113 -72 c 128,-1,2
 137 -41 137 -41 137 0 c 1,3,4
 134 -1 134 -1 127 -1 c 0,5,6
 103 -1 103 -1 85.5 13.5 c 128,-1,7
 68 28 68 28 68 56 c 0,8,9
 68 83 68 83 86 98.5 c 128,-1,10
 104 114 104 114 129 114 c 0,11,12
 161 114 161 114 179.5 88 c 128,-1,13
 198 62 198 62 198 17 c 0,14,15
 198 -48 198 -48 163 -96 c 128,-1,16
 128 -144 128 -144 67 -170 c 1,17,-1
 47 -122 l 1,0,1
EndSplineSet
Validated: 1
Substitution2: "'subs' Subscript in Latin lookup 20 subtable" comma.subs
Substitution2: "'sups' Superscript in Latin lookup 18 subtable" comma.sups
Substitution2: "'dnom' Denominators in Latin lookup 13 subtable" comma.dnom
Substitution2: "'numr' Numerators in Latin lookup 12 subtable" comma.numr
AlternateSubs2: "'aalt' Access All Alternates in Latin lookup 1 subtable" comma.numr comma.dnom comma.sups comma.subs
EndChar

StartChar: exclam
Encoding: 33 33 514
Width: 289
Flags: W
LayerCount: 2
Fore
SplineSet
105 576 m 1,0,-1
 103 670 l 1,1,-1
 186 670 l 1,2,-1
 184 576 l 1,3,-1
 173 198 l 1,4,-1
 116 198 l 1,5,-1
 105 576 l 1,0,-1
85 50 m 0,6,7
 85 79 85 79 102.5 96.5 c 128,-1,8
 120 114 120 114 145 114 c 0,9,10
 169 114 169 114 186.5 96.5 c 128,-1,11
 204 79 204 79 204 50 c 0,12,13
 204 23 204 23 186.5 5.5 c 128,-1,14
 169 -12 169 -12 145 -12 c 0,15,16
 120 -12 120 -12 102.5 5.5 c 128,-1,17
 85 23 85 23 85 50 c 0,6,7
EndSplineSet
Validated: 1
EndChar

StartChar: exclamdown
Encoding: 161 161 515
Width: 289
Flags: W
LayerCount: 2
Fore
SplineSet
184 -90 m 1,0,-1
 186 -184 l 1,1,-1
 103 -184 l 1,2,-1
 105 -90 l 1,3,-1
 116 288 l 1,4,-1
 173 288 l 1,5,-1
 184 -90 l 1,0,-1
204 436 m 0,6,7
 204 407 204 407 186.5 389.5 c 128,-1,8
 169 372 169 372 145 372 c 0,9,10
 120 372 120 372 102.5 389.5 c 128,-1,11
 85 407 85 407 85 436 c 0,12,13
 85 463 85 463 102.5 480.5 c 128,-1,14
 120 498 120 498 145 498 c 0,15,16
 169 498 169 498 186.5 480.5 c 128,-1,17
 204 463 204 463 204 436 c 0,6,7
EndSplineSet
Validated: 1
EndChar

StartChar: question
Encoding: 63 63 516
Width: 425
Flags: W
LayerCount: 2
Fore
SplineSet
160 198 m 1,0,1
 154 237 154 237 162.5 268.5 c 128,-1,2
 171 300 171 300 186 326.5 c 128,-1,3
 201 353 201 353 220.5 376 c 128,-1,4
 240 399 240 399 257 421.5 c 128,-1,5
 274 444 274 444 285.5 467 c 128,-1,6
 297 490 297 490 297 517 c 0,7,8
 297 557 297 557 272.5 585.5 c 128,-1,9
 248 614 248 614 200 614 c 0,10,11
 167 614 167 614 137.5 598.5 c 128,-1,12
 108 583 108 583 85 556 c 1,13,-1
 38 599 l 1,14,15
 70 635 70 635 111 658.5 c 128,-1,16
 152 682 152 682 206 682 c 0,17,18
 284 682 284 682 330.5 639.5 c 128,-1,19
 377 597 377 597 377 522 c 0,20,21
 377 489 377 489 365 462 c 128,-1,22
 353 435 353 435 335.5 411 c 128,-1,23
 318 387 318 387 298.5 363.5 c 128,-1,24
 279 340 279 340 262.5 315 c 128,-1,25
 246 290 246 290 237 261.5 c 128,-1,26
 228 233 228 233 232 198 c 1,27,-1
 160 198 l 1,0,1
139 50 m 0,28,29
 139 79 139 79 156 96.5 c 128,-1,30
 173 114 173 114 198 114 c 256,31,32
 223 114 223 114 240.5 96.5 c 128,-1,33
 258 79 258 79 258 50 c 0,34,35
 258 23 258 23 240.5 5.5 c 128,-1,36
 223 -12 223 -12 198 -12 c 256,37,38
 173 -12 173 -12 156 5.5 c 128,-1,39
 139 23 139 23 139 50 c 0,28,29
EndSplineSet
Validated: 33
EndChar

StartChar: questiondown
Encoding: 191 191 517
Width: 425
Flags: W
LayerCount: 2
Fore
SplineSet
265 288 m 1,0,1
 270 249 270 249 262 217.5 c 128,-1,2
 254 186 254 186 239 159.5 c 128,-1,3
 224 133 224 133 204.5 110 c 128,-1,4
 185 87 185 87 168 64.5 c 128,-1,5
 151 42 151 42 139.5 18.5 c 128,-1,6
 128 -5 128 -5 128 -31 c 0,7,8
 128 -71 128 -71 152 -99 c 128,-1,9
 176 -127 176 -127 225 -127 c 0,10,11
 258 -127 258 -127 287 -112 c 128,-1,12
 316 -97 316 -97 339 -70 c 1,13,-1
 387 -113 l 1,14,15
 355 -148 355 -148 314 -172 c 128,-1,16
 273 -196 273 -196 219 -196 c 0,17,18
 141 -196 141 -196 94.5 -153.5 c 128,-1,19
 48 -111 48 -111 48 -36 c 0,20,21
 48 -3 48 -3 60 24 c 128,-1,22
 72 51 72 51 89.5 75 c 128,-1,23
 107 99 107 99 126.5 122.5 c 128,-1,24
 146 146 146 146 162 171 c 128,-1,25
 178 196 178 196 187 224.5 c 128,-1,26
 196 253 196 253 192 288 c 1,27,-1
 265 288 l 1,0,1
286 436 m 0,28,29
 286 407 286 407 268.5 389.5 c 128,-1,30
 251 372 251 372 227 372 c 0,31,32
 202 372 202 372 184.5 389.5 c 128,-1,33
 167 407 167 407 167 436 c 0,34,35
 167 463 167 463 184.5 480.5 c 128,-1,36
 202 498 202 498 227 498 c 0,37,38
 251 498 251 498 268.5 480.5 c 128,-1,39
 286 463 286 463 286 436 c 0,28,29
EndSplineSet
Validated: 33
EndChar

StartChar: quotesingle
Encoding: 39 39 518
Width: 249
Flags: W
LayerCount: 2
Fore
SplineSet
83 598 m 1,0,-1
 80 690 l 1,1,-1
 168 690 l 1,2,-1
 165 598 l 1,3,-1
 149 431 l 1,4,-1
 99 431 l 1,5,-1
 83 598 l 1,0,-1
EndSplineSet
Validated: 1
EndChar

StartChar: quoteleft
Encoding: 8216 8216 520
Width: 249
Flags: W
LayerCount: 2
Fore
SplineSet
187 657 m 1,0,1
 149 632 149 632 130 604 c 128,-1,2
 111 576 111 576 111 533 c 1,3,4
 114 534 114 534 120 534 c 0,5,6
 140 534 140 534 156.5 521 c 128,-1,7
 173 508 173 508 173 483 c 0,8,9
 173 457 173 457 158 442.5 c 128,-1,10
 143 428 143 428 120 428 c 0,11,12
 90 428 90 428 73.5 451 c 128,-1,13
 57 474 57 474 57 518 c 0,14,15
 57 578 57 578 84 622 c 128,-1,16
 111 666 111 666 163 696 c 1,17,-1
 187 657 l 1,0,1
EndSplineSet
Validated: 1
EndChar

StartChar: quoteright
Encoding: 8217 8217 521
Width: 249
Flags: W
LayerCount: 2
Fore
SplineSet
63 469 m 1,0,1
 101 494 101 494 119.5 522 c 128,-1,2
 138 550 138 550 138 594 c 1,3,4
 135 593 135 593 130 593 c 0,5,6
 109 593 109 593 93 606 c 128,-1,7
 77 619 77 619 77 643 c 0,8,9
 77 669 77 669 92 684 c 128,-1,10
 107 699 107 699 130 699 c 0,11,12
 159 699 159 699 176 675.5 c 128,-1,13
 193 652 193 652 193 608 c 0,14,15
 193 548 193 548 165.5 504.5 c 128,-1,16
 138 461 138 461 86 431 c 1,17,-1
 63 469 l 1,0,1
EndSplineSet
Validated: 1
EndChar

StartChar: guilsinglleft
Encoding: 8249 8249 526
Width: 271
Flags: W
LayerCount: 2
Fore
SplineSet
45 221 m 1,0,-1
 45 283 l 1,1,-1
 181 438 l 1,2,-1
 217 408 l 1,3,-1
 99 252 l 1,4,-1
 217 94 l 1,5,-1
 181 66 l 1,6,-1
 45 221 l 1,0,-1
EndSplineSet
Validated: 1
EndChar

StartChar: guilsinglright
Encoding: 8250 8250 527
Width: 271
Flags: W
LayerCount: 2
Fore
SplineSet
172 252 m 1,0,-1
 54 408 l 1,1,-1
 89 438 l 1,2,-1
 226 283 l 1,3,-1
 226 221 l 1,4,-1
 89 66 l 1,5,-1
 54 94 l 1,6,-1
 172 252 l 1,0,-1
EndSplineSet
Validated: 1
EndChar

StartChar: hyphen
Encoding: 45 45 530
Width: 311
Flags: W
LayerCount: 2
Fore
SplineSet
41 282 m 1,0,-1
 271 282 l 1,1,-1
 271 219 l 1,2,-1
 41 219 l 1,3,-1
 41 282 l 1,0,-1
EndSplineSet
Validated: 1
Substitution2: "'sups' Superscript in Latin lookup 19 subtable" hyphen.sups
Substitution2: "'smcp' Lowercase to Small Capitals in Latin lookup 10 subtable" hyphen.sc
AlternateSubs2: "'aalt' Access All Alternates in Latin lookup 1 subtable" hyphen.sc hyphen.sups
EndChar

StartChar: endash
Encoding: 8211 8211 532
Width: 480
Flags: W
LayerCount: 2
Fore
SplineSet
41 280 m 1,0,-1
 439 280 l 1,1,-1
 439 223 l 1,2,-1
 41 223 l 1,3,-1
 41 280 l 1,0,-1
EndSplineSet
Validated: 1
Substitution2: "'sups' Superscript in Latin lookup 19 subtable" endash.sups
Substitution2: "'smcp' Lowercase to Small Capitals in Latin lookup 10 subtable" endash.sc
AlternateSubs2: "'aalt' Access All Alternates in Latin lookup 1 subtable" endash.sc endash.sups
EndChar

StartChar: emdash
Encoding: 8212 8212 533
Width: 800
Flags: W
LayerCount: 2
Fore
SplineSet
41 280 m 1,0,-1
 759 280 l 1,1,-1
 759 223 l 1,2,-1
 41 223 l 1,3,-1
 41 280 l 1,0,-1
EndSplineSet
Validated: 1
Substitution2: "'sups' Superscript in Latin lookup 19 subtable" emdash.sups
Substitution2: "'smcp' Lowercase to Small Capitals in Latin lookup 10 subtable" emdash.sc
AlternateSubs2: "'aalt' Access All Alternates in Latin lookup 1 subtable" emdash.sc emdash.sups
EndChar

StartChar: figuredash
Encoding: 8210 8210 534
Width: 497
Flags: W
LayerCount: 2
Fore
SplineSet
41 280 m 1,0,-1
 457 280 l 1,1,-1
 457 223 l 1,2,-1
 41 223 l 1,3,-1
 41 280 l 1,0,-1
EndSplineSet
Validated: 1
EndChar

StartChar: bullet
Encoding: 8226 8226 537
Width: 304
Flags: W
LayerCount: 2
Fore
SplineSet
152 143 m 0,0,1
 129 143 129 143 109 151.5 c 128,-1,2
 89 160 89 160 73.5 176 c 128,-1,3
 58 192 58 192 49 214 c 128,-1,4
 40 236 40 236 40 263 c 256,5,6
 40 290 40 290 49 312.5 c 128,-1,7
 58 335 58 335 73.5 350.5 c 128,-1,8
 89 366 89 366 109 375 c 128,-1,9
 129 384 129 384 152 384 c 0,10,11
 174 384 174 384 194.5 375 c 128,-1,12
 215 366 215 366 230.5 350.5 c 128,-1,13
 246 335 246 335 255 312.5 c 128,-1,14
 264 290 264 290 264 263 c 256,15,16
 264 236 264 236 255 214 c 128,-1,17
 246 192 246 192 230.5 176 c 128,-1,18
 215 160 215 160 194.5 151.5 c 128,-1,19
 174 143 174 143 152 143 c 0,0,1
EndSplineSet
Validated: 1
EndChar

StartChar: underscore
Encoding: 95 95 538
Width: 500
Flags: W
LayerCount: 2
Fore
SplineSet
488 -71 m 1,0,-1
 488 -126 l 1,1,-1
 12 -126 l 1,2,-1
 12 -71 l 1,3,-1
 488 -71 l 1,0,-1
EndSplineSet
Validated: 1
EndChar

StartChar: parenleft
Encoding: 40 40 539
Width: 303
Flags: W
LayerCount: 2
Fore
SplineSet
214 -176 m 1,0,1
 152 -76 152 -76 117 35 c 128,-1,2
 82 146 82 146 82 278 c 256,3,4
 82 410 82 410 117 520.5 c 128,-1,5
 152 631 152 631 214 732 c 1,6,-1
 265 708 l 1,7,8
 207 612 207 612 178.5 502.5 c 128,-1,9
 150 393 150 393 150 278 c 256,10,11
 150 163 150 163 178.5 53.5 c 128,-1,12
 207 -56 207 -56 265 -152 c 1,13,-1
 214 -176 l 1,14,-1
 214 -176 l 1,0,1
EndSplineSet
Validated: 5
Substitution2: "'subs' Subscript in Latin lookup 20 subtable" parenleft.subs
Substitution2: "'sups' Superscript in Latin lookup 18 subtable" parenleft.sups
Substitution2: "'dnom' Denominators in Latin lookup 13 subtable" parenleft.dnom
Substitution2: "'numr' Numerators in Latin lookup 12 subtable" parenleft.numr
AlternateSubs2: "'aalt' Access All Alternates in Latin lookup 1 subtable" parenleft.numr parenleft.dnom parenleft.sups parenleft.subs
EndChar

StartChar: parenright
Encoding: 41 41 540
Width: 303
Flags: W
LayerCount: 2
Fore
SplineSet
38 -152 m 1,0,1
 96 -56 96 -56 124.5 53.5 c 128,-1,2
 153 163 153 163 153 278 c 256,3,4
 153 393 153 393 124.5 502.5 c 128,-1,5
 96 612 96 612 38 708 c 1,6,-1
 89 732 l 1,7,8
 151 631 151 631 186 520.5 c 128,-1,9
 221 410 221 410 221 278 c 256,10,11
 221 146 221 146 186 35 c 128,-1,12
 151 -76 151 -76 89 -176 c 1,13,-1
 38 -152 l 1,14,-1
 38 -152 l 1,0,1
EndSplineSet
Validated: 5
Substitution2: "'subs' Subscript in Latin lookup 20 subtable" parenright.subs
Substitution2: "'sups' Superscript in Latin lookup 18 subtable" parenright.sups
Substitution2: "'dnom' Denominators in Latin lookup 13 subtable" parenright.dnom
Substitution2: "'numr' Numerators in Latin lookup 12 subtable" parenright.numr
AlternateSubs2: "'aalt' Access All Alternates in Latin lookup 1 subtable" parenright.numr parenright.dnom parenright.sups parenright.subs
EndChar

StartChar: bracketleft
Encoding: 91 91 541
Width: 303
Flags: W
LayerCount: 2
Fore
SplineSet
94 708 m 1,0,-1
 273 708 l 1,1,-1
 273 661 l 1,2,-1
 156 661 l 1,3,-1
 156 -105 l 1,4,-1
 273 -105 l 1,5,-1
 273 -152 l 1,6,-1
 94 -152 l 1,7,-1
 94 708 l 1,0,-1
EndSplineSet
Validated: 1
EndChar

StartChar: bracketright
Encoding: 93 93 542
Width: 303
Flags: W
LayerCount: 2
Fore
SplineSet
147 -105 m 1,0,-1
 147 661 l 1,1,-1
 31 661 l 1,2,-1
 31 708 l 1,3,-1
 209 708 l 1,4,-1
 209 -152 l 1,5,-1
 31 -152 l 1,6,-1
 31 -105 l 1,7,-1
 147 -105 l 1,0,-1
EndSplineSet
Validated: 1
EndChar

StartChar: braceleft
Encoding: 123 123 543
Width: 303
Flags: W
LayerCount: 2
Fore
SplineSet
273 -105 m 1,0,-1
 273 -152 l 1,1,-1
 228 -152 l 2,2,3
 169 -152 169 -152 140 -124 c 128,-1,4
 111 -96 111 -96 111 -19 c 0,5,6
 111 8 111 8 112.5 32.5 c 128,-1,7
 114 57 114 57 115.5 80 c 128,-1,8
 117 103 117 103 118.5 126 c 128,-1,9
 120 149 120 149 120 174 c 0,10,11
 120 189 120 189 116 202.5 c 128,-1,12
 112 216 112 216 102.5 227 c 128,-1,13
 93 238 93 238 76 245 c 128,-1,14
 59 252 59 252 34 252 c 1,15,-1
 34 304 l 1,16,17
 59 304 59 304 76 311 c 128,-1,18
 93 318 93 318 102.5 328.5 c 128,-1,19
 112 339 112 339 116 353 c 128,-1,20
 120 367 120 367 120 381 c 0,21,22
 120 432 120 432 115.5 476 c 128,-1,23
 111 520 111 520 111 575 c 0,24,25
 111 652 111 652 140 680 c 128,-1,26
 169 708 169 708 228 708 c 2,27,-1
 273 708 l 1,28,-1
 273 661 l 1,29,-1
 246 661 l 2,30,31
 205 661 205 661 191.5 640 c 128,-1,32
 178 619 178 619 178 570 c 0,33,34
 178 524 178 524 181 482 c 128,-1,35
 184 440 184 440 184 389 c 0,36,37
 184 340 184 340 170 314.5 c 128,-1,38
 156 289 156 289 124 280 c 1,39,-1
 124 276 l 1,40,41
 156 267 156 267 170 241 c 128,-1,42
 184 215 184 215 184 167 c 0,43,44
 184 116 184 116 181 74 c 128,-1,45
 178 32 178 32 178 -14 c 0,46,47
 178 -63 178 -63 191.5 -84 c 128,-1,48
 205 -105 205 -105 246 -105 c 2,49,-1
 273 -105 l 1,0,-1
EndSplineSet
Validated: 1
EndChar

StartChar: braceright
Encoding: 125 125 544
Width: 303
Flags: W
LayerCount: 2
Fore
SplineSet
57 -105 m 2,0,1
 98 -105 98 -105 111.5 -84 c 128,-1,2
 125 -63 125 -63 125 -14 c 0,3,4
 125 32 125 32 122.5 74 c 128,-1,5
 120 116 120 116 120 167 c 0,6,7
 120 215 120 215 133.5 241 c 128,-1,8
 147 267 147 267 179 276 c 1,9,-1
 179 280 l 1,10,11
 147 289 147 289 133.5 314.5 c 128,-1,12
 120 340 120 340 120 389 c 0,13,14
 120 440 120 440 122.5 482 c 128,-1,15
 125 524 125 524 125 570 c 0,16,17
 125 619 125 619 111.5 640 c 128,-1,18
 98 661 98 661 57 661 c 2,19,-1
 31 661 l 1,20,-1
 31 708 l 1,21,-1
 75 708 l 2,22,23
 105 708 105 708 127 701.5 c 128,-1,24
 149 695 149 695 163.5 680 c 128,-1,25
 178 665 178 665 185 639.5 c 128,-1,26
 192 614 192 614 192 575 c 0,27,28
 192 520 192 520 187.5 476 c 128,-1,29
 183 432 183 432 183 381 c 0,30,31
 183 352 183 352 201 328.5 c 128,-1,32
 219 305 219 305 269 304 c 1,33,-1
 269 252 l 1,34,35
 244 252 244 252 227.5 245 c 128,-1,36
 211 238 211 238 201 227 c 128,-1,37
 191 216 191 216 187 202.5 c 128,-1,38
 183 189 183 189 183 174 c 0,39,40
 183 149 183 149 184.5 126 c 128,-1,41
 186 103 186 103 187.5 80 c 128,-1,42
 189 57 189 57 190.5 32.5 c 128,-1,43
 192 8 192 8 192 -19 c 0,44,45
 192 -58 192 -58 185 -83.5 c 128,-1,46
 178 -109 178 -109 163.5 -124 c 128,-1,47
 149 -139 149 -139 127 -145.5 c 128,-1,48
 105 -152 105 -152 75 -152 c 2,49,-1
 31 -152 l 1,50,-1
 31 -105 l 1,51,-1
 57 -105 l 2,0,1
EndSplineSet
Validated: 1
EndChar

StartChar: slash
Encoding: 47 47 545
Width: 350
Flags: W
LayerCount: 2
Fore
SplineSet
277 710 m 1,0,-1
 337 710 l 1,1,-1
 70 -160 l 1,2,-1
 10 -160 l 1,3,-1
 277 710 l 1,0,-1
EndSplineSet
Validated: 1
Substitution2: "'frac' Diagonal Fractions in Latin lookup 14 subtable" slash.frac
EndChar

StartChar: bar
Encoding: 124 124 546
Width: 241
Flags: W
LayerCount: 2
Fore
SplineSet
92 750 m 1,0,-1
 150 750 l 1,1,-1
 150 -250 l 1,2,-1
 92 -250 l 1,3,-1
 92 750 l 1,0,-1
EndSplineSet
Validated: 1
EndChar

StartChar: backslash
Encoding: 92 92 547
Width: 350
Flags: W
LayerCount: 2
Fore
SplineSet
14 710 m 1,0,-1
 73 710 l 1,1,-1
 340 -160 l 1,2,-1
 281 -160 l 1,3,-1
 14 710 l 1,0,-1
EndSplineSet
Validated: 1
EndChar

StartChar: brokenbar
Encoding: 166 166 548
Width: 241
Flags: W
LayerCount: 2
Fore
SplineSet
92 750 m 1,0,-1
 150 750 l 1,1,-1
 150 291 l 1,2,-1
 92 291 l 1,3,-1
 92 750 l 1,0,-1
150 214 m 1,4,-1
 150 -250 l 1,5,-1
 92 -250 l 1,6,-1
 92 214 l 1,7,-1
 150 214 l 1,4,-1
EndSplineSet
Validated: 1
EndChar

StartChar: asterisk
Encoding: 42 42 549
Width: 418
Flags: W
LayerCount: 2
Fore
SplineSet
98 449 m 1,0,-1
 155 543 l 1,1,-1
 58 583 l 1,2,-1
 73 629 l 1,3,-1
 175 604 l 1,4,-1
 184 712 l 1,5,-1
 233 712 l 1,6,-1
 242 605 l 1,7,-1
 345 629 l 1,8,-1
 360 583 l 1,9,-1
 263 543 l 1,10,-1
 319 449 l 1,11,-1
 280 420 l 1,12,-1
 209 506 l 1,13,-1
 138 420 l 1,14,-1
 98 449 l 1,0,-1
EndSplineSet
Validated: 1
EndChar

StartChar: dagger
Encoding: 8224 8224 550
Width: 454
Flags: W
LayerCount: 2
Fore
SplineSet
197 491 m 1,0,-1
 54 486 l 1,1,-1
 54 557 l 1,2,-1
 197 552 l 1,3,-1
 192 712 l 1,4,-1
 262 712 l 1,5,-1
 257 552 l 1,6,-1
 400 557 l 1,7,-1
 400 486 l 1,8,-1
 257 491 l 1,9,-1
 262 -80 l 1,10,-1
 192 -80 l 1,11,-1
 197 491 l 1,0,-1
EndSplineSet
Validated: 1
EndChar

StartChar: daggerdbl
Encoding: 8225 8225 551
Width: 454
Flags: W
LayerCount: 2
Fore
SplineSet
54 146 m 1,0,-1
 197 139 l 1,1,-1
 192 316 l 1,2,-1
 197 493 l 1,3,-1
 54 486 l 1,4,-1
 54 557 l 1,5,-1
 197 552 l 1,6,-1
 192 712 l 1,7,-1
 262 712 l 1,8,-1
 257 552 l 1,9,-1
 400 557 l 1,10,-1
 400 486 l 1,11,-1
 257 493 l 1,12,-1
 262 316 l 1,13,-1
 257 139 l 1,14,-1
 400 146 l 1,15,-1
 400 75 l 1,16,-1
 257 80 l 1,17,-1
 262 -80 l 1,18,-1
 192 -80 l 1,19,-1
 197 80 l 1,20,-1
 54 75 l 1,21,-1
 54 146 l 1,0,-1
EndSplineSet
Validated: 1
EndChar

StartChar: section
Encoding: 167 167 552
Width: 497
Flags: W
LayerCount: 2
Fore
SplineSet
320 193 m 1,0,1
 349 207 349 207 364.5 226 c 128,-1,2
 380 245 380 245 380 278 c 0,3,4
 380 312 380 312 360 334 c 128,-1,5
 340 356 340 356 310 372.5 c 128,-1,6
 280 389 280 389 244.5 403 c 128,-1,7
 209 417 209 417 178 435 c 1,8,9
 149 419 149 419 133 399 c 128,-1,10
 117 379 117 379 117 348 c 0,11,12
 117 315 117 315 137 293.5 c 128,-1,13
 157 272 157 272 187.5 256 c 128,-1,14
 218 240 218 240 253.5 225.5 c 128,-1,15
 289 211 289 211 320 193 c 1,0,1
365 574 m 1,16,17
 341 594 341 594 314 607 c 128,-1,18
 287 620 287 620 254 620 c 0,19,20
 212 620 212 620 193.5 601.5 c 128,-1,21
 175 583 175 583 175 557 c 0,22,23
 175 530 175 530 195.5 512 c 128,-1,24
 216 494 216 494 247 479 c 128,-1,25
 278 464 278 464 313.5 449 c 128,-1,26
 349 434 349 434 380 412.5 c 128,-1,27
 411 391 411 391 431.5 360.5 c 128,-1,28
 452 330 452 330 452 284 c 0,29,30
 452 236 452 236 428.5 206.5 c 128,-1,31
 405 177 405 177 367 155 c 1,32,33
 381 138 381 138 389 118.5 c 128,-1,34
 397 99 397 99 397 73 c 0,35,36
 397 43 397 43 385 18 c 128,-1,37
 373 -7 373 -7 351.5 -25 c 128,-1,38
 330 -43 330 -43 300.5 -53.5 c 128,-1,39
 271 -64 271 -64 236 -64 c 0,40,41
 182 -64 182 -64 138 -45 c 128,-1,42
 94 -26 94 -26 63 7 c 1,43,-1
 113 52 l 1,44,45
 138 28 138 28 167 14 c 128,-1,46
 196 0 196 0 236 0 c 256,47,48
 276 0 276 0 298.5 20 c 128,-1,49
 321 40 321 40 321 69 c 0,50,51
 321 97 321 97 300.5 116 c 128,-1,52
 280 135 280 135 249.5 150 c 128,-1,53
 219 165 219 165 183 179.5 c 128,-1,54
 147 194 147 194 116.5 215 c 128,-1,55
 86 236 86 236 65.5 266.5 c 128,-1,56
 45 297 45 297 45 343 c 0,57,58
 45 387 45 387 69 419 c 128,-1,59
 93 451 93 451 131 472 c 1,60,61
 116 488 116 488 107.5 508 c 128,-1,62
 99 528 99 528 99 554 c 256,63,64
 99 580 99 580 108.5 603.5 c 128,-1,65
 118 627 118 627 137.5 645 c 128,-1,66
 157 663 157 663 185 673.5 c 128,-1,67
 213 684 213 684 251 684 c 0,68,69
 299 684 299 684 337.5 667 c 128,-1,70
 376 650 376 650 405 627 c 1,71,-1
 365 574 l 1,16,17
EndSplineSet
Validated: 1
EndChar

StartChar: paragraph
Encoding: 182 182 553
Width: 560
Flags: W
LayerCount: 2
Fore
SplineSet
380 656 m 1,0,-1
 464 656 l 1,1,-1
 464 -80 l 1,2,-1
 380 -80 l 1,3,-1
 380 656 l 1,0,-1
293 226 m 2,4,5
 239 226 239 226 192.5 238.5 c 128,-1,6
 146 251 146 251 112.5 277.5 c 128,-1,7
 79 304 79 304 60 345 c 128,-1,8
 41 386 41 386 41 443 c 0,9,10
 41 502 41 502 59 542.5 c 128,-1,11
 77 583 77 583 109.5 608.5 c 128,-1,12
 142 634 142 634 186 645 c 128,-1,13
 230 656 230 656 282 656 c 2,14,-1
 326 656 l 1,15,-1
 326 226 l 1,16,-1
 293 226 l 2,4,5
EndSplineSet
Validated: 1
EndChar

StartChar: copyright
Encoding: 169 169 554
Width: 744
Flags: W
LayerCount: 2
Fore
SplineSet
49 323 m 0,0,1
 49 399 49 399 75 460 c 128,-1,2
 101 521 101 521 145 564 c 128,-1,3
 189 607 189 607 248 630 c 128,-1,4
 307 653 307 653 372 653 c 256,5,6
 437 653 437 653 495.5 630 c 128,-1,7
 554 607 554 607 598.5 564 c 128,-1,8
 643 521 643 521 669 460 c 128,-1,9
 695 399 695 399 695 323 c 0,10,11
 695 246 695 246 669 184.5 c 128,-1,12
 643 123 643 123 598.5 79.5 c 128,-1,13
 554 36 554 36 495.5 12.5 c 128,-1,14
 437 -11 437 -11 372 -11 c 256,15,16
 307 -11 307 -11 248 12.5 c 128,-1,17
 189 36 189 36 145 79.5 c 128,-1,18
 101 123 101 123 75 184.5 c 128,-1,19
 49 246 49 246 49 323 c 0,0,1
96 323 m 0,20,21
 96 257 96 257 118 203.5 c 128,-1,22
 140 150 140 150 177.5 111.5 c 128,-1,23
 215 73 215 73 265 52 c 128,-1,24
 315 31 315 31 372 31 c 256,25,26
 429 31 429 31 479 52 c 128,-1,27
 529 73 529 73 566.5 111.5 c 128,-1,28
 604 150 604 150 626 203.5 c 128,-1,29
 648 257 648 257 648 323 c 0,30,31
 648 388 648 388 626 441.5 c 128,-1,32
 604 495 604 495 566.5 533 c 128,-1,33
 529 571 529 571 479 591.5 c 128,-1,34
 429 612 429 612 372 612 c 256,35,36
 315 612 315 612 265 591.5 c 128,-1,37
 215 571 215 571 177.5 533 c 128,-1,38
 140 495 140 495 118 441.5 c 128,-1,39
 96 388 96 388 96 323 c 0,20,21
198 323 m 0,40,41
 198 366 198 366 213.5 401 c 128,-1,42
 229 436 229 436 254.5 461 c 128,-1,43
 280 486 280 486 313.5 499 c 128,-1,44
 347 512 347 512 383 512 c 0,45,46
 425 512 425 512 454.5 495.5 c 128,-1,47
 484 479 484 479 508 455 c 1,48,-1
 473 416 l 1,49,50
 453 436 453 436 432.5 446.5 c 128,-1,51
 412 457 412 457 386 457 c 0,52,53
 331 457 331 457 297.5 419.5 c 128,-1,54
 264 382 264 382 264 323 c 0,55,56
 264 257 264 257 296.5 218.5 c 128,-1,57
 329 180 329 180 383 180 c 0,58,59
 415 180 415 180 439 192.5 c 128,-1,60
 463 205 463 205 485 224 c 1,61,-1
 515 182 l 1,62,63
 487 158 487 158 456 141.5 c 128,-1,64
 425 125 425 125 380 125 c 0,65,66
 342 125 342 125 309 138.5 c 128,-1,67
 276 152 276 152 251 177.5 c 128,-1,68
 226 203 226 203 212 239.5 c 128,-1,69
 198 276 198 276 198 323 c 0,40,41
EndSplineSet
Validated: 1
EndChar

StartChar: uni2117
Encoding: 8471 8471 555
Width: 743
Flags: W
LayerCount: 2
Fore
SplineSet
253 500 m 1,0,-1
 391 500 l 2,1,2
 422 500 422 500 449 493 c 128,-1,3
 476 486 476 486 496 472 c 128,-1,4
 516 458 516 458 527.5 435.5 c 128,-1,5
 539 413 539 413 539 383 c 0,6,7
 539 350 539 350 527.5 325.5 c 128,-1,8
 516 301 516 301 496 284.5 c 128,-1,9
 476 268 476 268 449 260 c 128,-1,10
 422 252 422 252 391 252 c 2,11,-1
 318 252 l 1,12,-1
 318 137 l 1,13,-1
 253 137 l 1,14,-1
 253 500 l 1,0,-1
380 302 m 2,15,16
 425 302 425 302 449.5 320.5 c 128,-1,17
 474 339 474 339 474 381 c 0,18,19
 474 417 474 417 449.5 433 c 128,-1,20
 425 449 425 449 380 449 c 2,21,-1
 318 449 l 1,22,-1
 318 302 l 1,23,-1
 380 302 l 2,15,16
49 323 m 0,24,25
 49 399 49 399 75 460 c 128,-1,26
 101 521 101 521 145 564 c 128,-1,27
 189 607 189 607 248 630 c 128,-1,28
 307 653 307 653 372 653 c 256,29,30
 437 653 437 653 495.5 630 c 128,-1,31
 554 607 554 607 598.5 564 c 128,-1,32
 643 521 643 521 669 460 c 128,-1,33
 695 399 695 399 695 323 c 0,34,35
 695 246 695 246 669 184.5 c 128,-1,36
 643 123 643 123 598.5 79.5 c 128,-1,37
 554 36 554 36 495.5 12.5 c 128,-1,38
 437 -11 437 -11 372 -11 c 256,39,40
 307 -11 307 -11 248 12.5 c 128,-1,41
 189 36 189 36 145 79.5 c 128,-1,42
 101 123 101 123 75 184.5 c 128,-1,43
 49 246 49 246 49 323 c 0,24,25
96 323 m 0,44,45
 96 257 96 257 118 203.5 c 128,-1,46
 140 150 140 150 177.5 111.5 c 128,-1,47
 215 73 215 73 265 52 c 128,-1,48
 315 31 315 31 372 31 c 256,49,50
 429 31 429 31 479 52 c 128,-1,51
 529 73 529 73 566.5 111.5 c 128,-1,52
 604 150 604 150 626 203.5 c 128,-1,53
 648 257 648 257 648 323 c 0,54,55
 648 388 648 388 626 441.5 c 128,-1,56
 604 495 604 495 566.5 533 c 128,-1,57
 529 571 529 571 479 591.5 c 128,-1,58
 429 612 429 612 372 612 c 256,59,60
 315 612 315 612 265 591.5 c 128,-1,61
 215 571 215 571 177.5 533 c 128,-1,62
 140 495 140 495 118 441.5 c 128,-1,63
 96 388 96 388 96 323 c 0,44,45
EndSplineSet
Validated: 1
EndChar

StartChar: registered
Encoding: 174 174 556
Width: 423
Flags: W
LayerCount: 2
Fore
SplineSet
211 319 m 256,0,1
 172 319 172 319 138 333.5 c 128,-1,2
 104 348 104 348 78.5 374 c 128,-1,3
 53 400 53 400 38 436 c 128,-1,4
 23 472 23 472 23 516 c 256,5,6
 23 560 23 560 38 596 c 128,-1,7
 53 632 53 632 78.5 658 c 128,-1,8
 104 684 104 684 138 698.5 c 128,-1,9
 172 713 172 713 211 713 c 256,10,11
 250 713 250 713 284.5 698.5 c 128,-1,12
 319 684 319 684 344.5 658 c 128,-1,13
 370 632 370 632 385 596 c 128,-1,14
 400 560 400 560 400 516 c 256,15,16
 400 472 400 472 385 436 c 128,-1,17
 370 400 370 400 344.5 374 c 128,-1,18
 319 348 319 348 284.5 333.5 c 128,-1,19
 250 319 250 319 211 319 c 256,0,1
211 356 m 0,20,21
 242 356 242 356 269.5 367.5 c 128,-1,22
 297 379 297 379 317 400 c 128,-1,23
 337 421 337 421 348.5 450.5 c 128,-1,24
 360 480 360 480 360 516 c 0,25,26
 360 551 360 551 348.5 580.5 c 128,-1,27
 337 610 337 610 317 631.5 c 128,-1,28
 297 653 297 653 269.5 665 c 128,-1,29
 242 677 242 677 211 677 c 0,30,31
 179 677 179 677 152 665 c 128,-1,32
 125 653 125 653 105.5 631.5 c 128,-1,33
 86 610 86 610 74.5 580.5 c 128,-1,34
 63 551 63 551 63 516 c 0,35,36
 63 480 63 480 74.5 450.5 c 128,-1,37
 86 421 86 421 105.5 400 c 128,-1,38
 125 379 125 379 152 367.5 c 128,-1,39
 179 356 179 356 211 356 c 0,20,21
139 620 m 1,40,-1
 215 620 l 2,41,42
 247 620 247 620 270 605.5 c 128,-1,43
 293 591 293 591 293 555 c 0,44,45
 293 537 293 537 283 521.5 c 128,-1,46
 273 506 273 506 256 500 c 1,47,-1
 302 417 l 1,48,-1
 256 417 l 1,49,-1
 221 487 l 1,50,-1
 180 487 l 1,51,-1
 180 417 l 1,52,-1
 139 417 l 1,53,-1
 139 620 l 1,40,-1
206 519 m 2,54,55
 249 519 249 519 249 553 c 0,56,57
 249 568 249 568 240 577 c 128,-1,58
 231 586 231 586 208 586 c 2,59,-1
 180 586 l 1,60,-1
 180 519 l 1,61,-1
 206 519 l 2,54,55
EndSplineSet
Validated: 1
EndChar

StartChar: trademark
Encoding: 8482 8482 557
Width: 637
Flags: W
LayerCount: 2
Fore
SplineSet
310 676 m 1,0,-1
 385 676 l 1,1,-1
 431 564 l 1,2,-1
 458 485 l 1,3,-1
 462 485 l 1,4,-1
 489 564 l 1,5,-1
 534 676 l 1,6,-1
 608 676 l 1,7,-1
 608 366 l 1,8,-1
 551 366 l 1,9,-1
 551 503 l 1,10,-1
 557 608 l 1,11,-1
 553 608 l 1,12,-1
 482 414 l 1,13,-1
 437 414 l 1,14,-1
 365 608 l 1,15,-1
 361 608 l 1,16,-1
 368 503 l 1,17,-1
 368 366 l 1,18,-1
 310 366 l 1,19,-1
 310 676 l 1,0,-1
102 622 m 1,20,-1
 3 622 l 1,21,-1
 3 676 l 1,22,-1
 262 676 l 1,23,-1
 262 622 l 1,24,-1
 162 622 l 1,25,-1
 162 366 l 1,26,-1
 102 366 l 1,27,-1
 102 622 l 1,20,-1
EndSplineSet
Validated: 1
EndChar

StartChar: uni2120
Encoding: 8480 8480 558
Width: 637
Flags: W
LayerCount: 2
Fore
SplineSet
140 354 m 0,0,1
 107 354 107 354 78.5 366.5 c 128,-1,2
 50 379 50 379 27 402 c 1,3,-1
 60 439 l 1,4,5
 78 422 78 422 98.5 411.5 c 128,-1,6
 119 401 119 401 144 401 c 0,7,8
 167 401 167 401 180 411.5 c 128,-1,9
 193 422 193 422 193 440 c 0,10,11
 193 460 193 460 182.5 467.5 c 128,-1,12
 172 475 172 475 150 486 c 2,13,-1
 103 509 l 2,14,15
 80 520 80 520 61.5 540 c 128,-1,16
 43 560 43 560 43 595 c 0,17,18
 43 634 43 634 72 658.5 c 128,-1,19
 101 683 101 683 148 683 c 0,20,21
 176 683 176 683 201 672 c 128,-1,22
 226 661 226 661 243 645 c 1,23,-1
 214 606 l 1,24,25
 198 618 198 618 180 627 c 128,-1,26
 162 636 162 636 145 636 c 0,27,28
 122 636 122 636 110 624.5 c 128,-1,29
 98 613 98 613 98 598 c 256,30,31
 98 583 98 583 109 573.5 c 128,-1,32
 120 564 120 564 140 555 c 2,33,-1
 186 532 l 1,34,35
 215 519 215 519 232 499.5 c 128,-1,36
 249 480 249 480 249 445 c 0,37,38
 249 427 249 427 241.5 411 c 128,-1,39
 234 395 234 395 219.5 382 c 128,-1,40
 205 369 205 369 185 361.5 c 128,-1,41
 165 354 165 354 140 354 c 0,0,1
310 676 m 1,42,-1
 385 676 l 1,43,-1
 431 564 l 1,44,-1
 458 485 l 1,45,-1
 462 485 l 1,46,-1
 489 564 l 1,47,-1
 534 676 l 1,48,-1
 608 676 l 1,49,-1
 608 366 l 1,50,-1
 551 366 l 1,51,-1
 551 503 l 1,52,-1
 557 608 l 1,53,-1
 553 608 l 1,54,-1
 482 414 l 1,55,-1
 437 414 l 1,56,-1
 365 608 l 1,57,-1
 361 608 l 1,58,-1
 368 503 l 1,59,-1
 368 366 l 1,60,-1
 310 366 l 1,61,-1
 310 676 l 1,42,-1
EndSplineSet
Validated: 1
EndChar

StartChar: at
Encoding: 64 64 559
Width: 847
Flags: W
LayerCount: 2
Fore
SplineSet
51 203 m 0,0,1
 51 303 51 303 84.5 385 c 128,-1,2
 118 467 118 467 175.5 525 c 128,-1,3
 233 583 233 583 308.5 614.5 c 128,-1,4
 384 646 384 646 468 646 c 0,5,6
 544 646 544 646 604.5 622 c 128,-1,7
 665 598 665 598 707.5 554.5 c 128,-1,8
 750 511 750 511 773 450 c 128,-1,9
 796 389 796 389 796 315 c 0,10,11
 796 249 796 249 777.5 199.5 c 128,-1,12
 759 150 759 150 730 116.5 c 128,-1,13
 701 83 701 83 665.5 66 c 128,-1,14
 630 49 630 49 596 49 c 0,15,16
 555 49 555 49 526.5 68 c 128,-1,17
 498 87 498 87 493 125 c 1,18,-1
 491 125 l 1,19,20
 466 96 466 96 434 76.5 c 128,-1,21
 402 57 402 57 369 57 c 0,22,23
 318 57 318 57 283.5 93 c 128,-1,24
 249 129 249 129 249 198 c 0,25,26
 249 238 249 238 262.5 279.5 c 128,-1,27
 276 321 276 321 301 354.5 c 128,-1,28
 326 388 326 388 361.5 409 c 128,-1,29
 397 430 397 430 441 430 c 0,30,31
 467 430 467 430 487 418.5 c 128,-1,32
 507 407 507 407 521 382 c 1,33,-1
 523 382 l 1,34,-1
 534 422 l 1,35,-1
 589 422 l 1,36,-1
 550 222 l 1,37,38
 520 105 520 105 604 105 c 0,39,40
 628 105 628 105 651.5 119 c 128,-1,41
 675 133 675 133 694.5 159.5 c 128,-1,42
 714 186 714 186 726 224.5 c 128,-1,43
 738 263 738 263 738 312 c 0,44,45
 738 372 738 372 720.5 423.5 c 128,-1,46
 703 475 703 475 668 512 c 128,-1,47
 633 549 633 549 581 570 c 128,-1,48
 529 591 529 591 461 591 c 0,49,50
 394 591 394 591 331 563.5 c 128,-1,51
 268 536 268 536 219 486 c 128,-1,52
 170 436 170 436 140.5 365 c 128,-1,53
 111 294 111 294 111 206 c 0,54,55
 111 133 111 133 133.5 76 c 128,-1,56
 156 19 156 19 196 -20 c 128,-1,57
 236 -59 236 -59 290.5 -79.5 c 128,-1,58
 345 -100 345 -100 409 -100 c 0,59,60
 455 -100 455 -100 496 -87.5 c 128,-1,61
 537 -75 537 -75 571 -55 c 1,62,-1
 593 -104 l 1,63,64
 508 -155 508 -155 403 -155 c 0,65,66
 329 -155 329 -155 265 -132 c 128,-1,67
 201 -109 201 -109 153.5 -63.5 c 128,-1,68
 106 -18 106 -18 78.5 49 c 128,-1,69
 51 116 51 116 51 203 c 0,0,1
315 203 m 0,70,71
 315 155 315 155 335 134 c 128,-1,72
 355 113 355 113 385 113 c 0,73,74
 406 113 406 113 428.5 127 c 128,-1,75
 451 141 451 141 477 172 c 1,76,-1
 506 331 l 1,77,78
 492 354 492 354 477 363.5 c 128,-1,79
 462 373 462 373 442 373 c 0,80,81
 412 373 412 373 388.5 357 c 128,-1,82
 365 341 365 341 348.5 316 c 128,-1,83
 332 291 332 291 323.5 261 c 128,-1,84
 315 231 315 231 315 203 c 0,70,71
EndSplineSet
Validated: 33
Substitution2: "'case' Case-Sensitive Forms in Latin lookup 25 subtable" at.case
Substitution2: "'aalt' Access All Alternates in Latin lookup 0 subtable" at.case
EndChar

StartChar: at.case
Encoding: 1114201 -1 560
Width: 782
Flags: W
LayerCount: 2
Fore
SplineSet
51 290 m 0,0,1
 51 380 51 380 82 453.5 c 128,-1,2
 113 527 113 527 165.5 579 c 128,-1,3
 218 631 218 631 287.5 659.5 c 128,-1,4
 357 688 357 688 435 688 c 0,5,6
 502 688 502 688 556.5 667 c 128,-1,7
 611 646 611 646 650 608 c 128,-1,8
 689 570 689 570 710.5 516.5 c 128,-1,9
 732 463 732 463 732 397 c 0,10,11
 732 337 732 337 716.5 290.5 c 128,-1,12
 701 244 701 244 675 212.5 c 128,-1,13
 649 181 649 181 616 164.5 c 128,-1,14
 583 148 583 148 549 148 c 0,15,16
 511 148 511 148 487 168.5 c 128,-1,17
 463 189 463 189 458 225 c 1,18,-1
 456 225 l 1,19,20
 433 196 433 196 402 176 c 128,-1,21
 371 156 371 156 336 156 c 0,22,23
 314 156 314 156 294.5 165 c 128,-1,24
 275 174 275 174 260 191 c 128,-1,25
 245 208 245 208 236.5 232 c 128,-1,26
 228 256 228 256 228 285 c 0,27,28
 228 323 228 323 240.5 362 c 128,-1,29
 253 401 253 401 276.5 432.5 c 128,-1,30
 300 464 300 464 334 484 c 128,-1,31
 368 504 368 504 410 504 c 0,32,33
 434 504 434 504 453.5 492.5 c 128,-1,34
 473 481 473 481 486 456 c 1,35,-1
 488 456 l 1,36,-1
 500 496 l 1,37,-1
 556 496 l 1,38,-1
 516 318 l 2,39,40
 502 258 502 258 512.5 231 c 128,-1,41
 523 204 523 204 558 204 c 0,42,43
 577 204 577 204 598 216 c 128,-1,44
 619 228 619 228 635.5 252 c 128,-1,45
 652 276 652 276 663 311.5 c 128,-1,46
 674 347 674 347 674 393 c 0,47,48
 674 447 674 447 658 491.5 c 128,-1,49
 642 536 642 536 611 568 c 128,-1,50
 580 600 580 600 534 617.5 c 128,-1,51
 488 635 488 635 427 635 c 256,52,53
 366 635 366 635 309 611 c 128,-1,54
 252 587 252 587 207.5 542 c 128,-1,55
 163 497 163 497 136.5 434 c 128,-1,56
 110 371 110 371 110 293 c 0,57,58
 110 225 110 225 130.5 175.5 c 128,-1,59
 151 126 151 126 186.5 93.5 c 128,-1,60
 222 61 222 61 270 45 c 128,-1,61
 318 29 318 29 373 29 c 0,62,63
 408 29 408 29 442 37.5 c 128,-1,64
 476 46 476 46 504 63 c 1,65,-1
 527 17 l 1,66,67
 489 -5 489 -5 450 -14.5 c 128,-1,68
 411 -24 411 -24 367 -24 c 0,69,70
 302 -24 302 -24 245 -4.5 c 128,-1,71
 188 15 188 15 144.5 54 c 128,-1,72
 101 93 101 93 76 152 c 128,-1,73
 51 211 51 211 51 290 c 0,0,1
354 212 m 0,74,75
 394 212 394 212 443 270 c 1,76,-1
 470 407 l 1,77,78
 456 430 456 430 443 439 c 128,-1,79
 430 448 430 448 410 448 c 0,80,81
 383 448 383 448 361.5 433.5 c 128,-1,82
 340 419 340 419 325 396 c 128,-1,83
 310 373 310 373 302 345.5 c 128,-1,84
 294 318 294 318 294 292 c 0,85,86
 294 251 294 251 311 231.5 c 128,-1,87
 328 212 328 212 354 212 c 0,74,75
EndSplineSet
Validated: 33
EndChar

StartChar: numbersign
Encoding: 35 35 561
Width: 497
Flags: W
LayerCount: 2
Fore
SplineSet
115 204 m 1,0,-1
 35 204 l 1,1,-1
 35 261 l 1,2,-1
 122 261 l 1,3,-1
 140 409 l 1,4,-1
 55 409 l 1,5,-1
 55 467 l 1,6,-1
 147 467 l 1,7,-1
 170 650 l 1,8,-1
 223 650 l 1,9,-1
 200 467 l 1,10,-1
 333 467 l 1,11,-1
 357 650 l 1,12,-1
 410 650 l 1,13,-1
 386 467 l 1,14,-1
 467 467 l 1,15,-1
 467 409 l 1,16,-1
 380 409 l 1,17,-1
 362 261 l 1,18,-1
 447 261 l 1,19,-1
 447 204 l 1,20,-1
 355 204 l 1,21,-1
 330 0 l 1,22,-1
 277 0 l 1,23,-1
 301 204 l 1,24,-1
 169 204 l 1,25,-1
 144 0 l 1,26,-1
 90 0 l 1,27,-1
 115 204 l 1,0,-1
308 261 m 1,28,-1
 326 409 l 1,29,-1
 194 409 l 1,30,-1
 176 261 l 1,31,-1
 308 261 l 1,28,-1
EndSplineSet
Validated: 1
EndChar

StartChar: zero.dnom
Encoding: 1114206 -1 590
Width: 367
Flags: W
LayerCount: 2
Fore
SplineSet
184 -12 m 0,0,1
 116 -12 116 -12 75.5 42 c 128,-1,2
 35 96 35 96 35 196 c 0,3,4
 35 295 35 295 75.5 348.5 c 128,-1,5
 116 402 116 402 184 402 c 0,6,7
 251 402 251 402 292 348.5 c 128,-1,8
 333 295 333 295 333 196 c 0,9,10
 333 96 333 96 292 42 c 128,-1,11
 251 -12 251 -12 184 -12 c 0,0,1
184 39 m 0,12,13
 222 39 222 39 246 78.5 c 128,-1,14
 270 118 270 118 270 196 c 256,15,16
 270 274 270 274 246 312.5 c 128,-1,17
 222 351 222 351 184 351 c 0,18,19
 145 351 145 351 121 312.5 c 128,-1,20
 97 274 97 274 97 196 c 256,21,22
 97 118 97 118 121 78.5 c 128,-1,23
 145 39 145 39 184 39 c 0,12,13
EndSplineSet
Validated: 1
EndChar

StartChar: one.dnom
Encoding: 1114207 -1 591
Width: 367
Flags: W
LayerCount: 2
Fore
SplineSet
172 308 m 1,0,-1
 87 308 l 1,1,-1
 87 350 l 1,2,3
 120 356 120 356 142 365.5 c 128,-1,4
 164 375 164 375 184 390 c 1,5,-1
 236 390 l 1,6,-1
 236 0 l 1,7,-1
 172 0 l 1,8,-1
 172 308 l 1,0,-1
EndSplineSet
Validated: 1
EndChar

StartChar: two.dnom
Encoding: 1114208 -1 592
Width: 367
Flags: W
LayerCount: 2
Fore
SplineSet
52 37 m 1,0,1
 97 78 97 78 132 110.5 c 128,-1,2
 167 143 167 143 190 170 c 128,-1,3
 213 197 213 197 225 220.5 c 128,-1,4
 237 244 237 244 237 266 c 0,5,6
 237 304 237 304 217 326 c 128,-1,7
 197 348 197 348 162 348 c 0,8,9
 137 348 137 348 116 331.5 c 128,-1,10
 95 315 95 315 78 291 c 1,11,-1
 40 326 l 1,12,13
 63 360 63 360 96.5 381 c 128,-1,14
 130 402 130 402 170 402 c 0,15,16
 229 402 229 402 264.5 370 c 128,-1,17
 300 338 300 338 300 276 c 0,18,19
 300 248 300 248 289 222 c 128,-1,20
 278 196 278 196 258.5 169.5 c 128,-1,21
 239 143 239 143 212.5 115 c 128,-1,22
 186 87 186 87 155 55 c 1,23,-1
 320 55 l 1,24,-1
 320 0 l 1,25,-1
 52 0 l 1,26,-1
 52 37 l 1,0,1
EndSplineSet
Validated: 1
EndChar

StartChar: three.dnom
Encoding: 1114209 -1 593
Width: 367
Flags: W
LayerCount: 2
Fore
SplineSet
78 97 m 1,0,1
 96 70 96 70 121 54.5 c 128,-1,2
 146 39 146 39 177 39 c 0,3,4
 209 39 209 39 232 57 c 128,-1,5
 255 75 255 75 255 109 c 256,6,7
 255 143 255 143 223 160.5 c 128,-1,8
 191 178 191 178 134 178 c 1,9,-1
 134 219 l 1,10,11
 185 219 185 219 212.5 239 c 128,-1,12
 240 259 240 259 240 289 c 0,13,14
 240 317 240 317 220.5 334 c 128,-1,15
 201 351 201 351 169 351 c 0,16,17
 147 351 147 351 127 337.5 c 128,-1,18
 107 324 107 324 90 304 c 1,19,-1
 51 338 l 1,20,21
 77 367 77 367 107.5 384.5 c 128,-1,22
 138 402 138 402 179 402 c 0,23,24
 204 402 204 402 226.5 395 c 128,-1,25
 249 388 249 388 266 374.5 c 128,-1,26
 283 361 283 361 293 341.5 c 128,-1,27
 303 322 303 322 303 297 c 0,28,29
 303 262 303 262 284 238.5 c 128,-1,30
 265 215 265 215 235 201 c 1,31,32
 268 193 268 193 293.5 168.5 c 128,-1,33
 319 144 319 144 319 105 c 0,34,35
 319 78 319 78 308 56.5 c 128,-1,36
 297 35 297 35 278 19.5 c 128,-1,37
 259 4 259 4 233.5 -4 c 128,-1,38
 208 -12 208 -12 180 -12 c 0,39,40
 132 -12 132 -12 95 9.5 c 128,-1,41
 58 31 58 31 35 64 c 1,42,-1
 78 97 l 1,0,1
EndSplineSet
Validated: 1
EndChar

StartChar: four.dnom
Encoding: 1114210 -1 594
Width: 367
Flags: W
LayerCount: 2
Fore
SplineSet
220 150 m 1,0,-1
 220 220 l 1,1,-1
 224 329 l 1,2,-1
 220 329 l 1,3,-1
 170 248 l 1,4,-1
 109 150 l 1,5,-1
 220 150 l 1,0,-1
336 104 m 1,6,-1
 278 104 l 1,7,-1
 278 0 l 1,8,-1
 220 0 l 1,9,-1
 220 104 l 1,10,-1
 42 104 l 1,11,-1
 42 137 l 1,12,-1
 206 390 l 1,13,-1
 278 390 l 1,14,-1
 278 150 l 1,15,-1
 336 150 l 1,16,-1
 336 104 l 1,6,-1
EndSplineSet
Validated: 1
EndChar

StartChar: five.dnom
Encoding: 1114211 -1 595
Width: 367
Flags: W
LayerCount: 2
Fore
SplineSet
78 97 m 1,0,1
 97 70 97 70 121 54.5 c 128,-1,2
 145 39 145 39 179 39 c 0,3,4
 214 39 214 39 236.5 63 c 128,-1,5
 259 87 259 87 259 125 c 0,6,7
 259 165 259 165 236 188 c 128,-1,8
 213 211 213 211 177 211 c 0,9,10
 154 211 154 211 136.5 202 c 128,-1,11
 119 193 119 193 103 179 c 1,12,-1
 72 202 l 1,13,-1
 90 390 l 1,14,-1
 303 390 l 1,15,-1
 303 334 l 1,16,-1
 143 334 l 1,17,-1
 132 239 l 1,18,19
 146 245 146 245 162 249.5 c 128,-1,20
 178 254 178 254 195 254 c 0,21,22
 221 254 221 254 244.5 245.5 c 128,-1,23
 268 237 268 237 285.5 220 c 128,-1,24
 303 203 303 203 313 178.5 c 128,-1,25
 323 154 323 154 323 123 c 0,26,27
 323 93 323 93 312 68 c 128,-1,28
 301 43 301 43 282.5 25.5 c 128,-1,29
 264 8 264 8 238.5 -2 c 128,-1,30
 213 -12 213 -12 183 -12 c 0,31,32
 131 -12 131 -12 94.5 9.5 c 128,-1,33
 58 31 58 31 35 64 c 1,34,-1
 78 97 l 1,0,1
EndSplineSet
Validated: 1
EndChar

StartChar: six.dnom
Encoding: 1114212 -1 596
Width: 367
Flags: W
LayerCount: 2
Fore
SplineSet
195 39 m 0,0,1
 227 39 227 39 246.5 61.5 c 128,-1,2
 266 84 266 84 266 119 c 256,3,4
 266 154 266 154 247 176 c 128,-1,5
 228 198 228 198 191 198 c 0,6,7
 169 198 169 198 149 188.5 c 128,-1,8
 129 179 129 179 106 155 c 1,9,10
 111 97 111 97 135 68 c 128,-1,11
 159 39 159 39 195 39 c 0,0,1
284 327 m 1,12,13
 270 337 270 337 253.5 344 c 128,-1,14
 237 351 237 351 217 351 c 0,15,16
 173 351 173 351 142 315.5 c 128,-1,17
 111 280 111 280 106 205 c 1,18,19
 149 245 149 245 204 245 c 0,20,21
 263 245 263 245 294.5 210.5 c 128,-1,22
 326 176 326 176 326 120 c 0,23,24
 326 92 326 92 316 68 c 128,-1,25
 306 44 306 44 288.5 26 c 128,-1,26
 271 8 271 8 247.5 -2 c 128,-1,27
 224 -12 224 -12 196 -12 c 0,28,29
 127 -12 127 -12 86 40 c 128,-1,30
 45 92 45 92 45 185 c 0,31,32
 45 240 45 240 58 281 c 128,-1,33
 71 322 71 322 94 349 c 128,-1,34
 117 376 117 376 148 389 c 128,-1,35
 179 402 179 402 215 402 c 0,36,37
 249 402 249 402 271 393 c 128,-1,38
 293 384 293 384 310 372 c 1,39,-1
 284 327 l 1,12,13
EndSplineSet
Validated: 1
EndChar

StartChar: seven.dnom
Encoding: 1114213 -1 597
Width: 367
Flags: W
LayerCount: 2
Fore
SplineSet
131 0 m 1,0,1
 134 51 134 51 142 94 c 128,-1,2
 150 137 150 137 164 177 c 128,-1,3
 178 217 178 217 199.5 255.5 c 128,-1,4
 221 294 221 294 251 335 c 1,5,-1
 50 335 l 1,6,-1
 50 390 l 1,7,-1
 323 390 l 1,8,-1
 323 354 l 1,9,10
 287 309 287 309 264.5 267 c 128,-1,11
 242 225 242 225 228 182.5 c 128,-1,12
 214 140 214 140 207.5 95.5 c 128,-1,13
 201 51 201 51 198 0 c 1,14,-1
 131 0 l 1,15,-1
 131 0 l 1,0,1
EndSplineSet
Validated: 5
EndChar

StartChar: eight.dnom
Encoding: 1114214 -1 598
Width: 367
Flags: W
LayerCount: 2
Fore
SplineSet
105 103 m 0,0,1
 105 77 105 77 126 56 c 128,-1,2
 147 35 147 35 182 35 c 0,3,4
 214 35 214 35 237 54.5 c 128,-1,5
 260 74 260 74 260 102 c 0,6,7
 260 120 260 120 251.5 132 c 128,-1,8
 243 144 243 144 229 153 c 128,-1,9
 215 162 215 162 197 169 c 128,-1,10
 179 176 179 176 159 184 c 1,11,12
 105 152 105 152 105 103 c 0,0,1
205 223 m 1,13,14
 227 240 227 240 237 258.5 c 128,-1,15
 247 277 247 277 247 297 c 0,16,17
 247 323 247 323 228 338 c 128,-1,18
 209 353 209 353 182 353 c 0,19,20
 156 353 156 353 138 337.5 c 128,-1,21
 120 322 120 322 120 298 c 0,22,23
 120 268 120 268 145 251 c 128,-1,24
 170 234 170 234 205 223 c 1,13,14
45 97 m 0,25,26
 45 134 45 134 67.5 161.5 c 128,-1,27
 90 189 90 189 119 206 c 1,28,-1
 119 210 l 1,29,30
 93 227 93 227 77 247.5 c 128,-1,31
 61 268 61 268 61 299 c 0,32,33
 61 322 61 322 70.5 341 c 128,-1,34
 80 360 80 360 96.5 373.5 c 128,-1,35
 113 387 113 387 135 394.5 c 128,-1,36
 157 402 157 402 182 402 c 0,37,38
 235 402 235 402 271 374.5 c 128,-1,39
 307 347 307 347 307 299 c 0,40,41
 307 282 307 282 301.5 268 c 128,-1,42
 296 254 296 254 287 242 c 128,-1,43
 278 230 278 230 267.5 221 c 128,-1,44
 257 212 257 212 247 205 c 1,45,-1
 247 201 l 1,46,47
 281 184 281 184 300.5 159.5 c 128,-1,48
 320 135 320 135 320 100 c 0,49,50
 320 76 320 76 309.5 55.5 c 128,-1,51
 299 35 299 35 280.5 20 c 128,-1,52
 262 5 262 5 237 -3.5 c 128,-1,53
 212 -12 212 -12 182 -12 c 0,54,55
 151 -12 151 -12 126 -3.5 c 128,-1,56
 101 5 101 5 83 20 c 128,-1,57
 65 35 65 35 55 55 c 128,-1,58
 45 75 45 75 45 97 c 0,25,26
EndSplineSet
Validated: 1
EndChar

StartChar: nine.dnom
Encoding: 1114215 -1 599
Width: 367
Flags: W
LayerCount: 2
Fore
SplineSet
173 192 m 0,0,1
 196 192 196 192 216 201.5 c 128,-1,2
 236 211 236 211 259 235 c 1,3,4
 254 293 254 293 230 322 c 128,-1,5
 206 351 206 351 169 351 c 0,6,7
 138 351 138 351 118 328.5 c 128,-1,8
 98 306 98 306 98 271 c 256,9,10
 98 236 98 236 117.5 214 c 128,-1,11
 137 192 137 192 173 192 c 0,0,1
81 63 m 1,12,13
 95 53 95 53 111.5 46 c 128,-1,14
 128 39 128 39 148 39 c 0,15,16
 192 39 192 39 223 75 c 128,-1,17
 254 111 254 111 259 186 c 1,18,19
 216 145 216 145 161 145 c 0,20,21
 102 145 102 145 70.5 179.5 c 128,-1,22
 39 214 39 214 39 270 c 0,23,24
 39 298 39 298 49 322 c 128,-1,25
 59 346 59 346 76 364 c 128,-1,26
 93 382 93 382 117 392 c 128,-1,27
 141 402 141 402 168 402 c 0,28,29
 238 402 238 402 279 350 c 128,-1,30
 320 298 320 298 320 205 c 0,31,32
 320 150 320 150 307 109 c 128,-1,33
 294 68 294 68 271 41 c 128,-1,34
 248 14 248 14 217 1 c 128,-1,35
 186 -12 186 -12 150 -12 c 0,36,37
 116 -12 116 -12 93.5 -3 c 128,-1,38
 71 6 71 6 54 18 c 1,39,-1
 81 63 l 1,12,13
EndSplineSet
Validated: 1
EndChar

StartChar: parenleft.dnom
Encoding: 1114216 -1 600
Width: 237
Flags: W
LayerCount: 2
Fore
SplineSet
153 -79 m 1,0,1
 110 -18 110 -18 87.5 46 c 128,-1,2
 65 110 65 110 65 195 c 0,3,4
 65 279 65 279 87.5 342.5 c 128,-1,5
 110 406 110 406 153 467 c 1,6,-1
 198 445 l 1,7,8
 160 386 160 386 143.5 323.5 c 128,-1,9
 127 261 127 261 127 195 c 0,10,11
 127 128 127 128 143.5 65.5 c 128,-1,12
 160 3 160 3 198 -57 c 1,13,-1
 153 -79 l 1,14,-1
 153 -79 l 1,0,1
EndSplineSet
Validated: 5
EndChar

StartChar: parenright.dnom
Encoding: 1114217 -1 601
Width: 237
Flags: W
LayerCount: 2
Fore
SplineSet
39 -57 m 1,0,1
 77 3 77 3 93.5 65.5 c 128,-1,2
 110 128 110 128 110 195 c 0,3,4
 110 261 110 261 93.5 323.5 c 128,-1,5
 77 386 77 386 39 445 c 1,6,-1
 86 467 l 1,7,8
 127 406 127 406 149.5 342.5 c 128,-1,9
 172 279 172 279 172 195 c 0,10,11
 172 110 172 110 150 46 c 128,-1,12
 128 -18 128 -18 86 -79 c 1,13,-1
 39 -57 l 1,14,-1
 39 -57 l 1,0,1
EndSplineSet
Validated: 5
EndChar

StartChar: period.dnom
Encoding: 1114218 -1 602
Width: 177
Flags: W
LayerCount: 2
Fore
SplineSet
43 39 m 0,0,1
 43 61 43 61 56 74 c 128,-1,2
 69 87 69 87 89 87 c 256,3,4
 109 87 109 87 121.5 74 c 128,-1,5
 134 61 134 61 134 39 c 0,6,7
 134 18 134 18 121.5 5 c 128,-1,8
 109 -8 109 -8 89 -8 c 256,9,10
 69 -8 69 -8 56 5 c 128,-1,11
 43 18 43 18 43 39 c 0,0,1
EndSplineSet
Validated: 1
EndChar

StartChar: comma.dnom
Encoding: 1114219 -1 603
Width: 177
Flags: W
LayerCount: 2
Fore
SplineSet
33 -79 m 1,0,1
 62 -68 62 -68 79 -48.5 c 128,-1,2
 96 -29 96 -29 97 0 c 1,3,4
 94 -1 94 -1 89 -1 c 0,5,6
 72 -1 72 -1 58 9.5 c 128,-1,7
 44 20 44 20 44 41 c 256,8,9
 44 62 44 62 58 74.5 c 128,-1,10
 72 87 72 87 91 87 c 0,11,12
 116 87 116 87 130 68.5 c 128,-1,13
 144 50 144 50 144 14 c 0,14,15
 144 -31 144 -31 119 -65 c 128,-1,16
 94 -99 94 -99 49 -116 c 1,17,-1
 33 -79 l 1,0,1
EndSplineSet
Validated: 1
EndChar

